<svg width="1374" height="609" viewBox="0 0 1374 609" fill="none" xmlns="http://www.w3.org/2000/svg">
<g clip-path="url(#clip0_1600_43733)">
<path d="M739.529 466.06C821.361 466.06 887.699 457.092 887.699 446.03C887.699 434.968 821.361 426 739.529 426C657.697 426 591.359 434.968 591.359 446.03C591.359 457.092 657.697 466.06 739.529 466.06Z" fill="#D3EAE8"/>
<path d="M1026.99 563.83C1108.82 563.83 1175.16 554.862 1175.16 543.8C1175.16 532.737 1108.82 523.77 1026.99 523.77C945.157 523.77 878.819 532.737 878.819 543.8C878.819 554.862 945.157 563.83 1026.99 563.83Z" fill="#D3EAE8"/>
<path fill-rule="evenodd" clip-rule="evenodd" d="M892.4 273.65C895.9 252.99 897.65 228.29 897.65 199.57C897.65 146.67 890.99 105.77 877.69 76.8797C869.98 60.2397 860.57 46.2797 849.45 34.9797C838.32 23.6797 825.41 15.0997 810.7 9.22969C795.99 3.35969 779.61 0.429688 761.57 0.429688C734.25 0.429688 710.74 7.03969 691.03 20.2597C671.32 33.4797 656.3 52.6997 645.97 77.9197C640.01 93.1597 635.63 111.37 632.83 132.56C630.03 153.76 628.63 177.58 628.63 204.02C628.63 224.51 629.9 243.56 632.44 261.16C634.97 278.76 638.96 294.83 644.39 309.37C655.08 336 670.97 356.84 692.08 371.9C713.19 386.96 737.05 394.49 763.67 394.49C786.79 394.49 807.81 388.89 826.72 377.68C845.64 366.48 861.05 350.54 872.96 329.87C882.42 313.06 888.89 294.32 892.4 273.65ZM819.88 115.62C823.73 136.03 825.66 162.26 825.66 194.31C825.66 228.11 823.82 255.44 820.14 276.27C816.46 297.12 810.06 313.14 800.96 324.35C791.85 335.56 779.24 341.16 763.13 341.16C747.54 341.16 735.19 335.77 726.09 325C716.98 314.23 710.5 298.34 706.65 277.32C702.8 256.3 700.87 229.33 700.87 196.4C700.87 147.89 705.38 111.98 714.4 88.6897C723.42 65.3997 739.49 53.7497 762.61 53.7497C778.72 53.7497 791.33 58.9597 800.44 69.3797C809.55 79.8097 816.02 95.2197 819.88 115.62Z" fill="#288684"/>
<path fill-rule="evenodd" clip-rule="evenodd" d="M1069.18 420.859V469.729C1069.18 482.859 1072.2 492.799 1078.26 499.539C1084.3 506.279 1092.23 509.649 1102.04 509.649C1112.01 509.649 1119.99 506.369 1125.94 499.799C1131.89 493.229 1134.87 483.209 1134.87 469.719V420.849H1150.89C1164.2 420.849 1174.18 418.529 1180.84 413.889C1187.49 409.249 1190.82 401.849 1190.82 391.689C1190.82 379.259 1186.74 371.199 1178.6 367.519C1170.46 363.839 1159.64 361.999 1146.16 361.999H1134.86V158.649C1134.86 128.179 1121.55 112.939 1094.93 112.939C1086.69 112.939 1079.64 115.699 1073.78 121.219C1067.91 126.739 1060.42 135.629 1051.32 147.889L912.08 334.149C908.23 339.239 904.99 343.529 902.36 347.029C899.73 350.529 897.19 354.169 894.74 357.929C892.29 361.699 890.45 365.279 889.22 368.699C887.99 372.119 887.38 375.489 887.38 378.819C887.38 391.789 891.54 402.029 899.86 409.559C908.18 417.099 920.66 420.859 937.3 420.859H1069.18ZM1069.18 362.009H956.21L1069.18 209.369V362.009Z" fill="#288684"/>
<path d="M449.14 592.869C530.972 592.869 597.31 583.901 597.31 572.839C597.31 561.776 530.972 552.809 449.14 552.809C367.308 552.809 300.97 561.776 300.97 572.839C300.97 583.901 367.308 592.869 449.14 592.869Z" fill="#D3EAE8"/>
<path fill-rule="evenodd" clip-rule="evenodd" d="M493.26 452.699V501.569C493.26 514.699 496.28 524.649 502.33 531.379C508.38 538.119 516.3 541.489 526.11 541.489C536.1 541.489 544.06 538.209 550.02 531.639C555.97 525.069 558.95 515.049 558.95 501.559V452.689H574.97C588.28 452.689 598.26 450.369 604.92 445.729C611.57 441.089 614.9 433.689 614.9 423.529C614.9 411.099 610.82 403.039 602.68 399.359C594.53 395.679 583.72 393.839 570.23 393.839H558.93V190.489C558.93 160.019 545.62 144.779 519 144.779C510.76 144.779 503.72 147.539 497.85 153.059C491.98 158.579 484.5 167.469 475.39 179.729L336.15 365.989C332.3 371.079 329.06 375.369 326.43 378.869C323.8 382.369 321.26 386.009 318.81 389.769C316.35 393.539 314.51 397.119 313.29 400.539C312.06 403.959 311.45 407.329 311.45 410.659C311.45 423.629 315.61 433.869 323.93 441.399C332.25 448.939 344.73 452.699 361.37 452.699H493.26ZM493.26 393.849H380.29L493.26 241.209V393.849Z" fill="#288684"/>
<path d="M1154.09 354.799C1155.15 348.559 1156.6 341.949 1162.59 337.409C1170.19 331.679 1182.65 330.949 1193.01 333.019C1203.36 335.099 1212.69 339.579 1222.92 342.569C1225.67 343.369 1228.83 344.049 1231.48 343.009C1234.16 341.969 1235.44 339.509 1236.33 337.229C1246.14 310.989 1235.76 283.469 1235.93 257.049C1235.86 249.859 1236.79 241.919 1241.81 235.769C1254.84 218.859 1260 228.019 1271.98 209.409C1280.35 196.409 1282.13 172.029 1296.51 163.529C1326.24 145.939 1325.51 211.269 1327.65 226.249C1331.7 254.669 1371.16 253.229 1363.7 287.679C1360.46 302.639 1350.58 314.839 1344.08 328.259C1337.68 341.729 1335.59 359.259 1348.56 369.579C1357.01 376.299 1371.82 380.109 1372.97 389.919C1373.63 395.699 1368.52 400.309 1363.61 404.069C1351.36 413.499 1338.49 422.329 1325.03 430.549C1321.63 432.629 1318.01 434.839 1316.82 438.059C1315.18 442.459 1318.57 447.329 1321.06 451.909C1330.25 468.809 1326.35 487.429 1314.36 501.239C1302.46 515.069 1283.39 524.729 1263.66 532.979C1238.28 543.639 1211.46 552.489 1183.36 559.399C1100.92 576.069 1129.43 512.919 1132.94 490.139C1139.33 444.509 1146.38 399.389 1154.09 354.799Z" fill="#006DFF"/>
<path d="M1204.29 535.389C1204.07 535.389 1203.84 535.349 1203.62 535.269C1202.65 534.899 1202.17 533.819 1202.54 532.849L1297.41 285.019C1297.78 284.049 1298.87 283.569 1299.83 283.939C1300.8 284.309 1301.28 285.389 1300.91 286.359L1206.04 534.189C1205.76 534.939 1205.05 535.389 1204.29 535.389Z" fill="#FEFEFE"/>
<path d="M1258.22 394.358C1257.57 394.358 1256.93 394.018 1256.59 393.398L1239.82 363.528C1239.31 362.628 1239.63 361.488 1240.53 360.978C1241.44 360.478 1242.58 360.788 1243.08 361.698L1259.85 391.568C1260.36 392.468 1260.04 393.608 1259.14 394.118C1258.84 394.278 1258.53 394.358 1258.22 394.358Z" fill="#FEFEFE"/>
<path d="M1272.02 359.37C1271.31 359.37 1270.64 358.97 1270.32 358.28C1269.89 357.34 1270.3 356.23 1271.23 355.79L1302.33 341.43C1303.27 341 1304.38 341.4 1304.82 342.35C1305.25 343.29 1304.84 344.4 1303.91 344.84L1272.81 359.2C1272.55 359.32 1272.28 359.37 1272.02 359.37Z" fill="#FEFEFE"/>
<path d="M1148.75 562.549C1141.32 561.559 1133.95 560.489 1128.06 555.929C1125.01 553.569 1122.65 548.789 1125.43 546.129C1126.83 544.789 1128.95 544.649 1130.84 544.229C1138.13 542.609 1133.05 536.599 1128.97 534.609C1121.78 531.109 1113.31 528.699 1108.99 521.969C1108.72 521.549 1108.46 521.079 1108.48 520.579C1108.52 519.829 1109.17 519.269 1109.8 518.859C1114.09 516.079 1122.35 517.689 1124.93 512.659C1131.23 500.369 1103.79 485.239 1097.25 478.919C1096 477.709 1094.69 476.399 1094.34 474.699C1093.65 471.399 1096.98 468.479 1100.3 467.879C1105.38 466.969 1110.6 469.179 1115.64 467.589C1119.61 466.339 1121.72 462.089 1122.09 458.179C1123.21 446.419 1115.99 434.909 1114.88 423.309C1113.97 413.819 1117.83 394.899 1131.18 397.409C1137.29 398.559 1140.1 405.439 1142.78 411.049C1145.27 416.249 1148.59 422.019 1152.75 426.019C1155.8 428.949 1159.95 431.029 1164.17 430.649C1172.36 429.899 1182.06 421.829 1184.13 434.939C1184.76 438.959 1183.91 443.049 1184.04 447.109C1184.17 451.169 1185.66 455.659 1189.33 457.419C1196.01 460.629 1212.93 449.479 1213.98 462.579C1214.25 465.859 1212.93 469.029 1211.83 472.129C1206.52 487.119 1220.45 484.409 1225.54 494.449C1227.37 498.059 1227.18 502.429 1225.93 506.279C1223.92 512.459 1219.64 517.799 1216.81 523.619C1211.06 535.439 1207.96 548.389 1205.73 561.269C1204.1 570.719 1204.18 588.649 1191.6 590.689C1183.84 591.949 1179.6 580.519 1176.2 575.579C1169.58 565.989 1159.7 564.009 1148.75 562.549Z" fill="#D3EAE8"/>
<path d="M1199.74 594.739C1198.97 594.739 1198.25 594.269 1197.98 593.499L1149.18 458.469C1148.83 457.499 1149.33 456.419 1150.31 456.069C1151.27 455.709 1152.36 456.219 1152.71 457.199L1201.51 592.229C1201.86 593.199 1201.36 594.279 1200.38 594.629C1200.17 594.699 1199.96 594.739 1199.74 594.739Z" fill="#FEFEFE"/>
<path d="M1166.65 500.839C1166.48 500.839 1166.31 500.819 1166.14 500.769C1165.14 500.489 1164.57 499.449 1164.85 498.459L1172.91 470.019C1173.19 469.019 1174.21 468.439 1175.23 468.729C1176.23 469.009 1176.8 470.049 1176.52 471.039L1168.46 499.479C1168.22 500.299 1167.46 500.839 1166.65 500.839Z" fill="#FEFEFE"/>
<path d="M1184.85 549.608C1184.68 549.608 1184.51 549.588 1184.34 549.538C1183.34 549.258 1182.77 548.218 1183.05 547.228L1191.11 518.788C1191.39 517.788 1192.42 517.198 1193.43 517.498C1194.43 517.778 1195 518.818 1194.72 519.808L1186.66 548.248C1186.42 549.068 1185.66 549.608 1184.85 549.608Z" fill="#FEFEFE"/>
<path d="M1173.72 527.509C1173.54 527.509 1173.36 527.479 1173.17 527.429L1145.41 519.019C1144.42 518.719 1143.86 517.669 1144.16 516.679C1144.46 515.689 1145.5 515.129 1146.5 515.429L1174.26 523.839C1175.25 524.139 1175.81 525.189 1175.51 526.179C1175.27 526.989 1174.53 527.509 1173.72 527.509Z" fill="#FEFEFE"/>
<path d="M850.68 499.719C850.94 499.729 851.2 499.789 851.47 499.939C852.3 500.389 852.61 501.419 852.81 502.349C854.62 510.849 854.57 508.769 853.67 519.919C855.57 512.959 854.82 514.179 858.37 507.889C859.06 506.669 859.83 505.419 861.03 504.679C868.79 499.929 861.28 520.979 859.96 523.399C855.09 532.359 845.62 534.579 836.43 531.279C828.37 528.379 820.67 522.109 817.78 513.899C817.52 513.159 817.33 512.229 817.88 511.669C818.26 511.279 818.86 511.229 819.4 511.229C824.27 511.219 828.83 513.699 832.55 516.829C836.27 519.959 839.35 523.789 842.85 527.159C845.33 529.549 850.81 529.409 854.23 529.829C860.05 530.529 862.35 528.279 867.4 525.299C868.5 524.649 869.7 524.059 870.98 524.069C872.26 524.079 873.61 524.889 873.85 526.139C873.99 526.889 873.73 527.649 873.41 528.339C869.27 537.079 858 535.909 853.03 528.929C848.29 522.279 845.24 511.199 847.51 503.219C847.98 501.609 849.25 499.689 850.68 499.719Z" fill="#006DFF"/>
<path d="M118.08 565.52C118.33 565.59 118.56 565.73 118.78 565.96C119.45 566.68 119.45 567.92 119.37 569.01C118.62 579.07 119.19 576.7 115.05 589.07C118.94 581.68 117.85 582.87 123.13 576.67C124.16 575.46 125.27 574.24 126.64 573.71C135.55 570.3 122.09 592.18 120.11 594.58C112.77 603.47 102.95 603.59 95.0299 597.55C88.0799 592.25 82.4699 583.22 82.0899 573.23C82.0599 572.33 82.1499 571.23 82.8399 570.74C83.3199 570.4 83.9099 570.49 84.4399 570.62C89.1499 571.83 92.8399 575.78 95.5199 580.26C98.1999 584.74 100.06 589.83 102.46 594.52C104.16 597.85 109.5 599.07 112.69 600.4C118.12 602.66 121 600.69 126.76 598.6C128.02 598.15 129.35 597.78 130.59 598.12C131.83 598.46 132.9 599.7 132.76 601.18C132.68 602.06 132.2 602.86 131.69 603.55C125.12 612.38 114.55 608.22 111.79 599.09C109.16 590.38 109.46 577.1 114 568.66C114.9 566.97 116.7 565.13 118.08 565.52Z" fill="#006DFF"/>
<path d="M623.64 431.449C624.45 423.189 624.43 415.529 627.14 407.469C628.05 404.749 629.35 401.849 631.93 400.609C632.42 400.369 633 400.209 633.49 400.429C633.92 400.619 634.19 401.049 634.41 401.479C648.45 428.379 610.77 443.509 593.58 423.279C592.52 422.029 591.52 420.599 591.37 418.959C591.1 415.959 593.96 413.369 596.95 413.019C599.94 412.669 602.87 414.029 605.34 415.739C611.88 420.269 616.23 427.249 620.39 434.019C614.59 425.299 611.6 414.749 611.95 404.289C612 402.719 612.53 400.709 614.1 400.579C614.85 400.519 615.54 400.949 616.14 401.409C620.42 404.699 622.83 409.969 623.73 415.299C624.63 420.619 624.16 426.079 623.64 431.449Z" fill="#D3EAE8"/>
<path d="M1088.64 606.549C1095.69 599.289 1101.5 591.939 1110.16 586.389C1113.08 584.519 1116.49 582.789 1119.84 583.669C1120.47 583.839 1121.14 584.139 1121.43 584.749C1121.69 585.279 1121.6 585.909 1121.49 586.489C1114.03 623.549 1067.49 607.729 1066.94 574.529C1066.91 572.469 1067.07 570.299 1068.18 568.619C1070.22 565.539 1074.85 565.349 1077.89 567.419C1080.93 569.489 1082.62 573.149 1083.61 576.779C1086.23 586.379 1084.96 596.559 1083.66 606.389C1084.92 593.379 1090.17 580.859 1098.47 571.119C1099.72 569.659 1101.74 568.159 1103.3 569.289C1104.05 569.829 1104.36 570.809 1104.56 571.729C1106.03 578.329 1104.25 585.319 1101.02 591.139C1097.81 596.969 1093.22 601.819 1088.64 606.549Z" fill="#D3EAE8"/>
<path d="M124.99 402.418C125.57 393.178 128.05 382.158 136.79 379.118C149.63 374.648 158.86 390.888 168.65 400.328C170.89 402.488 173.59 404.448 176.69 404.718C179.78 404.988 182.8 403.528 185.24 401.608C193.78 394.868 196.45 383.168 197.46 372.338C198.48 361.508 198.54 350.118 203.78 340.578C209.01 331.048 221.78 324.528 231 330.268C251.75 343.168 258.69 312.478 271.35 302.438C276.68 298.208 284.09 295.928 290.43 298.398C296.65 300.818 300.47 307.128 302.69 313.418C307.73 327.748 306.95 346.418 298.53 359.468C290.61 371.738 273.01 376.618 270.79 392.998C269.26 404.268 277.24 415.638 274.21 426.598C271.68 435.738 262.28 441.448 258.72 450.238C253.93 462.088 260.84 476.488 255.33 488.008C251.74 495.498 243.64 499.998 239.86 507.398C235.21 516.518 238.2 527.478 237.63 537.698C236.42 559.598 216.34 579.878 193.65 577.908C174.26 576.228 165.22 553.988 156.56 538.648C133.34 497.498 122.01 449.598 124.99 402.418Z" fill="#006DFF"/>
<path d="M197.12 522.618C196.96 522.618 196.81 522.598 196.65 522.558C195.65 522.298 195.05 521.278 195.31 520.268L224.39 408.468C224.65 407.468 225.67 406.858 226.68 407.128C227.68 407.388 228.28 408.408 228.02 409.418L198.94 521.218C198.71 522.058 197.95 522.618 197.12 522.618Z" fill="#FEFEFE"/>
<path d="M214.12 457.238C213.56 457.238 213 456.988 212.63 456.508L189.03 425.738C188.4 424.918 188.56 423.738 189.38 423.108C190.2 422.478 191.38 422.638 192.01 423.458L215.61 454.228C216.24 455.048 216.08 456.228 215.26 456.858C214.92 457.108 214.52 457.238 214.12 457.238Z" fill="#FEFEFE"/>
<path d="M175.68 586.439C166.83 582.699 158.6 574.369 150.27 567.569C132.09 552.709 131.45 533.519 46.0898 519.299C6.40981 512.689 35.6898 470.049 13.7098 436.219C6.76981 425.539 0.0698052 413.719 0.599805 400.989C1.12981 388.259 11.9598 375.199 24.5698 377.039C32.1398 378.139 37.9898 383.959 44.4298 388.089C50.8698 392.219 60.2198 394.429 65.5598 388.959C61.5098 380.399 54.6598 373.549 49.2898 365.749C43.9198 357.959 39.9398 348.169 42.7498 339.129C47.0898 325.159 59.7398 333.899 65.0798 328.169C72.2498 320.489 70.3798 300.009 75.6798 289.429C88.1098 264.619 131.61 255.029 147.85 281.869C166.65 312.939 154.56 355.569 145.44 390.879C132.76 439.969 181.77 456.459 197.79 490.339C209.33 514.769 226.36 559.009 201.36 581.119C191.97 589.449 183.58 589.769 175.68 586.439Z" fill="#288684"/>
<path d="M195.79 597.09C195.11 597.09 194.46 596.72 194.13 596.08L111.12 437.21C110.64 436.29 111 435.16 111.91 434.68C112.82 434.2 113.96 434.56 114.44 435.47L197.45 594.34C197.93 595.26 197.57 596.39 196.66 596.87C196.38 597.03 196.09 597.09 195.79 597.09Z" fill="#FEFEFE"/>
<path d="M154.28 522.07C153.95 522.07 153.61 521.98 153.31 521.8L92.6099 484.82C91.7299 484.28 91.4499 483.13 91.9799 482.24C92.5199 481.36 93.6699 481.08 94.5599 481.61L155.26 518.59C156.14 519.13 156.42 520.28 155.89 521.17C155.53 521.75 154.92 522.07 154.28 522.07Z" fill="#FEFEFE"/>
<path d="M131.45 474.679C131.12 474.679 130.78 474.589 130.48 474.409L69.7798 437.429C68.8998 436.889 68.6198 435.739 69.1498 434.849C69.6898 433.969 70.8398 433.689 71.7298 434.219L132.43 471.199C133.31 471.739 133.59 472.889 133.06 473.779C132.7 474.359 132.08 474.679 131.45 474.679Z" fill="#FEFEFE"/>
<path d="M171.45 554.919C171.33 554.919 171.2 554.909 171.07 554.879C170.06 554.679 169.4 553.689 169.61 552.669L181.32 495.109C181.52 494.099 182.51 493.449 183.53 493.649C184.54 493.849 185.2 494.839 184.99 495.859L173.28 553.419C173.11 554.309 172.32 554.919 171.45 554.919Z" fill="#FEFEFE"/>
<path d="M1358.74 548.85C1363.13 541.99 1366.91 534.04 1367.88 525.15C1368.11 523 1368.14 520.63 1367.16 518.89C1366.31 517.38 1364.88 516.67 1363.49 516.28C1353.63 513.5 1344.38 523.03 1337.27 532.46C1324.7 549.12 1313.48 567.55 1303.86 587.34C1309.62 575.5 1312.65 552.79 1311.28 538.87C1311.23 538.32 1311.14 537.73 1310.82 537.38C1310.49 537.03 1310.02 537.05 1309.6 537.15C1306.57 537.92 1304.66 541.81 1303.2 545.41C1298.7 556.56 1294.79 569.44 1292.18 581.95C1293.82 574.09 1288.97 564.63 1284.57 559.95C1276.7 551.58 1278.38 563.26 1280.09 570.12C1281.76 576.85 1292.89 603.17 1300.82 597.29C1302.27 596.21 1302.63 590.33 1303.82 588.44C1305.9 585.16 1308.79 584.08 1311.77 582.86C1319.77 579.58 1328.1 578.23 1335.62 573.07C1344.41 567.05 1352.35 558.84 1358.74 548.85Z" fill="#006DFF"/>
<path d="M341.81 509.74C342.07 509.7 342.34 509.73 342.62 509.83C343.51 510.15 343.98 511.11 344.32 512C347.44 520.11 347.07 518.06 347.94 529.21C348.72 522.03 348.17 523.36 350.69 516.59C351.18 515.27 351.74 513.92 352.81 513C359.73 507.09 355.62 529.06 354.7 531.65C351.3 541.26 342.3 544.94 332.7 543.13C324.29 541.54 315.69 536.55 311.55 528.9C311.18 528.21 310.84 527.32 311.3 526.68C311.61 526.24 312.19 526.09 312.73 526.01C317.53 525.24 322.43 526.96 326.6 529.47C330.77 531.98 334.41 535.27 338.4 538.05C341.23 540.02 346.61 539.02 350.06 538.89C355.92 538.67 357.83 536.08 362.35 532.35C363.34 531.54 364.43 530.76 365.7 530.58C366.97 530.4 368.43 530.97 368.86 532.17C369.12 532.89 368.98 533.68 368.77 534.41C366.06 543.69 354.74 544.31 348.74 538.2C343.01 532.37 338.25 521.92 339.24 513.68C339.43 512.03 340.39 509.94 341.81 509.74Z" fill="#288684"/>
</g>
<defs>
<clipPath id="clip0_1600_43733">
<rect width="1374" height="609" fill="white"/>
</clipPath>
</defs>
</svg>
