<svg xmlns="http://www.w3.org/2000/svg" version="1.1" xmlns:xlink="http://www.w3.org/1999/xlink" xmlns:svgjs="http://svgjs.com/svgjs" width="1440" height="400" preserveAspectRatio="none" viewBox="0 0 1440 400">
    <g mask="url(&quot;#SvgjsMask1074&quot;)" fill="none">
        <rect width="1440" height="400" x="0" y="0" fill="rgba(21, 67, 96, 1)"></rect>
        <path d="M0,430.282C81.362,420.374,164.81,407.455,229.552,357.191C291.649,308.98,313.579,229.568,348.954,159.362C385.896,86.046,450.289,18.146,441.518,-63.481C432.7,-145.548,362.837,-205.598,303.566,-263.041C248.472,-316.435,186.503,-362.951,112.32,-382.526C39.359,-401.778,-34.597,-383.169,-109.218,-371.964C-195.891,-358.95,-301.657,-377.354,-359.669,-311.655C-417.638,-246.004,-375.083,-142.406,-388.357,-55.837C-401.801,31.843,-459.891,114.094,-438.137,200.09C-415.108,291.128,-351.665,374.172,-268.534,417.848C-187.568,460.386,-90.789,441.338,0,430.282" fill="#0e2c3e"></path>
        <path d="M1440 960.17C1551.888 970.857 1677.674 976.813 1766.133 907.473 1853.51 838.981 1867.716 714.649 1891.551 606.216 1911.3600000000001 516.098 1912.259 425.027 1891.967 335.017 1872.8809999999999 250.354 1823.191 180.987 1778.866 106.37099999999998 1724.393 14.672000000000025 1700.309-110.64100000000002 1602.273-152.65200000000004 1504.144-194.70299999999997 1392.012-140.91999999999996 1292.597-102.00900000000001 1199.933-65.74000000000001 1111.645-15.949000000000012 1051.149 63.059000000000026 992.649 139.45999999999998 988.6469999999999 238.969 960.95 331.123 927.638 441.961 831.912 550.833 871.909 659.438 911.619 767.2660000000001 1050.033 795.015 1151.589 848.7760000000001 1244.555 897.99 1335.288 950.169 1440 960.17" fill="#1c5a82"></path>
    </g>
    <defs>
        <mask id="SvgjsMask1074">
            <rect width="1440" height="400" fill="#ffffff"></rect>
        </mask>
    </defs>
</svg>