<svg id="visual" viewBox="0 0 960 540" width="960" height="540" xmlns="http://www.w3.org/2000/svg" xmlns:xlink="http://www.w3.org/1999/xlink" version="1.1"><rect x="0" y="0" width="960" height="540" fill="#000"></rect><path d="M0 340L17.8 339.2C35.7 338.3 71.3 336.7 106.8 333.7C142.3 330.7 177.7 326.3 213.2 336.2C248.7 346 284.3 370 320 383.5C355.7 397 391.3 400 426.8 395.7C462.3 391.3 497.7 379.7 533.2 375.2C568.7 370.7 604.3 373.3 640 365.7C675.7 358 711.3 340 746.8 336.3C782.3 332.7 817.7 343.3 853.2 354.7C888.7 366 924.3 378 942.2 384L960 390L960 541L942.2 541C924.3 541 888.7 541 853.2 541C817.7 541 782.3 541 746.8 541C711.3 541 675.7 541 640 541C604.3 541 568.7 541 533.2 541C497.7 541 462.3 541 426.8 541C391.3 541 355.7 541 320 541C284.3 541 248.7 541 213.2 541C177.7 541 142.3 541 106.8 541C71.3 541 35.7 541 17.8 541L0 541Z" fill="#006dff"></path><path d="M0 378L17.8 377.3C35.7 376.7 71.3 375.3 106.8 371.7C142.3 368 177.7 362 213.2 369.2C248.7 376.3 284.3 396.7 320 408C355.7 419.3 391.3 421.7 426.8 415.8C462.3 410 497.7 396 533.2 385.5C568.7 375 604.3 368 640 374.3C675.7 380.7 711.3 400.3 746.8 402.5C782.3 404.7 817.7 389.3 853.2 389.3C888.7 389.3 924.3 404.7 942.2 412.3L960 420L960 541L942.2 541C924.3 541 888.7 541 853.2 541C817.7 541 782.3 541 746.8 541C711.3 541 675.7 541 640 541C604.3 541 568.7 541 533.2 541C497.7 541 462.3 541 426.8 541C391.3 541 355.7 541 320 541C284.3 541 248.7 541 213.2 541C177.7 541 142.3 541 106.8 541C71.3 541 35.7 541 17.8 541L0 541Z" fill="#788eff"></path><path d="M0 458L17.8 452.8C35.7 447.7 71.3 437.3 106.8 434.3C142.3 431.3 177.7 435.7 213.2 439.8C248.7 444 284.3 448 320 444.5C355.7 441 391.3 430 426.8 425.7C462.3 421.3 497.7 423.7 533.2 428.3C568.7 433 604.3 440 640 438.7C675.7 437.3 711.3 427.7 746.8 428.5C782.3 429.3 817.7 440.7 853.2 437.2C888.7 433.7 924.3 415.3 942.2 406.2L960 397L960 541L942.2 541C924.3 541 888.7 541 853.2 541C817.7 541 782.3 541 746.8 541C711.3 541 675.7 541 640 541C604.3 541 568.7 541 533.2 541C497.7 541 462.3 541 426.8 541C391.3 541 355.7 541 320 541C284.3 541 248.7 541 213.2 541C177.7 541 142.3 541 106.8 541C71.3 541 35.7 541 17.8 541L0 541Z" fill="#acb2ff"></path><path d="M0 462L17.8 462.8C35.7 463.7 71.3 465.3 106.8 460.8C142.3 456.3 177.7 445.7 213.2 446C248.7 446.3 284.3 457.7 320 465.3C355.7 473 391.3 477 426.8 476.3C462.3 475.7 497.7 470.3 533.2 462.3C568.7 454.3 604.3 443.7 640 446C675.7 448.3 711.3 463.7 746.8 466.2C782.3 468.7 817.7 458.3 853.2 456C888.7 453.7 924.3 459.3 942.2 462.2L960 465L960 541L942.2 541C924.3 541 888.7 541 853.2 541C817.7 541 782.3 541 746.8 541C711.3 541 675.7 541 640 541C604.3 541 568.7 541 533.2 541C497.7 541 462.3 541 426.8 541C391.3 541 355.7 541 320 541C284.3 541 248.7 541 213.2 541C177.7 541 142.3 541 106.8 541C71.3 541 35.7 541 17.8 541L0 541Z" fill="#d7d8ff"></path><path d="M0 511L17.8 511.2C35.7 511.3 71.3 511.7 106.8 505.3C142.3 499 177.7 486 213.2 483C248.7 480 284.3 487 320 489.5C355.7 492 391.3 490 426.8 492.3C462.3 494.7 497.7 501.3 533.2 505.5C568.7 509.7 604.3 511.3 640 506C675.7 500.7 711.3 488.3 746.8 481.8C782.3 475.3 817.7 474.7 853.2 474.2C888.7 473.7 924.3 473.3 942.2 473.2L960 473L960 541L942.2 541C924.3 541 888.7 541 853.2 541C817.7 541 782.3 541 746.8 541C711.3 541 675.7 541 640 541C604.3 541 568.7 541 533.2 541C497.7 541 462.3 541 426.8 541C391.3 541 355.7 541 320 541C284.3 541 248.7 541 213.2 541C177.7 541 142.3 541 106.8 541C71.3 541 35.7 541 17.8 541L0 541Z" fill="#ffffff"></path></svg>