<?xml version="1.0" encoding="UTF-8" standalone="no"?>
<!DOCTYPE svg PUBLIC "-//W3C//DTD SVG 1.1//EN" "http://www.w3.org/Graphics/SVG/1.1/DTD/svg11.dtd">
<svg width="100%" height="100%" viewBox="0 0 960 540" version="1.1" xmlns="http://www.w3.org/2000/svg" xmlns:xlink="http://www.w3.org/1999/xlink" xml:space="preserve" xmlns:serif="http://www.serif.com/" style="fill-rule:evenodd;clip-rule:evenodd;stroke-linejoin:round;stroke-miterlimit:2;">
    <rect x="0" y="0" width="960" height="540" style="fill:white;"/>
    <g transform="matrix(1,0,0,1,0,40)">
        <path d="M0,269L20,282.5C40,296 80,323 120,339.8C160,356.7 200,363.3 240,350.7C280,338 320,306 360,299.8C400,293.7 440,313.3 480,320.2C520,327 560,321 600,325C640,329 680,343 720,331C760,319 800,281 840,275.3C880,269.7 920,296.3 940,309.7L960,323L960,541L0,541L0,269Z" style="fill:rgb(0,109,255);fill-rule:nonzero;"/>
    </g>
    <g transform="matrix(1,0,0,1,0,40)">
        <path d="M0,304L20,311.7C40,319.3 80,334.7 120,349.2C160,363.7 200,377.3 240,373.8C280,370.3 320,349.7 360,343.7C400,337.7 440,346.3 480,340.7C520,335 560,315 600,316.5C640,318 680,341 720,355.8C760,370.7 800,377.3 840,365.8C880,354.3 920,324.7 940,309.8L960,295L960,541L0,541L0,304Z" style="fill:rgb(107,135,255);fill-rule:nonzero;"/>
    </g>
    <g transform="matrix(1,0,0,1,0,40)">
        <path d="M0,425L20,423.8C40,422.7 80,420.3 120,414.7C160,409 200,400 240,395.3C280,390.7 320,390.3 360,384.5C400,378.7 440,367.3 480,358.2C520,349 560,342 600,353C640,364 680,393 720,397.5C760,402 800,382 840,374.7C880,367.3 920,372.7 940,375.3L960,378L960,541L0,541L0,425Z" style="fill:rgb(153,163,255);fill-rule:nonzero;"/>
    </g>
    <g transform="matrix(1,0,0,1,0,20)">
        <path d="M0,438L20,439.7C40,441.3 80,444.7 120,448.3C160,452 200,456 240,452.3C280,448.7 320,437.3 360,424.5C400,411.7 440,397.3 480,402.8C520,408.3 560,433.7 600,443.7C640,453.7 680,448.3 720,444C760,439.7 800,436.3 840,433C880,429.7 920,426.3 940,424.7L960,423L960,541L0,541L0,438Z" style="fill:rgb(190,193,255);fill-rule:nonzero;"/>
    </g>
    <g transform="matrix(1,0,0,1,0,20)">
        <path d="M0,444L20,444.3C40,444.7 80,445.3 120,446.3C160,447.3 200,448.7 240,454.3C280,460 320,470 360,470.3C400,470.7 440,461.3 480,457.2C520,453 560,454 600,456.2C640,458.3 680,461.7 720,460.7C760,459.7 800,454.3 840,450.3C880,446.3 920,443.7 940,442.3L960,441L960,541L0,541L0,444Z" style="fill:rgb(223,224,255);fill-rule:nonzero;"/>
    </g>
    <g transform="matrix(1,0,0,1,0,20)">
        <path d="M0,492L20,496.8C40,501.7 80,511.3 120,510C160,508.7 200,496.3 240,490.8C280,485.3 320,486.7 360,483C400,479.3 440,470.7 480,466.8C520,463 560,464 600,470.2C640,476.3 680,487.7 720,488.3C760,489 800,479 840,482C880,485 920,501 940,509L960,517L960,541L0,541L0,492Z" style="fill:white;fill-rule:nonzero;"/>
    </g>
</svg>
