<svg id="visual" viewBox="0 0 960 540" width="960" height="540" xmlns="http://www.w3.org/2000/svg" xmlns:xlink="http://www.w3.org/1999/xlink" version="1.1"><rect x="0" y="0" width="960" height="540" fill="#fff"></rect><path d="M0 332L17.8 342C35.7 352 71.3 372 106.8 383C142.3 394 177.7 396 213.2 386C248.7 376 284.3 354 320 351.5C355.7 349 391.3 366 426.8 372.5C462.3 379 497.7 375 533.2 374.3C568.7 373.7 604.3 376.3 640 379.3C675.7 382.3 711.3 385.7 746.8 389.5C782.3 393.3 817.7 397.7 853.2 385.7C888.7 373.7 924.3 345.3 942.2 331.2L960 317L960 541L942.2 541C924.3 541 888.7 541 853.2 541C817.7 541 782.3 541 746.8 541C711.3 541 675.7 541 640 541C604.3 541 568.7 541 533.2 541C497.7 541 462.3 541 426.8 541C391.3 541 355.7 541 320 541C284.3 541 248.7 541 213.2 541C177.7 541 142.3 541 106.8 541C71.3 541 35.7 541 17.8 541L0 541Z" fill="#006dff"></path><path d="M0 383L17.8 385C35.7 387 71.3 391 106.8 398.5C142.3 406 177.7 417 213.2 421C248.7 425 284.3 422 320 409.7C355.7 397.3 391.3 375.7 426.8 372C462.3 368.3 497.7 382.7 533.2 392.7C568.7 402.7 604.3 408.3 640 407C675.7 405.7 711.3 397.3 746.8 392.5C782.3 387.7 817.7 386.3 853.2 384.8C888.7 383.3 924.3 381.7 942.2 380.8L960 380L960 541L942.2 541C924.3 541 888.7 541 853.2 541C817.7 541 782.3 541 746.8 541C711.3 541 675.7 541 640 541C604.3 541 568.7 541 533.2 541C497.7 541 462.3 541 426.8 541C391.3 541 355.7 541 320 541C284.3 541 248.7 541 213.2 541C177.7 541 142.3 541 106.8 541C71.3 541 35.7 541 17.8 541L0 541Z" fill="#0551db"></path><path d="M0 422L17.8 422C35.7 422 71.3 422 106.8 427.2C142.3 432.3 177.7 442.7 213.2 448.2C248.7 453.7 284.3 454.3 320 448C355.7 441.7 391.3 428.3 426.8 427.7C462.3 427 497.7 439 533.2 436.8C568.7 434.7 604.3 418.3 640 411.5C675.7 404.7 711.3 407.3 746.8 410.3C782.3 413.3 817.7 416.7 853.2 424.2C888.7 431.7 924.3 443.3 942.2 449.2L960 455L960 541L942.2 541C924.3 541 888.7 541 853.2 541C817.7 541 782.3 541 746.8 541C711.3 541 675.7 541 640 541C604.3 541 568.7 541 533.2 541C497.7 541 462.3 541 426.8 541C391.3 541 355.7 541 320 541C284.3 541 248.7 541 213.2 541C177.7 541 142.3 541 106.8 541C71.3 541 35.7 541 17.8 541L0 541Z" fill="#0035b7"></path><path d="M0 440L17.8 446.2C35.7 452.3 71.3 464.7 106.8 463.7C142.3 462.7 177.7 448.3 213.2 442.7C248.7 437 284.3 440 320 439.7C355.7 439.3 391.3 435.7 426.8 439.3C462.3 443 497.7 454 533.2 456.8C568.7 459.7 604.3 454.3 640 456.7C675.7 459 711.3 469 746.8 470C782.3 471 817.7 463 853.2 457.2C888.7 451.3 924.3 447.7 942.2 445.8L960 444L960 541L942.2 541C924.3 541 888.7 541 853.2 541C817.7 541 782.3 541 746.8 541C711.3 541 675.7 541 640 541C604.3 541 568.7 541 533.2 541C497.7 541 462.3 541 426.8 541C391.3 541 355.7 541 320 541C284.3 541 248.7 541 213.2 541C177.7 541 142.3 541 106.8 541C71.3 541 35.7 541 17.8 541L0 541Z" fill="#00178f"></path><path d="M0 486L17.8 490.3C35.7 494.7 71.3 503.3 106.8 504.7C142.3 506 177.7 500 213.2 493.8C248.7 487.7 284.3 481.3 320 479.3C355.7 477.3 391.3 479.7 426.8 479.3C462.3 479 497.7 476 533.2 480.7C568.7 485.3 604.3 497.7 640 499.7C675.7 501.7 711.3 493.3 746.8 492.3C782.3 491.3 817.7 497.7 853.2 495.5C888.7 493.3 924.3 482.7 942.2 477.3L960 472L960 541L942.2 541C924.3 541 888.7 541 853.2 541C817.7 541 782.3 541 746.8 541C711.3 541 675.7 541 640 541C604.3 541 568.7 541 533.2 541C497.7 541 462.3 541 426.8 541C391.3 541 355.7 541 320 541C284.3 541 248.7 541 213.2 541C177.7 541 142.3 541 106.8 541C71.3 541 35.7 541 17.8 541L0 541Z" fill="#000000"></path></svg>