<svg width="150" height="279" viewBox="0 0 150 279" fill="none" xmlns="http://www.w3.org/2000/svg">
<path d="M71.832 151.024L72.2246 171.311L87.5049 179.343L92.2993 170.052L97.9068 152.814L95.047 146.574L71.832 151.024Z" fill="#D4A79A"/>
<path d="M74.6062 257.976C73.9333 257.612 73.4286 258.087 72.0828 258.479C69.0548 259.403 65.9146 260.046 62.7464 260.354C61.5408 260.466 60.2511 260.606 59.3819 261.418C58.5408 262.229 58.3165 263.46 57.952 264.58C56.4941 269.029 52.2043 271.827 49.0922 275.353C48.8118 275.689 48.5314 276.137 48.7277 276.5C48.8679 276.78 49.2043 276.864 49.5127 276.92C51.3352 277.2 53.1296 276.361 54.7557 275.465C57.195 274.094 59.4941 272.443 61.5969 270.596C62.9707 269.365 64.3165 268.022 65.9987 267.294C66.8679 266.93 67.7931 266.706 68.7184 266.482C71.8025 265.699 74.7744 264.496 77.5501 262.957C76.8772 261.641 76.2884 259.711 75.3071 258.591C75.0548 258.283 74.8305 258.087 74.6062 257.976Z" fill="#EAC2AB"/>
<path d="M83.5767 258.927C84.2496 258.563 84.7543 259.039 86.1001 259.43C89.1281 260.354 92.2683 260.997 95.4366 261.305C96.6422 261.417 97.9319 261.557 98.801 262.369C99.6422 263.18 99.8665 264.411 100.231 265.531C101.689 269.98 105.979 272.778 109.091 276.304C109.371 276.64 109.652 277.088 109.455 277.452C109.315 277.731 108.979 277.815 108.67 277.871C106.848 278.151 105.053 277.312 103.427 276.416C100.988 275.045 98.6889 273.394 96.5861 271.547C95.2123 270.316 93.8665 268.973 92.1842 268.245C91.3151 267.881 90.3898 267.658 89.4646 267.434C86.3805 266.65 83.4085 265.447 80.6328 263.908C81.3057 262.593 81.8945 260.662 82.8758 259.542C83.1281 259.235 83.3524 259.039 83.5767 258.927Z" fill="#EAC2AB"/>
<path d="M78.5595 265.671C89.9707 258.675 103.709 256.884 116.606 253.33C129.531 249.804 142.961 243.424 148.681 231.335C150.139 228.285 150.756 224.06 148.064 221.989C147.027 221.177 145.709 220.898 144.419 220.674C130.541 218.323 116.41 222.66 103.541 228.341C100.653 229.628 97.7651 230.972 94.7371 231.867C89.0175 233.574 82.9614 233.574 76.9894 233.574C69.896 233.574 62.8025 233.574 55.7091 233.49C51.139 233.434 46.4848 233.322 42.139 231.839C39.2792 230.888 36.6436 229.348 33.896 228.089C27.3913 225.095 20.1857 223.584 13.0362 223.696C10.1203 223.752 7.14832 224.088 4.59691 225.487C2.04551 226.886 0.082896 229.628 0.279158 232.511C0.531494 236.4 4.2885 239.003 7.70906 240.878C19.3446 247.23 31.681 252.211 44.1857 256.632C48.8399 258.283 57.0829 260.046 62.0175 260.354C66.8399 260.634 68.8866 259.235 73.2324 258.535C77.3539 257.947 76.681 262.565 78.5595 265.671Z" fill="#24A69A"/>
<path d="M97.0648 247.203C106.654 243.845 116.242 240.487 125.831 237.157C119.719 237.353 113.523 237.577 107.635 239.284C101.354 241.103 95.719 244.544 89.719 247.119C83.719 249.693 76.962 251.4 70.6816 249.553C68.4106 248.882 66.3078 247.707 64.0928 246.895C41.6068 238.836 35.8592 232.708 28.2891 238.836C33.4199 236.681 62.1863 251.232 71.1863 256.997C76.261 260.271 78.5601 256.046 82.9059 253.387C87.2797 250.673 92.2143 248.882 97.0648 247.203Z" fill="#288684"/>
<path d="M72.9542 170.584C72.9542 170.584 60.7018 190.452 50.8887 207.662C48.5897 211.691 45.5616 215.301 42.0289 218.127C39.4214 220.226 36.4214 221.625 33.4214 222.885C32.2999 223.36 30.6457 224.424 29.4121 224.452C27.9261 224.48 26.9168 223.304 25.571 222.829C24.9822 222.633 24.3654 222.577 23.7485 222.689C20.4962 223.36 24.9542 226.187 25.8794 225.627C24.4495 226.466 22.7953 226.802 21.1971 227.306C19.6271 227.81 18.0289 228.621 17.1317 230.104C16.7112 230.804 16.5429 231.811 17.1037 232.399C17.4121 232.707 17.8887 232.791 18.3093 232.847C20.0196 233.071 21.7299 233.21 23.4401 233.266C27.6738 233.378 28.9074 231.168 32.2719 228.761C35.7485 226.299 42.057 223.64 45.5616 221.178C49.2345 218.575 53.5242 215.497 55.6551 211.244C59.8327 202.933 74.0196 177.076 74.0196 177.076L72.9542 170.584Z" fill="#EAC2AB"/>
<path d="M85.8498 172.486C85.8498 172.486 98.1022 188.689 109.485 204.919C112.149 208.725 115.513 212.027 119.27 214.517C122.046 216.364 125.186 217.483 128.298 218.463C129.476 218.827 131.214 219.75 132.448 219.638C133.934 219.526 134.831 218.267 136.121 217.651C136.682 217.399 137.298 217.287 137.915 217.343C141.224 217.707 137.046 220.925 136.065 220.45C137.579 221.149 139.261 221.317 140.859 221.681C142.485 222.045 144.14 222.688 145.177 224.087C145.654 224.731 145.934 225.738 145.429 226.354C145.149 226.69 144.7 226.83 144.28 226.914C142.598 227.305 140.915 227.613 139.205 227.809C134.999 228.341 133.569 226.214 129.981 224.143C126.28 222.017 119.747 219.946 116.046 217.819C112.149 215.581 107.607 212.922 105.055 208.865C100.121 200.973 83.5508 176.544 83.5508 176.544L85.8498 172.486Z" fill="#EAC2AB"/>
<path d="M59.1026 235.142C62.5231 235.562 65.8876 234.471 69.3643 234.135C72.7568 233.799 76.3456 234.694 79.6259 235.394C86.7755 236.961 93.14 235.954 99.5886 232.54C103.682 230.357 97.2334 224.061 95.9437 221.654C94.682 219.332 94.1213 216.701 93.7007 214.099C92.4671 206.599 92.1026 198.96 92.6633 191.376C93.0839 185.668 91.0932 181.582 89.2988 176.321C88.4016 173.691 89.7194 172.768 88.1213 170.613C87.14 169.298 82.8783 173.383 81.3082 173.243C78.2801 172.991 74.2988 169.13 72.2521 171.34C70.5699 173.159 69.3643 175.398 68.2147 177.581C65.2428 183.177 62.2147 188.942 61.4577 195.238C60.4203 203.689 62.5512 209.817 59.8315 217.932C59.1026 220.087 58.4857 224.928 53.8596 233.519C53.8315 233.575 56.6914 234.582 56.8876 234.666C57.5886 234.89 58.3456 235.058 59.1026 235.142Z" fill="#788292"/>
<path d="M82.8499 121.418C82.8499 121.418 85.3733 127.014 81.42 130.428C77.4948 133.87 72.1397 131.156 66.9527 134.29C61.7658 137.452 62.3266 141.174 64.7098 149.485C67.5415 159.363 70.6256 159.083 73.4294 159.783C76.2051 160.51 77.0462 168.234 77.3546 171.815C77.8593 177.496 72.7565 179.371 68.8312 182.001C65.5789 184.184 63.2238 186.563 64.4013 190.732C64.9341 192.579 65.6911 194.538 65.0462 196.329C64.4294 198.064 62.635 199.155 60.8126 199.463C58.2892 199.883 54.5041 199.995 56.0182 196.749C59.2985 189.669 53.2425 190.34 51.9247 184.856C50.4948 178.867 47.8312 173.97 54.6443 170.388C56.6911 169.325 58.9621 168.29 60.0555 166.275C62.2144 162.273 58.9621 158.551 57.2518 155.137C54.7565 150.156 53.8312 144.364 55.6256 139.019C58.6256 130.009 55.4574 132.723 59.4107 125.559C63.364 118.396 77.635 110.532 82.8499 121.418Z" fill="#111111"/>
<path d="M68.5229 131.8C68.5229 131.8 62.0463 135.886 63.7846 146.212C65.4949 156.538 74.9155 165.968 78.0276 165.576C86.6351 164.485 87.6164 158.524 90.9248 153.571C94.9902 147.527 88.9061 131.66 88.9061 131.66L82.4015 127.547L68.5229 131.8Z" fill="#EAC2AB"/>
<path d="M77.9711 127.994C77.9711 127.994 82.2608 129.422 86.0178 135.438C89.7748 141.454 93.9243 144.057 91.2047 151.64C89.9711 155.11 88.9617 158.132 87.7 161.155C86.1299 164.904 84.9804 168.766 84.3075 172.796C83.7468 176.182 85.401 177.217 87.5318 179.316C91.7374 183.513 91.8776 189.278 95.6066 193.335C98.1299 196.106 104.607 199.128 108.223 196.721C111.672 194.427 101.354 195.966 103.401 186.088C105.448 176.21 106.149 172.012 100.177 169.27C94.2047 166.527 97.0645 165.8 100.205 159.783C103.345 153.767 95.2421 153.851 98.4383 143.385C102.139 131.296 98.7748 117.837 80.6907 121.558C62.5505 125.28 77.9711 127.994 77.9711 127.994Z" fill="#111111"/>
<path d="M73.5691 139.496C78.756 136.334 77.4943 133.871 81.4476 130.429C85.3728 126.987 82.8775 121.419 82.8775 121.419C77.6906 110.533 63.3635 118.424 59.4382 125.56C55.513 132.696 58.6532 130.01 55.6532 139.02C53.6064 145.232 55.7934 151.445 57.2793 155.138L63.7279 155.586C60.2793 142.63 69.6438 141.874 73.5691 139.496Z" fill="#111111"/>
</svg>
