<svg width="233" height="272" viewBox="0 0 233 272" fill="none" xmlns="http://www.w3.org/2000/svg">
<path d="M111.578 73.1266L112.188 104.64L135.923 117.116L143.371 102.684L152.081 75.9085L147.639 66.2153L111.578 73.1266Z" fill="#D4A79A"/>
<path d="M115.89 239.259C114.844 238.694 114.061 239.433 111.97 240.041C107.266 241.476 102.389 242.475 97.4674 242.954C95.5947 243.127 93.5914 243.345 92.2413 244.605C90.9347 245.866 90.5863 247.778 90.0201 249.517C87.7555 256.428 81.0921 260.775 76.2579 266.252C75.8224 266.774 75.3869 267.469 75.6917 268.034C75.9095 268.469 76.4321 268.599 76.9112 268.686C79.742 269.121 82.5293 267.817 85.0553 266.426C88.8442 264.296 92.4155 261.731 95.6818 258.863C97.8158 256.95 99.9063 254.864 102.519 253.733C103.869 253.168 105.307 252.821 106.744 252.473C111.535 251.256 116.151 249.387 120.463 246.996C119.417 244.953 118.503 241.954 116.978 240.215C116.586 239.737 116.238 239.433 115.89 239.259Z" fill="#EAC2AB"/>
<path d="M129.825 240.736C130.87 240.171 131.654 240.91 133.744 241.519C138.448 242.953 143.326 243.953 148.247 244.431C150.12 244.605 152.123 244.822 153.473 246.083C154.78 247.343 155.128 249.256 155.694 250.995C157.959 257.906 164.622 262.253 169.457 267.73C169.892 268.251 170.328 268.947 170.023 269.512C169.805 269.946 169.282 270.077 168.803 270.164C165.973 270.598 163.185 269.294 160.659 267.903C156.87 265.774 153.299 263.209 150.033 260.34C147.899 258.428 145.808 256.341 143.195 255.211C141.845 254.646 140.408 254.298 138.971 253.95C134.18 252.733 129.564 250.864 125.252 248.474C126.297 246.431 127.212 243.431 128.736 241.693C129.128 241.215 129.476 240.91 129.825 240.736Z" fill="#EAC2AB"/>
<path d="M122.031 251.212C139.756 240.345 161.096 237.563 181.13 232.043C201.207 226.566 222.068 216.655 230.953 197.878C233.217 193.14 234.175 186.576 229.995 183.359C228.383 182.099 226.336 181.664 224.333 181.317C202.775 177.665 180.825 184.403 160.835 193.227C156.349 195.226 151.863 197.312 147.16 198.703C138.275 201.355 128.868 201.355 119.592 201.355C108.573 201.355 97.5547 201.355 86.5362 201.225C79.4373 201.138 72.2078 200.964 65.4573 198.66C61.0151 197.182 56.9213 194.791 52.6532 192.835C42.5493 188.184 31.3566 185.837 20.251 186.011C15.7216 186.098 11.1052 186.62 7.142 188.793C3.17882 190.966 0.130224 195.226 0.435083 199.703C0.827046 205.745 6.66293 209.788 11.9762 212.7C30.05 222.567 49.2127 230.304 68.6366 237.172C75.8661 239.737 88.6702 242.475 96.3353 242.953C103.826 243.388 107.005 241.214 113.756 240.128C120.158 239.215 119.113 246.387 122.031 251.212Z" fill="#24A69A"/>
<path d="M150.775 222.525C165.67 217.309 180.564 212.093 195.459 206.921C185.964 207.225 176.34 207.573 167.194 210.224C157.438 213.049 148.684 218.396 139.364 222.395C130.044 226.394 119.549 229.045 109.793 226.177C106.265 225.133 102.999 223.308 99.5585 222.047C64.6303 209.529 55.7022 200.009 43.9434 209.529C51.9133 206.182 96.597 228.785 110.577 237.739C118.46 242.825 122.031 236.261 128.781 232.132C135.576 227.915 143.241 225.133 150.775 222.525Z" fill="#288684"/>
<path d="M113.322 103.51C113.322 103.51 94.2896 134.372 79.0466 161.105C75.4754 167.364 70.7719 172.971 65.2844 177.361C61.2341 180.621 56.5741 182.795 51.9141 184.751C50.172 185.49 47.6025 187.142 45.6862 187.185C43.378 187.228 41.8102 185.403 39.7197 184.664C38.8051 184.36 37.847 184.273 36.8889 184.447C31.8369 185.49 38.7616 189.88 40.1988 189.011C37.9776 190.315 35.4081 190.836 32.9257 191.619C30.4868 192.401 28.0044 193.662 26.6107 195.965C25.9575 197.052 25.6962 198.617 26.5672 199.53C27.0462 200.008 27.7866 200.138 28.4399 200.225C31.0965 200.573 33.7532 200.79 36.4098 200.877C42.9861 201.051 44.9023 197.617 50.1285 193.879C55.5289 190.054 65.3279 185.924 70.7719 182.099C76.4771 178.057 83.1405 173.275 86.4504 166.668C92.9395 153.759 114.977 113.595 114.977 113.595L113.322 103.51Z" fill="#EAC2AB"/>
<path d="M133.352 106.466C133.352 106.466 152.384 131.633 170.066 156.844C174.204 162.756 179.43 167.885 185.266 171.753C189.577 174.622 194.455 176.361 199.289 177.882C201.118 178.447 203.819 179.882 205.735 179.708C208.043 179.534 209.437 177.578 211.44 176.622C212.311 176.231 213.269 176.057 214.227 176.144C219.366 176.709 212.877 181.707 211.353 180.969C213.705 182.055 216.318 182.316 218.8 182.881C221.326 183.446 223.896 184.446 225.507 186.619C226.248 187.619 226.683 189.184 225.899 190.14C225.464 190.662 224.767 190.879 224.114 191.009C221.501 191.618 218.887 192.096 216.231 192.4C209.698 193.226 207.477 189.923 201.902 186.706C196.154 183.403 186.006 180.186 180.257 176.883C174.204 173.405 167.148 169.276 163.185 162.973C155.52 150.715 129.781 112.768 129.781 112.768L133.352 106.466Z" fill="#EAC2AB"/>
<path d="M91.8065 203.791C97.1198 204.443 102.346 202.748 107.746 202.226C113.016 201.704 118.591 203.095 123.686 204.182C134.792 206.616 144.678 205.051 154.695 199.748C161.053 196.358 151.036 186.578 149.033 182.84C147.073 179.232 146.202 175.146 145.549 171.103C143.633 159.454 143.067 147.588 143.938 135.808C144.591 126.941 141.499 120.594 138.711 112.423C137.318 108.337 139.365 106.902 136.882 103.555C135.358 101.512 128.738 107.858 126.299 107.641C121.596 107.25 115.411 101.251 112.232 104.685C109.619 107.511 107.746 110.988 105.961 114.379C101.344 123.072 96.6407 132.026 95.4649 141.806C93.8535 154.934 97.1634 164.453 92.9389 177.058C91.8065 180.405 90.8484 187.925 83.6624 201.27C83.6189 201.357 88.0611 202.921 88.366 203.052C89.4548 203.4 90.6307 203.66 91.8065 203.791Z" fill="#788292"/>
<path d="M128.693 27.139C128.693 27.139 132.613 35.8325 126.472 41.1355C120.375 46.482 112.057 42.2656 104 47.134C95.9427 52.0458 96.8137 57.8269 100.516 70.7367C104.914 86.0807 109.705 85.646 114.06 86.7327C118.372 87.8628 119.678 99.8598 120.157 105.424C120.941 114.247 113.015 117.16 106.918 121.246C101.866 124.636 98.2074 128.331 100.037 134.807C100.864 137.676 102.04 140.719 101.038 143.501C100.08 146.196 97.2928 147.891 94.4619 148.369C90.5423 149.021 84.6629 149.195 87.0147 144.153C92.1102 133.156 82.7031 134.199 80.6562 125.679C78.435 116.377 74.2976 108.771 84.8806 103.207C88.0599 101.555 91.5876 99.9467 93.2861 96.8171C96.6395 90.6013 91.5876 84.8201 88.9309 79.5171C85.0548 71.7799 83.6176 62.7822 86.4049 54.4799C91.0649 40.4835 86.1436 44.6998 92.2844 33.5722C98.4251 22.4446 120.593 10.2303 128.693 27.139Z" fill="#111111"/>
<path d="M106.44 43.2667C106.44 43.2667 96.3793 49.6129 99.0795 65.6523C101.736 81.6918 116.369 96.3402 121.204 95.7317C134.574 94.0365 136.098 84.778 141.237 77.0842C147.552 67.6953 138.102 43.0494 138.102 43.0494L127.998 36.6597L106.44 43.2667Z" fill="#EAC2AB"/>
<path d="M121.116 37.3549C121.116 37.3549 127.779 39.5717 133.615 48.9172C139.451 58.2626 145.896 62.3051 141.672 74.0847C139.756 79.4747 138.188 84.1691 136.228 88.8636C133.789 94.6882 132.004 100.687 130.958 106.946C130.087 112.206 132.657 113.814 135.967 117.074C142.499 123.594 142.717 132.548 148.509 138.851C152.429 143.154 162.489 147.849 168.108 144.111C173.464 140.546 157.438 142.937 160.617 127.593C163.796 112.249 164.885 105.729 155.608 101.469C146.332 97.2093 150.774 96.0792 155.652 86.7337C160.53 77.3882 147.943 77.5186 152.908 61.2619C158.657 42.484 153.431 21.5762 125.34 27.3574C97.1624 33.1385 121.116 37.3549 121.116 37.3549Z" fill="#111111"/>
<path d="M114.277 55.2202C122.334 50.3084 120.375 46.4833 126.515 41.1368C132.612 35.7903 128.736 27.1404 128.736 27.1404C120.679 10.2316 98.4247 22.4894 92.3275 33.5735C86.2303 44.6577 91.108 40.4848 86.448 54.4813C83.2688 64.131 86.6658 73.7808 88.974 79.5184L98.9908 80.2139C93.634 60.0886 108.18 58.9149 114.277 55.2202Z" fill="#111111"/>
</svg>
