<?xml version="1.0" encoding="UTF-8" standalone="no"?>
<!DOCTYPE svg PUBLIC "-//W3C//DTD SVG 1.1//EN" "http://www.w3.org/Graphics/SVG/1.1/DTD/svg11.dtd">
<svg width="100%" height="100%" viewBox="0 0 800 800" version="1.1" xmlns="http://www.w3.org/2000/svg" xmlns:xlink="http://www.w3.org/1999/xlink" xml:space="preserve" xmlns:serif="http://www.serif.com/" style="fill-rule:evenodd;clip-rule:evenodd;stroke-linejoin:round;stroke-miterlimit:2;">
    <g transform="matrix(0.80591,0,0,0.80591,113.598,113.204)">
        <path d="M337.725,25.034C328.275,25.492 313.877,26.956 305.73,28.288C287.958,31.194 268.985,35.461 269.02,36.545C269.034,36.975 273.434,39.872 278.797,42.981C293.774,51.666 303.93,59.649 318.231,73.978C342.297,98.091 359.269,129.068 366.68,162.41L368.67,171.363L380.033,172.798C461.129,183.04 525.7,246.307 538.081,327.653C538.875,332.866 539.546,344.709 539.572,353.968L539.619,370.804L545.618,372.067C591.872,381.803 639.119,419.683 660.101,463.852L664.569,473.256L666.376,468.932C669.33,461.862 676.473,437.471 678.984,425.879C689.176,378.833 688.935,324.615 678.335,279.66C655.763,183.939 593.096,104.03 506.01,59.925C453.314,33.237 399.353,22.049 337.725,25.034M112.575,42.569C48.449,43.248 47.957,43.271 42.988,45.927C36.346,49.476 30.514,55.454 27.516,61.788C25.107,66.875 25.065,68.66 24.682,180.713L24.293,294.473L26.978,299.923C33.343,312.84 43.33,318.904 59.582,319.721L69.986,320.243L76.764,313.794C80.492,310.247 87.571,304.371 92.495,300.737C101.69,293.95 121.606,282.03 123.751,282.03C124.413,282.03 121.457,278.431 117.184,274.031C101.194,257.571 94.029,244.887 89.235,224.558C86.334,212.258 86.643,190.466 89.89,178.343C99.076,144.038 126.438,116.746 160.674,107.739C173.944,104.248 197.112,104.245 210.274,107.732C248.253,117.795 276.506,148.796 283.311,187.874C286.368,205.43 282.614,231.313 274.772,246.751L272.528,251.169L275.205,251.737C276.678,252.049 282.682,253.188 288.548,254.268C294.413,255.348 306.145,258.591 314.618,261.474C323.09,264.356 330.873,267.002 331.912,267.353C334.339,268.171 338.125,259.6 341.873,244.799C350.172,212.028 348.513,178.248 337.089,147.347C328.631,124.466 316.687,105.905 299.488,88.913C276.456,66.159 245.335,49.705 215.665,44.595C201.251,42.112 185.288,41.799 112.575,42.569M247.073,280.552C238.024,287.736 221.865,295.86 209.745,299.317C203.847,300.999 198.156,301.502 185.453,301.467C171.139,301.427 167.517,301.008 159.061,298.413L149.26,295.406L136.267,303.234C119.368,313.417 106.732,323.549 93.261,337.72C69.138,363.096 51.299,394.743 43.359,426.245C35.961,455.601 36.142,452.583 36.142,546.285C36.142,631.682 36.158,632.248 38.768,640.542C41.948,650.651 48.469,660.972 56.703,668.933C64.107,676.091 71.487,680.531 81.765,684.011C89.305,686.564 90.982,686.628 161.16,687.043C238.341,687.5 263.651,686.553 283.401,682.471C313.212,676.309 342.999,663.139 366.551,645.706C367.09,645.307 364.278,640.028 360.303,633.974C346.859,613.501 337.868,590.608 333.629,566.055L332.848,561.532L324.762,569.16C310.931,582.208 298.185,589.538 278.475,595.779C255.901,602.927 235.293,603.614 213.056,597.958C172.746,587.706 140.728,558.09 128.084,519.36C117.577,487.175 119.09,458.404 132.827,429.156C164.405,361.924 247.523,338.458 308.692,379.505C329.942,393.764 346.141,413.427 355.045,435.769C356.924,440.486 358.729,444.352 359.055,444.36C359.381,444.368 362.144,441.002 365.196,436.879C373.717,425.366 386.911,411.77 397.482,403.611C407.77,395.67 422.225,386.31 424.201,386.31C426.602,386.31 425.306,383.049 418.761,372.62C402.702,347.03 380.972,324.371 357.278,308.505C330.01,290.247 295.084,277.892 261.293,274.551C255.549,273.983 255.113,274.167 247.073,280.552M490.457,392.246C440.478,397.033 395.455,428.462 373.027,474.218C349.726,521.756 353.577,576.878 383.371,622.271C390.667,633.386 411.627,654.402 422.595,661.597C438.681,672.15 457,679.936 476.37,684.451C484.155,686.266 493.827,686.58 554.361,686.981C615.636,687.387 624.117,687.222 629.231,685.524C638.292,682.514 645.135,676.556 649.301,668.048L652.93,660.638L652.972,591.908C653.017,517.444 652.832,514.754 646.208,493.64C631.595,447.058 591.561,409.036 543.904,396.477C526.129,391.792 509.189,390.451 490.457,392.246M529.695,450.275C556.047,457.422 579.289,477.629 590.472,503.118C599.547,523.803 599.543,554.599 590.462,575.232C579.295,600.602 557.722,619.727 531.472,627.526C517.265,631.747 496.112,632.052 481.955,628.24C464.45,623.526 447.97,612.89 435.361,598.171C427.381,588.854 422.417,580.042 418.114,567.551C414.453,556.923 414.259,555.49 414.265,539.175C414.271,522.827 414.462,521.433 418.206,510.466C427.751,482.506 451.992,458.79 479.07,450.918C492.307,447.07 516.734,446.76 529.695,450.275"/>
    </g>
</svg>
