<?xml version="1.0" encoding="UTF-8" standalone="no"?>
<!DOCTYPE svg PUBLIC "-//W3C//DTD SVG 1.1//EN" "http://www.w3.org/Graphics/SVG/1.1/DTD/svg11.dtd">
<svg width="100%" height="100%" viewBox="0 0 900 700" version="1.1" xmlns="http://www.w3.org/2000/svg" xmlns:xlink="http://www.w3.org/1999/xlink" xml:space="preserve" xmlns:serif="http://www.serif.com/" style="fill-rule:evenodd;clip-rule:evenodd;stroke-linejoin:round;stroke-miterlimit:2;">
    <g transform="matrix(1,0,0,1,0,-169)">
        <path d="M0,172L21.5,174.3C43,176.7 86,181.3 128.8,179.7C171.7,178 214.3,170 257.2,172C300,174 343,186 385.8,193.8C428.7,201.7 471.3,205.3 514.2,201.8C557,198.3 600,187.7 642.8,181.5C685.7,175.3 728.3,173.7 771.2,176.2C814,178.7 857,185.3 878.5,188.7L900,192L900,301L0,301L0,172Z" style="fill:rgb(0,109,255);fill-rule:nonzero;"/>
    </g>
    <g transform="matrix(1,0,0,1,0,-182)">
        <path d="M0,191L21.5,196C43,201 86,211 128.8,214.8C171.7,218.7 214.3,216.3 257.2,215.2C300,214 343,214 385.8,207.7C428.7,201.3 471.3,188.7 514.2,190.8C557,193 600,210 642.8,216C685.7,222 728.3,217 771.2,209.5C814,202 857,192 878.5,187L900,182L900,301L0,301L0,191Z" style="fill:rgb(120,142,255);fill-rule:nonzero;"/>
    </g>
    <g transform="matrix(1,0,0,1,0,-190)">
        <path d="M0,214L21.5,212.8C43,211.7 86,209.3 128.8,209.5C171.7,209.7 214.3,212.3 257.2,215.5C300,218.7 343,222.3 385.8,227.3C428.7,232.3 471.3,238.7 514.2,240.5C557,242.3 600,239.7 642.8,234C685.7,228.3 728.3,219.7 771.2,218.5C814,217.3 857,223.7 878.5,226.8L900,230L900,301L0,301L0,214Z" style="fill:rgb(172,178,255);fill-rule:nonzero;"/>
    </g>
    <g transform="matrix(1,0,0,1,0,-187)">
        <path d="M0,245L21.5,245.3C43,245.7 86,246.3 128.8,246.2C171.7,246 214.3,245 257.2,244.8C300,244.7 343,245.3 385.8,242.7C428.7,240 471.3,234 514.2,231.7C557,229.3 600,230.7 642.8,236.3C685.7,242 728.3,252 771.2,253.5C814,255 857,248 878.5,244.5L900,241L900,301L0,301L0,245Z" style="fill:rgb(215,216,255);fill-rule:nonzero;"/>
    </g>
    <g transform="matrix(1,0,0,2.21284,0,-163.851)">
        <path d="M900,390.382L0,390.382L0,118L21.5,117.7C43,117.3 86,116.7 128.8,117C171.7,117.3 214.3,118.7 257.2,116.5C300,114.3 343,108.7 385.8,105.7C428.7,102.7 471.3,102.3 514.2,104C557,105.7 600,109.3 642.8,108.2C685.7,107 728.3,101 771.2,102.3C814,103.7 857,112.3 878.5,116.7L900,121L900,390.382Z" style="fill:white;"/>
    </g>
</svg>
