<svg width="195" height="42" viewBox="0 0 195 42" fill="none" xmlns="http://www.w3.org/2000/svg">
<path fill-rule="evenodd" clip-rule="evenodd" d="M18.6397 1.01275C18.0778 1.03999 17.2215 1.12705 16.737 1.20627C15.6801 1.37909 14.5518 1.63284 14.5539 1.69731C14.5547 1.72288 14.8164 1.89516 15.1353 2.08006C16.026 2.59655 16.63 3.0713 17.4804 3.92344C18.9116 5.35744 19.921 7.19964 20.3617 9.18248L20.48 9.71491L21.1558 9.80025C25.9786 10.4093 29.8186 14.1718 30.5549 19.0095C30.6021 19.3195 30.642 20.0238 30.6436 20.5744L30.6463 21.5756L31.0031 21.6507C33.7538 22.2297 36.5636 24.4825 37.8114 27.1092L38.0771 27.6684L38.1846 27.4113C38.3602 26.9908 38.785 25.5403 38.9344 24.8509C39.5405 22.0531 39.5261 18.8288 38.8958 16.1553C37.5534 10.4628 33.8266 5.71063 28.6476 3.08771C25.5138 1.50058 22.3047 0.835234 18.6397 1.01275ZM5.25011 2.05555C1.43655 2.09593 1.40729 2.0973 1.11179 2.25525C0.71679 2.46631 0.369962 2.82182 0.191671 3.1985C0.0484085 3.50103 0.0459107 3.60718 0.0231338 10.271L0 17.0362L0.159677 17.3604C0.538202 18.1285 1.13213 18.4891 2.09863 18.5377L2.71735 18.5688L3.12044 18.1853C3.34214 17.9743 3.76313 17.6249 4.05596 17.4088C4.60279 17.0051 5.78719 16.2963 5.91475 16.2963C5.95412 16.2963 5.77833 16.0822 5.52421 15.8206C4.57329 14.8417 4.14719 14.0874 3.86209 12.8784C3.68957 12.1469 3.70794 10.851 3.90104 10.13C4.44733 8.0899 6.07454 6.46685 8.11055 5.9312C8.89972 5.72359 10.2775 5.72342 11.0603 5.93079C13.3189 6.52923 14.9991 8.37286 15.4038 10.6968C15.5856 11.7409 15.3623 13.2801 14.8959 14.1982L14.7625 14.461L14.9217 14.4947C15.0093 14.5133 15.3663 14.581 15.7152 14.6453C16.064 14.7095 16.7617 14.9023 17.2656 15.0738C17.7694 15.2452 18.2323 15.4025 18.294 15.4234C18.4384 15.4721 18.6635 14.9623 18.8864 14.0821C19.38 12.1333 19.2813 10.1244 18.6019 8.28668C18.0989 6.92595 17.3886 5.82214 16.3658 4.81162C14.9961 3.45845 13.1453 2.47993 11.3809 2.17604C10.5237 2.02838 9.57434 2.00976 5.25011 2.05555ZM13.2487 16.2084C12.7105 16.6356 11.7496 17.1187 11.0288 17.3243C10.678 17.4243 10.3396 17.4543 9.58416 17.4522C8.7329 17.4498 8.51751 17.4249 8.01463 17.2706L7.43176 17.0917L6.65907 17.5573C5.65409 18.1628 4.90263 18.7654 4.10151 19.6081C2.66692 21.1172 1.60604 22.9993 1.13385 24.8727C0.693894 26.6185 0.704658 26.439 0.704658 32.0115C0.704658 37.09 0.70561 37.1237 0.860826 37.6169C1.04994 38.2181 1.43774 38.8319 1.92742 39.3053C2.36773 39.731 2.80662 39.995 3.41785 40.202C3.86625 40.3538 3.96598 40.3576 8.13946 40.3823C12.7294 40.4095 14.2346 40.3532 15.4091 40.1104C17.182 39.744 18.9534 38.9607 20.354 37.924C20.3861 37.9003 20.2188 37.5863 19.9825 37.2263C19.1829 36.0088 18.6482 34.6473 18.3962 33.1872L18.3497 32.9182L17.8688 33.3718C17.0463 34.1478 16.2883 34.5837 15.1162 34.9549C13.7737 35.3799 12.5481 35.4208 11.2257 35.0844C8.82847 34.4748 6.92437 32.7135 6.17243 30.4102C5.54758 28.4962 5.63756 26.7852 6.4545 25.0458C8.33243 21.0475 13.2754 19.652 16.9132 22.0931C18.1769 22.9411 19.1402 24.1104 19.6698 25.4391C19.7815 25.7196 19.8888 25.9495 19.9082 25.95C19.9276 25.9505 20.0919 25.7503 20.2734 25.5051C20.7802 24.8204 21.5648 24.0119 22.1935 23.5267C22.8053 23.0544 23.6649 22.4978 23.7825 22.4978C23.9252 22.4978 23.8482 22.3038 23.4589 21.6836C22.5039 20.1618 21.2116 18.8143 19.8026 17.8707C18.1809 16.7849 16.1039 16.0502 14.0943 15.8515C13.7528 15.8177 13.7268 15.8286 13.2487 16.2084ZM27.7227 22.8508C24.7504 23.1355 22.0729 25.0045 20.7391 27.7256C19.3534 30.5527 19.5825 33.8308 21.3543 36.5303C21.7882 37.1913 23.0347 38.4412 23.6869 38.869C24.6436 39.4966 25.733 39.9597 26.8849 40.2282C27.3479 40.3361 27.9231 40.3548 31.523 40.3786C35.1671 40.4028 35.6714 40.393 35.9756 40.292C36.5144 40.113 36.9214 39.7586 37.1691 39.2527L37.3849 38.812L37.3874 34.7246C37.3901 30.2963 37.3791 30.1363 36.9852 28.8807C36.1161 26.1104 33.7353 23.8493 30.9012 23.1024C29.8441 22.8238 28.8367 22.744 27.7227 22.8508ZM30.0562 26.3018C31.6233 26.7268 33.0055 27.9285 33.6706 29.4443C34.2102 30.6745 34.21 32.5059 33.67 33.7329C33.0059 35.2417 31.7229 36.379 30.1618 36.8428C29.317 37.0939 28.059 37.112 27.2171 36.8853C26.1761 36.605 25.196 35.9724 24.4461 35.0971C23.9716 34.543 23.6764 34.019 23.4205 33.2761C23.2027 32.6441 23.1912 32.5589 23.1916 31.5886C23.1919 30.6164 23.2033 30.5335 23.4259 29.8813C23.9936 28.2185 25.4352 26.8081 27.0455 26.34C27.8327 26.1112 29.2854 26.0927 30.0562 26.3018Z" fill="black"/>
<path d="M52.0397 36.7032H59.7143C61.16 36.7032 62.5129 36.5548 63.7735 36.2583C65.0342 35.9617 66.1277 35.5075 67.0548 34.8958C67.9818 34.2841 68.714 33.5148 69.2512 32.588C69.789 31.6611 70.0576 30.5489 70.0576 29.2513C70.0576 26.6561 69.2233 24.7283 67.5554 23.4678C65.887 22.2072 63.4399 21.577 60.2144 21.577H52.0397V36.7032ZM52.0397 18.2404H60.1036C61.0672 18.2404 62.0221 18.1199 62.9671 17.8789C63.9128 17.6379 64.7656 17.2393 65.5255 16.6832C66.2855 16.1272 66.9063 15.4135 67.3884 14.5422C67.8705 13.671 68.1112 12.6051 68.1112 11.3446C68.1112 10.9368 68.0277 10.3622 67.8612 9.62071C67.6941 8.87917 67.3234 8.1377 66.749 7.39623C66.1741 6.65476 65.3306 6.01527 64.2185 5.47766C63.1064 4.9401 61.605 4.67133 59.7143 4.67133H52.0397V18.2404ZM48.0356 1.00098H59.7694C61.4008 1.00098 62.9764 1.16782 64.4964 1.50152C66.0163 1.83515 67.3698 2.39127 68.5562 3.16982C69.7426 3.94836 70.6882 4.96789 71.3925 6.22841C72.0968 7.48894 72.4489 9.04602 72.4489 10.8997C72.4489 13.05 71.8467 14.8944 70.6418 16.433C69.4368 17.9716 67.7219 19.0004 65.4977 19.5194V19.6306C68.2783 19.8531 70.4561 20.8263 72.0318 22.5502C73.6074 24.2741 74.3953 26.582 74.3953 29.4737C74.3953 30.104 74.2375 31.0308 73.9224 32.2543C73.6074 33.4777 72.9496 34.6919 71.9482 35.8968C70.9475 37.1017 69.5018 38.149 67.6106 39.0388C65.7199 39.9285 63.1992 40.3735 60.0479 40.3735H48.0356V1.00098Z" fill="black"/>
<path d="M112.1 20.6872C112.1 18.4257 111.729 16.2662 110.987 14.2086C110.246 12.151 109.18 10.3436 107.79 8.78652C106.399 7.22943 104.703 5.98742 102.701 5.06059C100.699 4.13376 98.4379 3.67029 95.9166 3.67029C93.3959 3.67029 91.1339 4.13376 89.1319 5.06059C87.1304 5.98742 85.4341 7.22943 84.0435 8.78652C82.6535 10.3436 81.5878 12.151 80.8464 14.2086C80.105 16.2662 79.7337 18.4257 79.7337 20.6872C79.7337 22.9488 80.105 25.1083 80.8464 27.1659C81.5878 29.2235 82.6535 31.0308 84.0435 32.588C85.4341 34.145 87.1304 35.387 89.1319 36.3139C91.1339 37.2407 93.3959 37.7041 95.9166 37.7041C98.4379 37.7041 100.699 37.2407 102.701 36.3139C104.703 35.387 106.399 34.145 107.79 32.588C109.18 31.0308 110.246 29.2235 110.987 27.1659C111.729 25.1083 112.1 22.9488 112.1 20.6872ZM116.437 20.6872C116.437 23.6902 115.918 26.4522 114.88 28.9732C113.842 31.4943 112.405 33.6723 110.57 35.5075C108.735 37.3426 106.566 38.7793 104.063 39.8173C101.561 40.8554 98.8457 41.3744 95.9166 41.3744C92.9881 41.3744 90.2724 40.8554 87.7697 39.8173C85.267 38.7793 83.0985 37.3426 81.2635 35.5075C79.4279 33.6723 77.9915 31.4943 76.9537 28.9732C75.9152 26.4522 75.3966 23.6902 75.3966 20.6872C75.3966 17.6842 75.9152 14.9222 76.9537 12.4012C77.9915 9.88019 79.4279 7.70213 81.2635 5.86692C83.0985 4.03178 85.267 2.59518 87.7697 1.55709C90.2724 0.519048 92.9881 0 95.9166 0C98.8457 0 101.561 0.519048 104.063 1.55709C106.566 2.59518 108.735 4.03178 110.57 5.86692C112.405 7.70213 113.842 9.88019 114.88 12.4012C115.918 14.9222 116.437 17.6842 116.437 20.6872Z" fill="black"/>
<path d="M122.332 36.7032H130.117C133.12 36.7032 135.725 36.249 137.931 35.3407C140.136 34.4324 141.972 33.2275 143.436 31.726C144.9 30.2245 145.985 28.5191 146.69 26.6098C147.394 24.7005 147.746 22.7263 147.746 20.6872C147.746 18.6482 147.394 16.674 146.69 14.7647C145.985 12.8554 144.9 11.15 143.436 9.64849C141.972 8.14698 140.136 6.9421 137.931 6.03378C135.725 5.12546 133.12 4.67133 130.117 4.67133H122.332V36.7032ZM118.328 1.00098H131.397C133.844 1.00098 136.299 1.40881 138.765 2.22443C141.23 3.04004 143.455 4.27277 145.438 5.92257C147.422 7.57236 149.025 9.62993 150.249 12.0953C151.472 14.5608 152.084 17.4247 152.084 20.6872C152.084 23.9868 151.472 26.86 150.249 29.3069C149.025 31.7538 147.422 33.8021 145.438 35.4519C143.455 37.1017 141.23 38.3344 138.765 39.15C136.299 39.9656 133.844 40.3735 131.397 40.3735H118.328V1.00098Z" fill="black"/>
<path d="M190.233 20.6872C190.233 18.4257 189.862 16.2662 189.12 14.2086C188.379 12.151 187.313 10.3436 185.923 8.78652C184.533 7.22943 182.836 5.98742 180.835 5.06059C178.833 4.13376 176.571 3.67029 174.05 3.67029C171.529 3.67029 169.267 4.13376 167.265 5.06059C165.263 5.98742 163.568 7.22943 162.177 8.78652C160.787 10.3436 159.721 12.151 158.979 14.2086C158.238 16.2662 157.867 18.4257 157.867 20.6872C157.867 22.9488 158.238 25.1083 158.979 27.1659C159.721 29.2235 160.787 31.0308 162.177 32.588C163.568 34.145 165.263 35.387 167.265 36.3139C169.267 37.2407 171.529 37.7041 174.05 37.7041C176.571 37.7041 178.833 37.2407 180.835 36.3139C182.836 35.387 184.533 34.145 185.923 32.588C187.313 31.0308 188.379 29.2235 189.12 27.1659C189.862 25.1083 190.233 22.9488 190.233 20.6872ZM194.571 20.6872C194.571 23.6902 194.051 26.4522 193.014 28.9732C191.975 31.4943 190.539 33.6723 188.704 35.5075C186.868 37.3426 184.7 38.7793 182.197 39.8173C179.695 40.8554 176.979 41.3744 174.05 41.3744C171.121 41.3744 168.405 40.8554 165.903 39.8173C163.4 38.7793 161.232 37.3426 159.396 35.5075C157.561 33.6723 156.125 31.4943 155.087 28.9732C154.049 26.4522 153.529 23.6902 153.529 20.6872C153.529 17.6842 154.049 14.9222 155.087 12.4012C156.125 9.88019 157.561 7.70213 159.396 5.86692C161.232 4.03178 163.4 2.59518 165.903 1.55709C168.405 0.519048 171.121 0 174.05 0C176.979 0 179.695 0.519048 182.197 1.55709C184.7 2.59518 186.868 4.03178 188.704 5.86692C190.539 7.70213 191.975 9.88019 193.014 12.4012C194.051 14.9222 194.571 17.6842 194.571 20.6872Z" fill="black"/>
</svg>
