<svg width="843" height="635" viewBox="0 0 843 635" fill="none" xmlns="http://www.w3.org/2000/svg">
<g clip-path="url(#clip0_412_59259)">
<path d="M545.489 288.975C545.489 288.975 586.548 354.777 625.788 391.029C665.028 427.282 710.702 464.42 683.041 532.619C655.379 600.818 573.851 628.748 428.058 625.184C282.265 621.619 230.788 620.843 198.814 548.517C166.84 476.191 273.256 459.97 345.946 437.981C418.636 415.992 545.489 288.975 545.489 288.975Z" fill="#D3EAE8"/>
<path opacity="0.49" d="M552.5 432.625C552.5 432.625 572.497 509.813 501.201 528.135C429.905 546.464 296.872 543.765 246.789 508.103C196.705 472.442 552.5 432.625 552.5 432.625Z" fill="#F8F8FF"/>
<path d="M738.103 566.248C745.163 561.901 748.528 552.376 745.767 544.561C741.249 531.788 729.567 536.094 721.265 529.384C711.486 521.487 723.311 509.064 722.659 499.738C721.945 489.479 712.708 479.569 709.927 469.653C703.547 446.86 729.458 463.87 736.847 461.213C739.937 460.1 741.963 456.996 742.677 453.782C744.49 445.59 741.043 438.97 745.527 431.217C749.86 423.731 756.261 420.352 754.413 410.189C753.369 404.434 749.819 399.16 749.908 393.309C749.936 391.633 750.41 389.752 751.872 388.935C752.985 388.31 754.372 388.481 755.574 388.9C759.564 390.301 762.187 394.023 765.401 396.777C768.615 399.531 773.779 401.234 776.862 398.336C778.916 396.406 779.115 393.288 779.534 390.5C780.282 385.473 783.812 381.985 788.193 384.89C792.966 388.056 791.14 400.52 790.418 404.99C789.278 412.077 787.548 419.439 789.656 426.306C793.138 437.665 802.656 424.94 806.804 421.177C810.203 418.093 815.882 416.246 819.144 419.467C825.641 425.874 815.196 434.437 813.822 440.508C813.163 443.399 814.014 446.86 816.583 448.344C824.103 452.697 830.455 444.937 831.595 456.522C832.378 464.461 825.194 472.029 829.651 479.967C833.545 486.903 846.504 489.849 841.381 499.58C838.235 505.555 824.693 505.287 825.407 513.789C825.874 519.331 834.204 521.844 834.211 527.407C834.218 531.596 829.342 534.068 825.16 534.281C820.978 534.494 816.569 533.519 812.717 535.153C808.342 537.007 805.808 542.384 807.161 546.944C808.342 550.907 812.03 554.512 810.869 558.481C809.475 563.254 802.862 563.426 797.952 562.663C777.886 559.525 756.398 557.43 738.103 566.248Z" fill="#288684"/>
<path d="M775.997 564.271C775.283 564.271 774.713 563.694 774.713 562.987V473.458C774.713 472.751 775.29 472.174 775.997 472.174C776.711 472.174 777.281 472.751 777.281 473.458V562.98C777.281 563.694 776.711 564.271 775.997 564.271Z" fill="white"/>
<path d="M775.997 529.426C775.709 529.426 775.427 529.33 775.187 529.138C774.637 528.692 774.548 527.881 775.001 527.325L798.481 498.379C798.934 497.823 799.744 497.748 800.293 498.194C800.843 498.64 800.932 499.451 800.479 500.007L777 528.953C776.739 529.262 776.375 529.426 775.997 529.426Z" fill="white"/>
<path d="M775.997 504.978C775.702 504.978 775.406 504.882 775.166 504.676L747.182 481.128C746.639 480.667 746.571 479.857 747.024 479.315C747.484 478.772 748.294 478.703 748.837 479.157L776.821 502.705C777.364 503.165 777.432 503.975 776.979 504.518C776.725 504.827 776.361 504.978 775.997 504.978Z" fill="white"/>
<path d="M734.189 553.7C737.87 578.168 741.187 603.763 747.382 627.373C747.897 629.337 748.501 631.397 749.751 632.66C751.227 634.151 753.232 634.178 755.08 634.137C765.765 633.89 776.471 634.576 787.157 634.515C797.259 634.46 805.602 635.277 806.66 618.5C807.024 612.683 807.944 553.693 813.308 553.693C813.287 553.7 734.189 553.7 734.189 553.7Z" fill="#D3EAE8"/>
<path d="M806.084 568.321H741.414C733.373 568.321 726.787 561.742 726.787 553.694C726.787 545.652 733.366 539.066 741.414 539.066H806.084C814.125 539.066 820.711 545.645 820.711 553.694C820.711 561.742 814.125 568.321 806.084 568.321Z" fill="#288684"/>
<path d="M494.349 31.1621C494.349 31.1621 502.823 49.9922 489.583 61.5842C476.343 73.1762 458.343 64.0015 440.873 74.6183C423.403 85.2351 425.284 97.816 433.298 125.828C442.83 159.148 453.241 158.152 462.601 160.562C471.961 162.98 474.756 189.055 475.814 201.128C476.871 213.2 478.458 221.407 445.103 237.826C411.749 254.246 429.947 279.36 433.292 311.911C436.993 347.916 394.272 368.683 386.862 377.377C379.452 386.071 361.975 387.52 352.443 369.17C342.911 350.821 391.346 337.313 387.116 307.859C382.879 278.405 357.017 258.586 393.551 229.613C430.085 200.64 422.867 177.47 410.691 153.812C398.516 130.154 392.692 120.979 402.746 90.5573C412.8 60.1352 402.217 69.3099 415.45 45.1645C428.697 21.0259 476.878 -5.53676 494.349 31.1621Z" fill="#111111"/>
<path d="M471.309 174.076L473.966 223.651L512.773 238.615C512.773 238.615 489.438 204.471 493.394 174.069C497.349 143.675 471.309 174.076 471.309 174.076Z" fill="#D4A79A"/>
<path d="M561.243 334.903C561.243 334.903 558.668 330.185 550.949 305.957C543.23 281.729 540.442 272.719 529.722 249.275C519.002 225.83 496.697 211.182 496.697 211.182L468.823 209.678C468.823 209.678 465.389 209.891 449.313 223.186C433.23 236.481 417.792 274.436 417.792 274.436L410.932 349.915L459.181 385.508L493.284 397.8C491.643 395.61 490.318 393.289 489.493 390.83C483.78 373.847 502.926 279.793 503.571 271.428C504.217 263.064 520.417 342.835 520.417 342.835L534.447 338.762L544.075 369.438L550.097 338.117L561.243 334.903Z" fill="#288684"/>
<path d="M546.018 375.646L544.068 369.438L540.957 385.617L546.018 375.646Z" fill="#D3EAE8"/>
<path d="M520.403 342.835C520.403 342.835 504.203 263.065 503.557 271.429C502.912 279.793 483.766 373.848 489.479 390.831C490.303 393.289 491.629 395.61 493.27 397.801L528.355 410.444L540.956 385.612L544.067 369.432L534.439 338.756L520.403 342.835Z" fill="#288684"/>
<path d="M520.403 342.835C520.403 342.835 504.203 263.065 503.557 271.429C502.912 279.793 483.766 373.848 489.479 390.831C490.303 393.289 491.629 395.61 493.27 397.801L528.355 410.444L540.956 385.612L544.067 369.432L534.439 338.756L520.403 342.835Z" fill="#144241"/>
<path d="M236.084 312.838L433.079 322.342L471.309 359.371L287.307 354.735L236.084 312.838Z" fill="black"/>
<path d="M421.844 328.317L243.994 316.306C239.187 316.677 235.019 313.443 234.682 309.068L198.842 212.912C198.506 208.545 202.125 204.699 206.925 204.328L384.774 216.346C389.581 215.975 393.75 219.21 394.086 223.584L429.926 319.74C430.27 324.101 426.644 327.946 421.844 328.317Z" fill="#D3EAE8"/>
<path d="M332.62 274.391C334.733 264.669 327.252 254.79 315.911 252.325C304.57 249.86 293.664 255.743 291.551 265.464C289.438 275.186 296.918 285.065 308.259 287.53C319.6 289.995 330.507 284.112 332.62 274.391Z" fill="#288684"/>
<path d="M155.043 483.588L104.754 557.24L127.649 576.585L175.556 496.622C175.556 496.615 164.575 484.261 155.043 483.588Z" fill="#D4A79A"/>
<path d="M2.90449 598.321C2.90449 598.321 22.2497 604.927 59.3193 607.674C96.389 610.428 137.764 611.801 145.284 606.3C152.804 600.8 157.638 554.026 145.284 554.026C132.93 554.026 128.123 571.909 106.333 555.949C87.6675 542.277 72.7517 568.056 40.2488 574.931C7.74594 581.805 -5.41866 584.565 2.90449 598.321Z" fill="#111111"/>
<path d="M468.073 403.948C463.63 395.591 439.581 400.301 410.759 389.582C381.93 378.862 363.313 356.344 330.563 330.399C297.813 304.455 300.051 308.953 285.918 307.881C271.786 306.81 254.288 344.979 244.412 365.141C223.625 407.595 197.317 445.529 158.015 470.211C146.073 477.71 93.4556 506.236 84.6655 518.185C66.1513 543.333 157.177 543.546 180.979 546.451C204.541 549.322 217.754 535.937 227.285 514.786C238.163 490.661 250.064 467.052 261.952 443.442C267.899 431.63 273.873 419.825 279.703 407.952C282.217 402.836 287.656 384.266 293.72 381.952C312.371 374.851 336.99 431.706 342.223 444.479C352.765 470.211 391.352 500.234 419.391 503.235C447.43 506.236 468.52 487.585 477.715 460.349C486.917 433.113 468.073 403.948 468.073 403.948Z" fill="#0054C4"/>
<path d="M250.971 489.172L200.682 562.824L223.577 582.169L271.483 502.206C271.477 502.199 260.503 489.845 250.971 489.172Z" fill="#EAC2AB"/>
<path d="M98.8329 603.903C98.8329 603.903 118.178 610.509 155.248 613.256C192.317 616.01 233.693 617.383 241.212 611.882C248.732 606.382 253.567 559.609 241.212 559.609C228.858 559.609 224.051 577.491 202.261 561.531C183.596 547.859 168.68 573.638 136.177 580.513C103.674 587.387 90.5029 590.147 98.8329 603.903Z" fill="#333333"/>
<path d="M540.868 403.948C536.624 395.591 513.632 400.301 486.08 389.582C458.529 378.862 440.729 356.344 409.421 330.399C378.113 304.455 380.255 308.953 366.747 307.881C353.24 306.81 336.511 344.979 327.075 365.141C298.047 427.159 238.308 468.782 183.94 507.074C180.561 509.45 176.771 512.753 177.471 516.826C177.828 518.9 179.312 520.575 180.829 522.038C200.998 541.507 238.782 550.263 265.936 548.992C293.274 547.715 308.115 524.902 318.443 502.343C336.916 461.984 354.963 420.395 377.406 382.089C385.839 367.709 412.717 425.765 415.052 431.17C428.972 463.446 456.606 499.012 494.342 503.235C521.145 506.236 541.3 487.585 550.097 460.349C558.881 433.113 540.868 403.948 540.868 403.948Z" fill="#006DFF"/>
<path d="M436.636 68.549C436.636 68.549 415.911 83.8356 424.158 118.172C432.406 152.509 458.055 181.832 468.404 179.765C497.02 174.051 507.053 153.827 516.977 136.473C529.145 115.192 504.986 63.2749 504.986 63.2749L482.166 50.9688L436.636 68.549Z" fill="#EAC2AB"/>
<path d="M477.936 53.3792C477.936 53.3792 492.337 58.2069 504.993 78.486C517.65 98.7652 509.347 102.075 509.347 129.263C509.347 137.208 507.857 145.037 503.551 151.808C500.427 156.725 495.97 160.598 492.735 165.419C488.649 171.504 487.344 178.371 487.674 185.63C488.368 200.978 490.819 213.724 504.451 222.39C519.188 231.757 526.062 244.269 529.935 261.177C534.571 281.421 567.946 292.876 579.593 285.15C591.24 277.425 556.498 282.582 563.386 249.269C570.267 215.949 572.629 201.809 552.508 192.552C532.387 183.295 542.001 180.85 552.59 160.571C563.18 140.292 535.882 140.539 546.657 105.241C559.094 64.4974 547.825 19.0908 486.932 31.6442C426.04 44.1976 477.936 53.3792 477.936 53.3792Z" fill="#111111"/>
<path d="M463.11 92.1522C480.58 81.5285 476.35 73.171 489.59 61.5858C502.824 49.9939 494.356 31.1637 494.356 31.1637C476.886 -5.53507 428.705 21.0207 415.465 45.1661C402.225 69.3115 412.821 60.1368 402.76 90.559C395.824 111.525 396.442 122.403 401.483 134.887L429.962 146.418C418.431 102.673 449.966 100.139 463.11 92.1522Z" fill="#111111"/>
<path d="M534.007 374.357C534.007 374.357 534.007 386.149 529.502 384.006C524.997 381.863 482.756 355.486 477.18 349.271C471.604 343.049 458.521 320.538 457.883 316.033C457.237 311.528 459.387 311.316 450.59 312.6C441.8 313.884 425.929 318.822 428.292 321.603C430.647 324.391 437.295 322.461 437.295 322.461C437.295 322.461 429.507 327.392 433.291 328.037C437.075 328.683 448.227 326.534 448.227 329.967C448.227 333.401 447.582 344.979 450.157 350.768C452.732 356.557 455.946 358.487 464.311 360.417C472.675 362.346 474.151 361.701 481.026 368.781C487.9 375.861 526.281 409.951 531.212 411.667C536.142 413.384 538.285 416.385 544.294 405.446C550.303 394.506 554.588 386.149 555.014 368.994C555.44 351.84 553.51 335.331 553.51 335.331L534.426 338.764C534.439 338.764 536.149 358.061 534.007 374.357Z" fill="#EAC2AB"/>
<path d="M595.745 156.532C599.165 140.86 606.801 125.237 612.405 110.191C615.385 102.198 621.93 91.4159 622.596 82.8524C622.815 80.0436 625.494 77.9629 628.577 78.2032L742.808 70.4844C745.891 70.7247 748.219 73.1901 747.999 75.9988L724.98 137.756C724.76 140.565 722.082 142.646 718.999 142.406L626.874 148.291C621.229 151.718 612.274 155.144 606.622 158.557C600.353 162.341 592.606 170.912 595.745 156.532Z" fill="#D3EAE8"/>
<path d="M678.413 117.209L715.53 115.595C718.03 115.485 719.981 113.356 719.871 110.856C719.761 108.357 717.632 106.406 715.132 106.516L678.014 108.13C675.515 108.24 673.564 110.369 673.674 112.868C673.784 115.361 675.913 117.312 678.413 117.209Z" fill="white"/>
<path d="M651.719 101.834L718.964 98.915C721.464 98.8051 723.414 96.6763 723.304 94.1766C723.194 91.6769 721.065 89.7266 718.566 89.8365L651.321 92.7551C648.821 92.8649 646.871 94.9938 646.981 97.4935C647.091 99.9863 649.22 101.943 651.719 101.834Z" fill="white"/>
<path d="M261.335 170.569C257.379 152.426 248.541 134.344 242.045 116.929C238.597 107.678 231.016 95.2005 230.247 85.2841C229.993 82.0359 226.896 79.6254 223.325 79.907L91.1017 70.9727C87.5307 71.2473 84.8387 74.1041 85.0928 77.3524L111.738 148.841C111.992 152.089 115.089 154.5 118.66 154.218L225.295 161.037C231.833 165 242.189 168.976 248.74 172.924C255.999 177.299 264.968 187.222 261.335 170.569Z" fill="#D3EAE8"/>
<path d="M165.646 125.053L122.684 123.185C119.793 123.061 117.534 120.589 117.657 117.698C117.781 114.807 120.253 112.547 123.144 112.671L166.106 114.539C168.997 114.662 171.256 117.135 171.133 120.026C171.002 122.917 168.537 125.176 165.646 125.053Z" fill="white"/>
<path d="M196.542 107.259L118.702 103.88C115.81 103.756 113.551 101.284 113.675 98.393C113.798 95.5019 116.271 93.2426 119.162 93.3662L197.002 96.7449C199.894 96.8685 202.153 99.3407 202.029 102.232C201.899 105.123 199.434 107.382 196.542 107.259Z" fill="white"/>
<g opacity="0.72">
<path d="M333.929 64.7371C331.381 53.0558 325.688 41.4158 321.512 30.2015C319.294 24.2475 314.412 16.2128 313.917 9.82623C313.752 7.7317 311.761 6.18656 309.46 6.36511L224.327 0.617188C222.026 0.795737 220.295 2.63617 220.453 4.72383L237.608 50.7484C237.773 52.843 239.764 54.3881 242.065 54.2095L310.724 58.5977C314.934 61.1524 321.602 63.707 325.818 66.2479C330.495 69.0704 336.263 75.4569 333.929 64.7371Z" fill="#D3EAE8"/>
<path d="M272.313 35.4264L244.652 34.2246C242.791 34.1422 241.335 32.5559 241.417 30.6949C241.5 28.8338 243.086 27.378 244.947 27.4604L272.609 28.6621C274.47 28.7445 275.926 30.3309 275.843 32.1919C275.761 34.053 274.174 35.5088 272.313 35.4264Z" fill="white"/>
<path d="M292.209 23.9719L242.091 21.795C240.23 21.7126 238.774 20.1262 238.857 18.2652C238.939 16.4041 240.526 14.9483 242.387 15.0307L292.504 17.2076C294.365 17.29 295.821 18.8764 295.739 20.7374C295.656 22.5984 294.07 24.0543 292.209 23.9719Z" fill="white"/>
</g>
<path d="M339.115 131.33L296.153 129.462C293.262 129.338 291.002 126.866 291.126 123.975C291.25 121.084 293.722 118.825 296.613 118.948L339.575 120.816C342.466 120.94 344.725 123.412 344.602 126.303C344.471 129.194 341.999 131.454 339.115 131.33Z" fill="#D3EAE8"/>
<path d="M343.4 152.324L300.438 150.456C297.547 150.333 295.287 147.86 295.411 144.969C295.535 142.078 298.007 139.819 300.898 139.942L343.86 141.81C346.751 141.934 349.01 144.406 348.887 147.297C348.756 150.188 346.291 152.455 343.4 152.324Z" fill="#D3EAE8"/>
<path d="M351.015 173.879L308.053 172.011C305.162 171.887 302.903 169.415 303.026 166.524C303.15 163.633 305.622 161.373 308.513 161.497L351.475 163.365C354.366 163.489 356.626 165.961 356.502 168.852C356.378 171.743 353.906 174.002 351.015 173.879Z" fill="#D3EAE8"/>
</g>
<defs>
<clipPath id="clip0_412_59259">
<rect width="842.617" height="634.538" fill="white"/>
</clipPath>
</defs>
</svg>
