<svg width="158" height="279" viewBox="0 0 158 279" fill="none" xmlns="http://www.w3.org/2000/svg">
<path d="M34.2617 100.888L74.362 56.0486L68.7127 69.2945L36.6129 100.888H34.2617Z" fill="black"/>
<path d="M56.9573 146.84L29.0047 136.047C24.6289 134.347 22.4084 129.375 24.1064 124.993L32.3355 103.603C34.0335 99.2204 38.9971 96.9964 43.3729 98.6972L71.3255 109.49C75.7013 111.191 77.9218 116.162 76.2238 120.545L67.9947 141.934C66.2967 146.317 61.3331 148.541 56.9573 146.84Z" fill="black"/>
<path d="M136.504 71.8449L152.342 45.1569C152.342 45.1569 158.513 41.6247 157.207 46.367C155.868 51.1094 141.892 74.1343 141.892 74.1343L136.504 71.8449Z" fill="black"/>
<path d="M91.701 50.4891L86.9661 65.6646L73.7734 67.2672C73.7734 67.2672 83.7006 58.502 84.8435 48.7556C86.0191 39.0093 91.701 50.4891 91.701 50.4891Z" fill="#D4A79A"/>
<path d="M110.412 21.7396C110.412 21.7396 112.143 25.8933 106.885 35.9013C101.628 45.9093 95.195 53.9549 92.1254 52.5158C83.7004 48.493 82.1983 41.4285 80.4675 35.2471C78.3776 27.6921 89.9375 13.465 89.9375 13.465L97.9706 11.4373L110.412 21.7396Z" fill="#EAC2AB"/>
<path d="M82.7543 26.3843C82.7543 26.3843 81.9053 32.5331 81.9053 39.99C81.9053 40.2843 81.8726 40.5133 81.7094 40.7095C81.2849 41.2328 77.954 35.6728 77.7255 35.2476C76.0927 32.4349 73.6109 29.0335 74.5906 25.6321C74.8518 24.6836 75.3743 23.8006 75.4396 22.8194C75.6029 20.9879 74.1661 19.8105 73.8395 18.1425C73.5456 16.6053 73.9375 14.8392 74.4273 13.4001C75.3416 10.6528 77.1703 7.61117 79.6848 6.04128C81.6767 4.79846 83.3421 5.41987 85.3341 4.73305C86.379 4.37328 86.8362 3.19587 87.5546 2.34552C88.6322 1.03728 90.3956 0.415871 92.0937 0.383165C94.1836 0.317754 97.2205 0.74293 99.0165 1.95305C101.302 3.49022 101.531 7.57846 103.686 8.72317C104.045 8.9194 104.47 8.95211 104.894 9.01752C108.911 9.40999 112.732 9.21375 115.932 11.9938C121.026 16.3436 117.532 31.7154 110.021 27.3655C109.172 26.8749 108.421 26.1881 107.605 25.5994C103.654 22.8848 98.6573 27.4309 96.0123 20.5627C95.5224 19.3199 87.326 18.8947 87.2281 22.2634C87.0974 26.6133 82.7543 26.3843 82.7543 26.3843Z" fill="#111111"/>
<path d="M84.5834 26.2858C84.5834 26.2858 82.2649 21.7724 81.1873 27.4959C80.1097 33.2194 82.7874 35.1491 82.7874 35.1491L84.5834 26.2858Z" fill="#EAC2AB"/>
<path d="M33.2838 231.159L16.0855 253.986L7.48633 249.296L26.9401 226.513C26.8931 226.513 31.9681 228.434 33.2838 231.159Z" fill="#788292"/>
<path d="M33.5448 268.082C33.2509 268.442 30.9324 267.886 30.6058 267.853C27.0138 267.33 21.4297 266.675 18.6867 264.092C16.009 261.573 14.6375 257.779 12.3843 254.901C10.7842 252.874 8.56368 251.434 6.57173 249.865C4.35119 248.131 11.1434 237.763 13.8211 240.053C15.9764 241.917 14.1477 245.744 20.3521 246.234C25.6749 246.627 21.1032 253.593 26.4913 259.055C31.1936 263.863 36.8429 264.19 33.5448 268.082Z" fill="#111111"/>
<path d="M62.1832 169.278C58.134 183.766 60.4852 184.028 50.4928 195.311C45.6272 200.839 18.6215 223.602 13.5926 228.999C6.40852 236.684 13.8865 240.217 19.2093 242.473C22.7034 243.945 24.7606 251.598 30.0507 245.973C30.5732 245.417 39.684 233.643 42.3943 228.475C45.5292 222.588 63.4568 206.431 69.6286 200.741C84.356 187.233 76.9107 180.725 85.9234 163.063C89.3522 156.326 88.6011 149.163 89.6134 141.412C90.2339 136.67 83.0171 114.495 72.9594 118.42C66.7223 120.873 69.1061 133.563 69.3673 138.567C69.5633 142.034 70.0531 145.86 69.2041 149.196C67.4407 156.064 64.1099 162.442 62.1832 169.278Z" fill="#111111"/>
<path d="M95.8398 245.968L103.816 266.497L91.9379 268.702L85.8555 247.006C85.9128 247.006 92.0526 245.287 95.8398 245.968Z" fill="#788292"/>
<path d="M126.299 271.983C126.299 271.983 121.237 273.716 111.572 274.436C101.906 275.156 91.0969 275.515 89.1376 274.076C87.1783 272.637 85.9048 260.405 89.1376 260.405C92.3705 260.405 93.6114 265.082 99.326 260.896C104.192 257.331 108.11 264.068 116.6 265.867C125.025 267.666 128.487 268.385 126.299 271.983Z" fill="#111111"/>
<path d="M110.968 253.984C110.641 253.232 109.792 252.643 109.041 252.054C102.281 246.658 105.808 238.449 105.024 231.221C102.543 208.686 106.82 195.506 98.3628 172.481C92.6155 156.815 91.048 146.48 89.6439 129.08C89.1541 123.03 101.106 115.246 91.995 116.946C87.6846 117.764 83.4068 117.601 79.129 116.848C76.8758 116.456 79.1616 115.704 76.8758 116.456C69.0059 118.974 63.1607 133.07 63.0627 138.532C62.8341 150.732 72.1735 158.712 74.7206 169.374C79.1943 188.082 86.2478 201.328 84.4191 216.732C83.5047 224.287 82.4598 231.81 81.4801 239.332C80.8923 243.714 77.235 253.363 79.6841 257.32C83.0476 262.782 98.1015 258.138 103.13 258.04C106.886 258.007 112.078 256.568 110.968 253.984Z" fill="#333333"/>
<path d="M93.8244 88.1667C91.5385 78.8783 94.0203 63.2776 87.4893 56.4093C86.8362 55.6898 86.1178 55.003 85.2361 54.6105C77.0397 50.9147 72.0761 57.6522 68.5494 63.5065C65.0226 69.3609 65.088 75.7058 63.3572 82.247C61.3979 89.7039 61.7898 97.4552 61.6592 105.174C61.5612 109.851 62.149 114.528 61.8878 119.237C61.6918 122.508 61.2347 125.778 60.4836 128.984C59.9938 131.11 59.6672 133.595 60.4836 135.754C61.1367 137.454 61.6265 138.566 63.0633 138.599C68.6474 138.795 74.1334 137.127 79.097 134.674C83.636 132.418 84.5503 133.072 89.7751 132.647C92.3875 132.418 95.9795 122.671 95.9795 116.948C95.4897 105.828 97.1551 103.866 95.9795 95.918C95.5877 93.3343 94.4448 90.7178 93.8244 88.1667Z" fill="#FEFEFE"/>
<path d="M79.2617 68.3782C79.2617 68.3782 90.9522 95.0662 96.6342 98.6638C102.316 102.261 107.247 101.738 117.239 95.1643C127.265 88.5904 136.277 80.741 137.224 79.8579C138.171 78.9749 146.4 77.9937 147.119 74.4288C147.837 70.8638 150.972 59.3841 147.935 61.6408C144.931 63.8975 142.319 71.3217 139.837 71.4525C137.322 71.5834 140.882 63.7666 138.596 65.0422C136.31 66.285 136.147 68.3782 135.33 70.1443C134.514 71.9104 135.592 73.8728 130.628 78.2554C125.664 82.6379 109.37 94.0196 104.667 93.1692C99.965 92.3189 82.8211 67.0045 82.1027 65.0749C81.3843 63.1452 79.2617 68.3782 79.2617 68.3782Z" fill="#EAC2AB"/>
<path d="M95.3591 77.176C95.3591 77.176 88.2729 55.8845 79.8153 60.169C71.3576 64.4534 89.7751 92.9076 89.7751 92.9076L100.225 87.184L95.3591 77.176Z" fill="#F8F8FF"/>
</svg>
