<?xml version="1.0" encoding="UTF-8" standalone="no"?>
<!DOCTYPE svg PUBLIC "-//W3C//DTD SVG 1.1//EN" "http://www.w3.org/Graphics/SVG/1.1/DTD/svg11.dtd">
<svg width="100%" height="100%" viewBox="0 0 805 702" version="1.1" xmlns="http://www.w3.org/2000/svg" xmlns:xlink="http://www.w3.org/1999/xlink" xml:space="preserve" xmlns:serif="http://www.serif.com/" style="fill-rule:evenodd;clip-rule:evenodd;stroke-linejoin:round;stroke-miterlimit:2;">
    <g>
        <path d="M687.598,542.567L32.161,542.567C14.471,542.567 0,528.096 0,510.406L0,32.341C0,14.651 14.471,0.18 32.161,0.18L687.598,0.18C705.288,0.18 719.759,14.651 719.759,32.341L719.759,510.406C719.759,528.096 705.288,542.567 687.598,542.567Z" style="fill:rgb(0,109,255);fill-rule:nonzero;"/>
        <path d="M667.49,497.33L49.157,497.33C31.467,497.33 16.996,482.859 16.996,465.169L16.996,55.932C16.996,38.243 31.467,23.772 49.157,23.772L667.49,23.772C685.18,23.772 699.651,38.243 699.651,55.932L699.651,465.169C699.659,482.852 685.188,497.33 667.49,497.33Z" style="fill:rgb(211,234,232);fill-rule:nonzero;"/>
        <path d="M397.9,517.831L347.419,517.831C346.189,517.831 345.188,516.822 345.188,515.599C345.188,514.369 346.196,513.367 347.419,513.367L397.9,513.367C399.13,513.367 400.132,514.376 400.132,515.599C400.132,516.822 399.123,517.831 397.9,517.831Z" style="fill:rgb(211,234,232);fill-rule:nonzero;"/>
        <path d="M38.399,18.399C41.172,18.399 43.42,16.15 43.42,13.377C43.42,10.604 41.172,8.355 38.399,8.355C35.625,8.355 33.377,10.604 33.377,13.377C33.377,16.15 35.625,18.399 38.399,18.399Z" style="fill:rgb(211,234,232);fill-rule:nonzero;"/>
        <path d="M60.024,18.399C62.797,18.399 65.045,16.15 65.045,13.377C65.045,10.604 62.797,8.355 60.024,8.355C57.25,8.355 55.002,10.604 55.002,13.377C55.002,16.15 57.25,18.399 60.024,18.399Z" style="fill:white;fill-rule:nonzero;"/>
        <path d="M81.84,18.399C84.613,18.399 86.862,16.15 86.862,13.377C86.862,10.604 84.613,8.355 81.84,8.355C79.067,8.355 76.818,10.604 76.818,13.377C76.818,16.15 79.067,18.399 81.84,18.399Z" style="fill:rgb(0,109,255);fill-rule:nonzero;"/>
        <path d="M604.564,298.098L482.164,298.098C478.881,298.098 476.191,295.409 476.191,292.125C476.191,288.842 478.881,286.152 482.164,286.152L604.564,286.152C607.847,286.152 610.536,288.842 610.536,292.125C610.529,295.409 607.847,298.098 604.564,298.098Z" style="fill:white;fill-rule:nonzero;"/>
        <path d="M604.564,325.438L482.164,325.438C478.881,325.438 476.191,322.748 476.191,319.465C476.191,316.182 478.881,313.492 482.164,313.492L604.564,313.492C607.847,313.492 610.536,316.182 610.536,319.465C610.529,322.756 607.847,325.438 604.564,325.438Z" style="fill:white;fill-rule:nonzero;"/>
        <path d="M604.564,352.786L482.164,352.786C478.881,352.786 476.191,350.096 476.191,346.813C476.191,343.529 478.881,340.84 482.164,340.84L604.564,340.84C607.847,340.84 610.536,343.529 610.536,346.813C610.529,350.096 607.847,352.786 604.564,352.786Z" style="fill:white;fill-rule:nonzero;"/>
        <path d="M604.564,383.608L482.164,383.608C478.881,383.608 476.191,380.918 476.191,377.635C476.191,374.352 478.881,371.662 482.164,371.662L604.564,371.662C607.847,371.662 610.536,374.352 610.536,377.635C610.529,380.926 607.847,383.608 604.564,383.608Z" style="fill:white;fill-rule:nonzero;"/>
        <path d="M604.564,410.956L482.164,410.956C478.881,410.956 476.191,408.266 476.191,404.983C476.191,401.699 478.881,399.01 482.164,399.01L604.564,399.01C607.847,399.01 610.536,401.699 610.536,404.983C610.529,408.266 607.847,410.956 604.564,410.956Z" style="fill:white;fill-rule:nonzero;"/>
        <path d="M604.564,438.301L482.164,438.301C478.881,438.301 476.191,435.612 476.191,432.328C476.191,429.045 478.881,426.355 482.164,426.355L604.564,426.355C607.847,426.355 610.536,429.045 610.536,432.328C610.529,435.612 607.847,438.301 604.564,438.301Z" style="fill:white;fill-rule:nonzero;"/>
        <path d="M108.987,227.423L362.155,227.423C379.845,227.423 394.316,212.952 394.316,195.262L394.316,103.772C394.316,86.082 379.845,71.611 362.155,71.611L108.987,71.611C91.297,71.611 76.826,86.082 76.826,103.772L76.826,195.262C76.819,212.952 91.29,227.423 108.987,227.423Z" style="fill:white;fill-rule:nonzero;"/>
        <path d="M83.721,438.379C80.416,438.379 77.705,435.675 77.705,432.364L77.705,294.041C77.705,290.736 80.409,288.025 83.721,288.025C87.026,288.025 89.737,290.729 89.737,294.041L89.737,432.364C89.737,435.675 87.026,438.379 83.721,438.379Z" style="fill:rgb(40,134,132);fill-rule:nonzero;"/>
        <path d="M112.528,438.38C109.223,438.38 106.512,435.676 106.512,432.364L106.512,370.639C106.512,367.334 109.216,364.623 112.528,364.623C115.832,364.623 118.543,367.327 118.543,370.639L118.543,432.364C118.543,435.676 115.832,438.38 112.528,438.38Z" style="fill:rgb(40,134,132);fill-rule:nonzero;"/>
        <path d="M141.334,438.38C138.029,438.38 135.318,435.676 135.318,432.364L135.318,311.768C135.318,308.463 138.022,305.752 141.334,305.752C144.639,305.752 147.35,308.456 147.35,311.768L147.35,432.364C147.343,435.676 144.639,438.38 141.334,438.38Z" style="fill:rgb(40,134,132);fill-rule:nonzero;"/>
        <path d="M170.133,438.379C166.828,438.379 164.117,435.675 164.117,432.363L164.117,388.049C164.117,384.744 166.821,382.033 170.133,382.033C173.438,382.033 176.149,384.737 176.149,388.049L176.149,432.363C176.149,435.675 173.445,438.379 170.133,438.379Z" style="fill:rgb(40,134,132);fill-rule:nonzero;"/>
        <path d="M198.938,438.38C195.633,438.38 192.922,435.676 192.922,432.364L192.922,357.662C192.922,354.358 195.626,351.646 198.938,351.646C202.243,351.646 204.954,354.35 204.954,357.662L204.954,432.364C204.954,435.676 202.25,438.38 198.938,438.38Z" style="fill:rgb(40,134,132);fill-rule:nonzero;"/>
        <path d="M227.744,438.379C224.44,438.379 221.729,435.675 221.729,432.363L221.729,410.231C221.729,406.926 224.432,404.215 227.744,404.215C231.049,404.215 233.76,406.919 233.76,410.231L233.76,432.363C233.76,435.675 231.049,438.379 227.744,438.379Z" style="fill:rgb(40,134,132);fill-rule:nonzero;"/>
        <path d="M118.029,180.219C135.018,203.603 167.744,208.789 191.121,191.8L129.603,107.127C106.227,124.109 101.04,156.835 118.029,180.219Z" style="fill:rgb(0,109,255);fill-rule:nonzero;"/>
        <path d="M135.111,103.121L163.295,141.913L202.838,113.186C186.801,92.005 156.707,87.434 135.111,103.121Z" style="fill:rgb(0,109,255);fill-rule:nonzero;"/>
        <path d="M221.208,109.874C220.951,109.517 220.65,109.202 220.386,108.852L167.287,147.422L206.673,201.636C236.03,180.305 242.532,139.224 221.208,109.874Z" style="fill:rgb(40,134,132);fill-rule:nonzero;"/>
        <path d="M265.664,111.927C265.664,108.429 268.525,105.561 272.03,105.561L357.404,105.561C360.902,105.561 363.771,108.422 363.771,111.927C363.771,115.425 360.909,118.293 357.404,118.293L272.03,118.293C268.525,118.293 265.664,115.425 265.664,111.927Z" style="fill:rgb(40,134,132);fill-rule:nonzero;"/>
        <path d="M265.664,142.415C265.664,138.917 268.525,136.049 272.03,136.049L300.98,136.049C304.478,136.049 307.346,138.91 307.346,142.415C307.346,145.913 304.485,148.782 300.98,148.782L272.03,148.782C268.525,148.782 265.664,145.913 265.664,142.415Z" style="fill:rgb(0,109,255);fill-rule:nonzero;"/>
        <path d="M245.205,342.749C245.205,374.402 270.957,400.153 302.61,400.153C334.263,400.153 360.015,374.402 360.015,342.749C360.015,311.095 334.263,285.344 302.61,285.344C270.957,285.344 245.205,311.095 245.205,342.749ZM250.562,342.749C250.562,314.057 273.911,290.709 302.609,290.709C331.308,290.709 354.649,314.05 354.649,342.749C354.649,371.448 331.308,394.796 302.609,394.796C273.911,394.796 250.562,371.448 250.562,342.749Z" style="fill:rgb(151,140,255);"/>
        <path d="M263.969,342.749C263.969,364.059 281.301,381.391 302.611,381.391C323.92,381.391 341.252,364.059 341.252,342.749C341.252,321.44 323.92,304.107 302.611,304.107C281.301,304.107 263.969,321.44 263.969,342.749ZM269.326,342.75C269.326,324.401 284.262,309.473 302.61,309.473C320.965,309.473 335.887,324.401 335.887,342.75C335.887,361.105 320.958,376.034 302.61,376.034C284.255,376.034 269.326,361.098 269.326,342.75Z" style="fill:rgb(151,140,255);"/>
        <path d="M280.449,342.749C280.449,354.966 290.392,364.909 302.61,364.909C314.828,364.909 324.771,354.966 324.771,342.749C324.771,330.531 314.835,320.588 302.61,320.588C290.385,320.588 280.449,330.531 280.449,342.749ZM285.814,342.749C285.814,333.485 293.347,325.953 302.61,325.953C311.874,325.953 319.406,333.485 319.406,342.749C319.406,352.012 311.874,359.545 302.61,359.545C293.347,359.545 285.814,352.012 285.814,342.749Z" style="fill:rgb(151,140,255);"/>
        <path d="M299.713,347.563L300.328,333.922C300.4,332.441 301.637,331.303 303.125,331.361C304.606,331.425 305.75,332.684 305.686,334.158L305.514,337.934L394.4,285.716C395.681,284.965 397.319,285.394 398.07,286.667C398.821,287.94 398.392,289.586 397.119,290.337L299.713,347.563Z" style="fill:rgb(40,134,132);fill-rule:nonzero;"/>
        <path d="M311.766,348.086L302.61,348.086C301.129,348.086 299.928,346.884 299.928,345.403C299.928,343.922 301.129,342.721 302.61,342.721L311.766,342.721C313.247,342.721 314.449,343.922 314.449,345.403C314.449,346.884 313.247,348.086 311.766,348.086Z" style="fill:rgb(40,134,132);fill-rule:nonzero;"/>
        <path d="M465.399,228.332C464.962,228.332 464.519,228.225 464.111,228.003C462.809,227.287 462.337,225.664 463.052,224.362L485.056,184.297L502.631,201.114L514.348,182.53L524.628,188.753L549.213,127.75L566.345,158.144L582.469,134.267L596.067,150.948L623.571,100.296C624.444,98.687 625.596,96.927 626.812,95.06C627.813,93.522 628.879,91.891 629.809,90.303C628.772,90.754 627.713,91.247 626.704,91.719C624.837,92.592 623.078,93.415 621.49,93.951C620.095,94.423 618.571,93.665 618.092,92.263C617.62,90.861 618.378,89.337 619.78,88.865C621.082,88.429 622.706,87.671 624.43,86.862C627.849,85.267 631.375,83.615 634.501,83.371L638.314,83.078L637.291,86.762C636.297,90.332 633.757,94.223 631.297,97.993C630.138,99.767 629.043,101.44 628.278,102.857L596.961,160.533L582.869,143.244L565.93,168.33L550.007,140.089L527.231,196.593L516.065,189.833L503.661,209.512L486.393,192.988L467.752,226.937C467.266,227.831 466.35,228.332 465.399,228.332Z" style="fill:rgb(90,84,255);fill-rule:nonzero;"/>
        <path d="M636.274,102.12C634.794,102.12 633.592,100.918 633.592,99.437L633.592,86.032C633.592,84.551 634.794,83.35 636.274,83.35C637.755,83.35 638.957,84.551 638.957,86.032L638.957,99.437C638.957,100.918 637.755,102.12 636.274,102.12Z" style="fill:rgb(90,84,255);fill-rule:nonzero;"/>
        <path d="M462.722,243.962C461.248,243.962 460.039,242.753 460.039,241.28L460.039,70.188C460.039,68.715 461.248,67.506 462.722,67.506C464.195,67.506 465.404,68.715 465.404,70.188L465.404,241.287C465.404,242.76 464.195,243.962 462.722,243.962Z" style="fill:rgb(0,109,255);fill-rule:nonzero;"/>
        <path d="M446.42,228.333C446.42,226.859 447.629,225.65 449.102,225.65L620.201,225.65C621.674,225.65 622.883,226.859 622.883,228.333C622.883,229.806 621.674,231.015 620.201,231.015L449.095,231.015C447.622,231.008 446.42,229.806 446.42,228.333Z" style="fill:rgb(0,109,255);fill-rule:nonzero;"/>
        <path d="M562.01,109.631L512.202,109.631C507.288,109.631 503.268,105.61 503.268,100.696C503.268,95.782 507.288,91.762 512.202,91.762L562.01,91.762C566.924,91.762 570.944,95.782 570.944,100.696C570.944,105.61 566.924,109.631 562.01,109.631Z" style="fill:rgb(40,134,132);fill-rule:nonzero;"/>
        <rect x="595.844" y="148.779" width="2.01" height="2.682" style="fill:rgb(0,109,255);"/>
        <path d="M595.844,113.465L597.854,113.465L597.854,108.422L595.844,108.422L595.844,113.465ZM597.854,123.551L595.844,123.551L595.844,118.508L597.854,118.508L597.854,123.551ZM595.844,133.645L597.854,133.645L597.854,128.602L595.844,128.602L595.844,133.645ZM595.844,143.738L597.854,143.738L597.854,138.695L595.844,138.695L595.844,143.738Z" style="fill:rgb(0,109,255);"/>
        <path d="M597.854,103.371L595.844,103.371L595.844,101.698L594.17,101.698L594.17,99.688L597.854,99.688L597.854,103.371Z" style="fill:rgb(0,109,255);fill-rule:nonzero;"/>
        <rect x="580.471" y="99.688" width="6.853" height="2.01" style="fill:rgb(0,109,255);"/>
        <rect x="570.943" y="99.688" width="2.682" height="2.01" style="fill:rgb(0,109,255);"/>
        <path d="M598.09,163.431L595.615,163.431C592.267,163.431 589.527,160.691 589.527,157.344L589.527,154.869C589.527,151.521 592.267,148.781 595.615,148.781L598.09,148.781C601.437,148.781 604.177,151.521 604.177,154.869L604.177,157.344C604.177,160.691 601.437,163.431 598.09,163.431Z" style="fill:rgb(40,134,132);fill-rule:nonzero;"/>
        <path d="M786.12,286.094C786.12,286.094 794.053,323.813 793.38,339.228C792.708,354.643 779.31,377.641 779.31,377.641L770.654,286.101L786.12,286.101L786.12,286.094Z" style="fill:rgb(234,194,171);fill-rule:nonzero;"/>
        <path d="M738.773,216.928L740.519,249.418L765.949,259.225C765.949,259.225 750.655,236.85 753.252,216.928C755.834,197.007 738.773,216.928 738.773,216.928Z" style="fill:rgb(212,167,154);fill-rule:nonzero;"/>
        <path d="M716.048,150.454C716.048,150.454 710.512,157.793 715.912,180.29C721.313,202.794 730.083,222.008 736.864,220.648C755.613,216.9 762.194,203.652 768.696,192.279C776.665,178.33 760.842,144.309 760.842,144.309L745.892,136.24L716.048,150.454Z" style="fill:rgb(234,194,171);fill-rule:nonzero;"/>
        <path d="M696.083,144.395C694.445,139.116 697.321,132.364 701.162,129.102C702.643,127.843 704.51,127.042 706.377,127.228C707.779,127.364 709.152,128.043 710.547,127.814C714.724,127.12 715.225,120.961 719.102,119.71C721.992,118.78 724.768,121.398 727.715,122.092C729.939,122.614 732.243,122.013 734.482,121.548C740.784,120.225 746.628,117.199 753.087,116.419C758.538,115.761 764.225,116.376 769.153,119.023C774.304,121.784 777.995,126.863 779.962,132.729C781.135,136.234 781.514,140.139 780.57,143.73C781.342,140.776 786.657,143.952 787.523,145.111C790.899,149.675 791.479,159.567 789.683,164.875C788.26,169.081 785.921,172.801 784.619,177.064C783.074,182.15 782.43,187.794 779.611,192.301C776.385,197.473 759.01,214.447 753.495,213.016C755.197,208.338 746.9,204.089 747.207,199.061C747.515,194.032 750.655,167.858 725.919,162.958C716.083,161.012 728.702,157.822 718.852,158.216C714.174,158.401 709.488,157.493 705.103,155.712C701.713,154.338 698.415,149.281 696.548,145.583C696.362,145.197 696.212,144.803 696.083,144.395Z" style="fill:rgb(17,17,17);fill-rule:nonzero;"/>
        <path d="M745.662,178.315C745.662,178.315 755.942,169.51 755.191,181.42C754.439,193.33 744.818,196.785 744.818,196.785L745.662,178.315Z" style="fill:rgb(234,194,171);fill-rule:nonzero;"/>
        <path d="M773.146,628.197L766.822,671.088L780.943,674.679L784.884,629.535C784.877,629.535 777.452,626.466 773.146,628.197Z" style="fill:rgb(120,130,146);fill-rule:nonzero;"/>
        <path d="M711.469,691.696C711.469,691.696 722.042,694.5 741.942,694.579C761.843,694.658 783.982,693.842 787.787,690.623C791.6,687.404 792.43,662.246 785.827,662.711C779.225,663.176 777.329,672.905 765.104,665.201C754.625,658.598 747.629,672.919 730.533,677.812C713.437,682.705 706.512,684.665 711.469,691.696Z" style="fill:rgb(17,17,17);fill-rule:nonzero;"/>
        <path d="M737.958,641.424C738.501,639.693 740.154,638.298 741.57,636.882C754.546,623.884 749.889,605.787 746.549,589.913C738.637,552.259 741.563,513.545 740.991,475.369C740.433,438.107 734.41,401.097 724.102,365.466C720.361,352.519 715.032,332.468 733.938,335.008C742.893,336.209 751.577,335.244 760.261,332.94C764.832,331.732 759.99,330.415 764.832,331.732C781.321,336.209 790.749,383.714 788.252,395.51C783.288,418.994 781.607,426.512 782.251,450.969C783.166,485.655 780.319,520.641 786.485,554.684C789.511,571.365 792.823,587.989 796.056,604.621C797.945,614.32 806.944,635.251 802.537,644.457C796.486,657.104 764.983,648.956 754.682,649.4C746.949,649.743 736.105,647.325 737.958,641.424Z" style="fill:rgb(17,17,17);fill-rule:nonzero;"/>
        <path d="M741.156,629.679L731.85,672.019L745.684,676.582L752.773,631.825C752.773,631.832 745.577,628.255 741.156,629.679Z" style="fill:rgb(120,130,146);fill-rule:nonzero;"/>
        <path d="M675.196,688.707C675.196,688.707 685.547,692.241 705.39,693.714C725.233,695.188 747.379,695.925 751.4,692.977C755.427,690.03 758.016,665.001 751.4,665.001C744.783,665.001 742.215,674.572 730.548,666.031C720.555,658.713 712.572,672.512 695.175,676.189C677.786,679.866 670.74,681.339 675.196,688.707Z" style="fill:rgb(59,61,63);fill-rule:nonzero;"/>
        <path d="M705.133,641.538C705.798,639.986 707.544,638.827 709.06,637.618C722.916,626.574 719.532,609.728 717.315,595.006C712.057,560.084 717.687,524.883 719.79,489.954C721.836,455.862 718.424,421.648 710.634,388.414C707.801,376.339 703.895,357.669 722.573,361.203C731.421,362.877 740.155,362.548 748.975,361.002C753.618,360.187 748.882,358.678 753.618,360.187C769.748,365.337 776.022,382.541 772.71,393.156C766.114,414.308 763.718,447.893 762.652,470.29C761.136,502.05 755.849,533.846 759.619,565.363C761.465,580.807 763.611,596.208 765.671,611.623C766.873,620.615 774.391,640.315 769.348,648.456C762.423,659.629 731.571,650.158 721.263,649.908C713.524,649.714 702.88,646.81 705.133,641.538Z" style="fill:rgb(59,61,63);fill-rule:nonzero;"/>
        <path d="M687.134,279.14C680.453,284.191 673.342,288.661 665.903,292.503C660.116,295.486 644.422,305.55 638.341,299.391C636.567,297.589 635.795,295.049 635.158,292.603C631.388,278.16 625.916,264.24 620.566,250.327C615.78,237.902 610.036,224.797 610.48,211.206C610.937,197.329 610.108,178.609 608.784,175.211C607.461,171.813 596.609,151.813 596.409,158.036C596.209,164.259 606.667,181.37 601.896,180.733C597.124,180.097 586.931,184.074 588.133,191.306C589.335,198.531 596.967,214.117 596.967,214.117C600.308,228.159 603.827,242.172 607.482,256.136C610.215,266.579 613.019,277.023 616.145,287.359C619.185,297.41 622.003,308.318 630.845,314.985C631.997,315.858 633.22,316.631 634.522,317.253C644.994,322.26 657.305,317.017 667.491,311.452C689.344,299.513 710.06,285.736 730.933,272.195C726.849,268.182 722.764,264.176 718.687,260.163C717.707,259.204 716.634,258.189 715.282,257.988C713.701,257.745 712.192,258.661 710.882,259.583C704.366,264.154 698.665,269.755 692.549,274.856C690.775,276.322 688.965,277.753 687.134,279.14Z" style="fill:rgb(234,194,171);fill-rule:nonzero;"/>
        <path d="M758.072,290.263C758.072,290.263 736.591,254.218 752.986,247.48C769.381,240.741 786.12,286.1 786.12,286.1L759.13,296.744L758.072,290.263Z" style="fill:rgb(254,254,254);fill-rule:nonzero;"/>
        <path d="M708.421,368.427C708.421,366.939 705.939,328.226 711.396,303.411C716.854,278.597 711.396,257.251 730.26,242.365C749.123,227.48 764.502,247.33 769.466,257.752C774.431,268.174 778.594,301.265 779.295,318.798C780.01,336.717 789.431,374.579 789.81,375.38C797.293,390.938 792.371,389.794 791.72,391.274C787.679,400.488 761.39,402.276 755.074,399.014C741.225,391.861 738.286,387.97 723.357,390.266C716.904,391.26 709.773,389.272 707.856,387.29C705.939,385.309 708.421,368.427 708.421,368.427Z" style="fill:rgb(248,248,255);fill-rule:nonzero;"/>
        <path d="M697.899,262.266C697.899,262.266 732.742,225.119 746.097,241.979C759.459,258.839 712.162,293.583 712.162,293.583L690.695,265.671L697.899,262.266Z" style="fill:rgb(254,254,254);fill-rule:nonzero;"/>
    </g>
</svg>
