<svg width="152" height="279" viewBox="0 0 152 279" fill="none" xmlns="http://www.w3.org/2000/svg">
<path d="M111.991 50.6356L108.663 66.1679L95.6602 68.9513C95.6602 68.9513 104.718 59.3296 104.992 49.536C105.266 39.7424 111.991 50.6356 111.991 50.6356Z" fill="#D4A79A"/>
<path d="M128.012 20.327C128.012 20.327 130.104 24.2788 125.782 34.7253C121.459 45.1718 117.753 52.8348 114.597 51.6664C105.848 48.4363 101.731 42.457 99.4671 36.4778C96.6882 29.1584 106.912 13.9698 106.912 13.9698L114.734 11.2207L128.012 20.327Z" fill="#EAC2AB"/>
<path d="M100.909 27.4751C100.601 27.5094 102.076 40.6019 102.11 41.8046C99.8802 39.5366 96.8954 37.3374 95.1114 34.7257C92.3667 30.7396 90.5484 27.0283 86.8431 23.7982C84.9561 22.1487 89.2104 20.2931 89.0388 20.19C88.0439 19.3309 87.2891 18.2313 88.9359 17.441C89.6564 17.0973 90.5141 16.9255 90.9258 16.2726C91.2346 15.7228 91.1659 15.0355 90.8229 14.4857C89.7593 12.7675 86.1226 11.5304 87.7008 8.81573C88.6271 7.23502 90.5141 7.23502 91.1659 5.31067C91.4404 4.48594 91.6119 3.55813 92.1266 2.87086C94.4595 -0.290569 99.5029 3.69559 102.488 3.28323C104.478 3.00832 105.781 1.0496 107.805 0.80906C109.898 0.568516 112.952 0.70597 114.839 1.73687C117.24 3.07705 117.858 7.13193 120.088 8.05974C120.465 8.23156 120.911 8.23156 121.323 8.23156C125.371 8.26592 129.111 7.71611 132.576 10.1903C138.031 14.039 135.938 29.6743 128.116 26.0318C127.224 25.6194 126.435 25.0009 125.577 24.5198C121.426 22.1831 116.829 27.1658 113.569 20.568C112.986 19.3997 104.786 19.7089 104.992 23.0422C105.232 27.2689 100.978 27.4751 100.909 27.4751Z" fill="#111111"/>
<path d="M102.694 27.2011C102.694 27.2011 99.9489 22.9056 99.4343 28.713C98.8854 34.5205 101.699 36.1699 101.699 36.1699L102.694 27.2011Z" fill="#EAC2AB"/>
<path d="M47.354 230.839L30.6459 242.729L26.1172 237.54L44.3006 226.166C44.2663 226.166 47.1482 228.64 47.354 230.839Z" fill="#D4A79A"/>
<path d="M38.0214 267.126C37.6097 267.366 35.6198 266.095 35.311 265.957C32.086 264.273 27.0427 261.868 25.2587 258.535C23.5433 255.27 23.4747 251.25 22.2739 247.779C21.4162 245.339 19.8037 243.277 18.397 241.112C16.8532 238.741 26.631 231.181 28.4151 234.205C29.856 236.645 26.8712 239.704 32.5664 242.178C37.4381 244.274 30.9196 249.36 34.2132 256.267C37.1294 262.383 42.3442 264.514 38.0214 267.126Z" fill="#788292"/>
<path d="M85.8802 172.799C81.8318 187.266 84.1991 187.506 74.2154 198.812C69.3436 204.31 39.4268 215.478 34.4178 220.873C27.2474 228.536 33.2513 236.302 38.5691 238.536C42.0342 240.014 43.5438 247.574 48.8273 241.938C49.3419 241.388 58.6737 232.866 61.3841 227.712C64.5061 221.801 87.1839 209.877 93.3594 204.207C108.043 190.702 100.633 184.242 109.622 166.579C113.052 159.844 112.298 152.696 113.293 144.964C113.91 140.222 106.705 118.058 96.653 121.975C90.4089 124.415 92.8105 137.095 93.0506 142.112C93.2222 145.583 93.7368 149.397 92.8791 152.731C91.1637 159.603 87.8015 165.961 85.8802 172.799Z" fill="#1354AC"/>
<path d="M115.593 243.313V264.48L108.525 265.202L109.829 243.141C109.863 243.141 113.672 242.179 115.593 243.313Z" fill="#EAC2AB"/>
<path d="M140.842 278.362C140.842 278.362 135.559 278.947 125.952 277.572C116.346 276.198 105.745 274.239 104.132 272.418C102.52 270.596 103.892 258.397 107.048 259.085C110.205 259.772 110.411 264.617 116.861 261.765C122.384 259.325 124.752 266.748 132.642 270.321C140.533 273.895 143.724 275.304 140.842 278.362Z" fill="#788292"/>
<path d="M128.527 254.652C128.218 253.896 128.493 250.116 128.527 249.188C128.904 239.532 127.669 235.339 128.698 228.158C133.913 192.694 136.795 185.513 128.424 170.839C120.156 156.372 114.735 150.049 113.328 132.696C112.848 126.648 124.787 118.882 115.661 120.6C111.338 121.425 107.084 121.253 102.796 120.497C100.531 120.085 102.83 119.363 100.531 120.085C92.6748 122.593 86.8081 136.682 86.7394 142.112C86.5336 154.276 113.912 173.417 113.328 184.344C111.922 210.357 109.898 204.825 108.079 220.22C107.187 227.745 106.124 228.742 105.129 236.267C104.545 240.666 103.653 245.305 99.262 250.356C95.042 255.167 121.459 259.188 126.468 259.05C130.242 258.947 129.625 257.229 128.527 254.652Z" fill="#006DFF"/>
<path d="M150.965 139.877C150.587 136.269 150.725 137.163 148.872 137.369C147.019 137.575 138.271 133.692 135.286 132.146C134.154 131.561 129.591 127.025 124.342 121.527C123.278 122.696 121.734 123.452 119.641 123.383C118.955 123.349 118.269 123.314 117.617 123.246C122.866 128.159 127.258 132.111 128.459 132.799C131.924 134.792 130.62 135.204 132.233 138.331C133.845 141.458 134.909 142.489 137.447 142.936C139.986 143.348 143.04 142.936 144.412 142.592C145.75 142.248 146.059 146.853 146.676 148.296C147.328 149.74 148.46 146.166 148.46 146.166C148.46 146.166 148.357 148.984 149.695 149.637C150.999 150.221 151.342 143.486 150.965 139.877Z" fill="#EAC2AB"/>
<path d="M117.48 91.7701C115.216 82.4919 117.686 66.9253 111.167 60.0526C110.515 59.3653 109.795 58.6437 108.903 58.2657C100.703 54.5545 95.7628 61.3241 92.2291 67.1315C88.6953 72.9733 88.7982 79.2961 87.0485 85.8595C85.0929 93.3164 89.1413 98.4022 89.0041 106.1C88.9355 110.773 86.9799 116.855 86.7397 121.529C86.5682 124.793 76.0356 136.03 75.2808 139.226C74.8005 141.356 80.9073 138.882 81.6964 141.047C82.3483 142.765 85.2645 142.112 86.7054 142.147C92.2977 142.319 97.7527 140.669 102.727 138.229C107.256 135.996 112.059 136.064 117.274 135.652C119.882 135.446 123.244 133.178 122.077 128.47C119.298 117.268 120.087 107.44 118.955 99.5362C118.612 96.9246 118.132 94.3473 117.48 91.7701Z" fill="#288684"/>
<path d="M105.128 68.9181C105.128 68.9181 100.497 79.021 102.692 88.8489C104.888 98.6769 104.648 109.982 110.755 117.199C116.862 124.381 125.782 139.844 127.326 139.191C128.835 138.573 130.482 135.24 134.771 133.178C139.059 131.15 137.309 129.844 128.492 123.075C119.675 116.305 114.357 109.57 113.328 98.6425C112.299 87.7493 117.754 59.6744 105.128 68.9181Z" fill="#D3EAE8"/>
<path d="M102.417 41.0484C102.417 41.0484 74.8328 17.0971 63.5111 41.5982C52.1893 66.0993 55.5858 68.5048 34.1775 61.9757C3.71172 52.6976 15.2393 65.3433 3.26571 68.9515C-3.8361 71.082 9.71567 77.2331 9.71567 77.2331C9.71567 77.2331 9.40689 79.6385 16.1313 80.91C22.8557 82.1471 24.5712 82.3532 25.1201 84.1058C25.669 85.8583 27.5903 84.5869 26.664 81.9065C25.7376 79.2262 25.1544 71.46 28.8254 72.0786C32.4964 72.6971 40.3187 82.9031 53.8018 79.0544C67.285 75.2057 71.9509 49.708 80.9053 52.8351C89.8598 55.9621 83.204 62.8005 99.672 59.6047C116.106 56.4089 102.417 41.0484 102.417 41.0484Z" fill="#F8F8FF"/>
<path d="M102.932 44.9316C102.932 44.9316 106.226 54.1754 111.784 54.2098C117.376 54.2098 117.445 52.6634 116.312 57.6805C115.18 62.6975 117.993 63.3161 116.312 66.4431C114.631 69.5702 110.411 66.5119 108.593 63.969C106.74 61.4261 104.064 59.7423 101.045 58.8488C98.0261 57.9554 96.5165 54.9658 102.932 44.9316Z" fill="#FEFEFE"/>
</svg>
