<svg width="406" height="513" viewBox="0 0 406 513" fill="none" xmlns="http://www.w3.org/2000/svg">
<g filter="url(#filter0_d_378_129524)">
<rect x="16" y="429" width="374" height="64" rx="10" fill="#006DFF" shape-rendering="crispEdges"/>
<path d="M168.916 468.2C167.823 468.2 166.776 468.047 165.776 467.74C164.776 467.42 163.983 467.013 163.396 466.52L164.296 464.5C164.856 464.94 165.549 465.307 166.376 465.6C167.203 465.893 168.049 466.04 168.916 466.04C169.649 466.04 170.243 465.96 170.696 465.8C171.149 465.64 171.483 465.427 171.696 465.16C171.909 464.88 172.016 464.567 172.016 464.22C172.016 463.793 171.863 463.453 171.556 463.2C171.249 462.933 170.849 462.727 170.356 462.58C169.876 462.42 169.336 462.273 168.736 462.14C168.149 462.007 167.556 461.853 166.956 461.68C166.369 461.493 165.829 461.26 165.336 460.98C164.856 460.687 164.463 460.3 164.156 459.82C163.849 459.34 163.696 458.727 163.696 457.98C163.696 457.22 163.896 456.527 164.296 455.9C164.709 455.26 165.329 454.753 166.156 454.38C166.996 453.993 168.056 453.8 169.336 453.8C170.176 453.8 171.009 453.907 171.836 454.12C172.663 454.333 173.383 454.64 173.996 455.04L173.176 457.06C172.549 456.687 171.903 456.413 171.236 456.24C170.569 456.053 169.929 455.96 169.316 455.96C168.596 455.96 168.009 456.047 167.556 456.22C167.116 456.393 166.789 456.62 166.576 456.9C166.376 457.18 166.276 457.5 166.276 457.86C166.276 458.287 166.423 458.633 166.716 458.9C167.023 459.153 167.416 459.353 167.896 459.5C168.389 459.647 168.936 459.793 169.536 459.94C170.136 460.073 170.729 460.227 171.316 460.4C171.916 460.573 172.456 460.8 172.936 461.08C173.429 461.36 173.823 461.74 174.116 462.22C174.423 462.7 174.576 463.307 174.576 464.04C174.576 464.787 174.369 465.48 173.956 466.12C173.556 466.747 172.936 467.253 172.096 467.64C171.256 468.013 170.196 468.2 168.916 468.2ZM180.534 468.14C179.361 468.14 178.454 467.84 177.814 467.24C177.174 466.627 176.854 465.727 176.854 464.54V454.96H179.354V464.48C179.354 464.987 179.481 465.38 179.734 465.66C180.001 465.94 180.368 466.08 180.834 466.08C181.394 466.08 181.861 465.933 182.234 465.64L182.934 467.42C182.641 467.66 182.281 467.84 181.854 467.96C181.428 468.08 180.988 468.14 180.534 468.14ZM175.094 459.4V457.4H182.214V459.4H175.094ZM189.111 468.14C188.204 468.14 187.404 467.973 186.711 467.64C186.017 467.293 185.477 466.773 185.091 466.08C184.704 465.373 184.511 464.487 184.511 463.42V457.32H187.011V463.08C187.011 464.04 187.224 464.76 187.651 465.24C188.091 465.707 188.711 465.94 189.511 465.94C190.097 465.94 190.604 465.82 191.031 465.58C191.471 465.34 191.811 464.98 192.051 464.5C192.304 464.02 192.431 463.427 192.431 462.72V457.32H194.931V468H192.551V465.12L192.971 466C192.611 466.693 192.084 467.227 191.391 467.6C190.697 467.96 189.937 468.14 189.111 468.14ZM202.324 468.14C201.297 468.14 200.371 467.913 199.544 467.46C198.731 466.993 198.091 466.353 197.624 465.54C197.157 464.727 196.924 463.767 196.924 462.66C196.924 461.553 197.157 460.593 197.624 459.78C198.091 458.967 198.731 458.333 199.544 457.88C200.371 457.427 201.297 457.2 202.324 457.2C203.217 457.2 204.017 457.4 204.724 457.8C205.431 458.187 205.991 458.78 206.404 459.58C206.817 460.38 207.024 461.407 207.024 462.66C207.024 463.9 206.824 464.927 206.424 465.74C206.024 466.54 205.471 467.14 204.764 467.54C204.057 467.94 203.244 468.14 202.324 468.14ZM202.624 466C203.224 466 203.757 465.867 204.224 465.6C204.704 465.333 205.084 464.947 205.364 464.44C205.657 463.933 205.804 463.34 205.804 462.66C205.804 461.967 205.657 461.373 205.364 460.88C205.084 460.373 204.704 459.987 204.224 459.72C203.757 459.453 203.224 459.32 202.624 459.32C202.024 459.32 201.484 459.453 201.004 459.72C200.537 459.987 200.157 460.373 199.864 460.88C199.584 461.373 199.444 461.967 199.444 462.66C199.444 463.34 199.584 463.933 199.864 464.44C200.157 464.947 200.537 465.333 201.004 465.6C201.484 465.867 202.024 466 202.624 466ZM205.864 468V465.48L205.964 462.64L205.764 459.8V453.16H208.244V468H205.864ZM216.155 468.14C214.968 468.14 213.928 467.907 213.035 467.44C212.155 466.96 211.468 466.307 210.975 465.48C210.495 464.653 210.255 463.713 210.255 462.66C210.255 461.593 210.488 460.653 210.955 459.84C211.435 459.013 212.088 458.367 212.915 457.9C213.755 457.433 214.708 457.2 215.775 457.2C216.815 457.2 217.741 457.427 218.555 457.88C219.368 458.333 220.008 458.973 220.475 459.8C220.941 460.627 221.175 461.6 221.175 462.72C221.175 462.827 221.168 462.947 221.155 463.08C221.155 463.213 221.148 463.34 221.135 463.46H212.235V461.8H219.815L218.835 462.32C218.848 461.707 218.721 461.167 218.455 460.7C218.188 460.233 217.821 459.867 217.355 459.6C216.901 459.333 216.375 459.2 215.775 459.2C215.161 459.2 214.621 459.333 214.155 459.6C213.701 459.867 213.341 460.24 213.075 460.72C212.821 461.187 212.695 461.74 212.695 462.38V462.78C212.695 463.42 212.841 463.987 213.135 464.48C213.428 464.973 213.841 465.353 214.375 465.62C214.908 465.887 215.521 466.02 216.215 466.02C216.815 466.02 217.355 465.927 217.835 465.74C218.315 465.553 218.741 465.26 219.115 464.86L220.455 466.4C219.975 466.96 219.368 467.393 218.635 467.7C217.915 467.993 217.088 468.14 216.155 468.14ZM229.236 457.2C230.089 457.2 230.849 457.367 231.516 457.7C232.196 458.033 232.729 458.547 233.116 459.24C233.503 459.92 233.696 460.8 233.696 461.88V468H231.196V462.2C231.196 461.253 230.969 460.547 230.516 460.08C230.076 459.613 229.456 459.38 228.656 459.38C228.069 459.38 227.549 459.5 227.096 459.74C226.643 459.98 226.289 460.34 226.036 460.82C225.796 461.287 225.676 461.88 225.676 462.6V468H223.176V457.32H225.556V460.2L225.136 459.32C225.509 458.64 226.049 458.12 226.756 457.76C227.476 457.387 228.303 457.2 229.236 457.2ZM240.487 468.14C239.314 468.14 238.407 467.84 237.767 467.24C237.127 466.627 236.807 465.727 236.807 464.54V454.96H239.307V464.48C239.307 464.987 239.434 465.38 239.687 465.66C239.954 465.94 240.321 466.08 240.787 466.08C241.347 466.08 241.814 465.933 242.187 465.64L242.887 467.42C242.594 467.66 242.234 467.84 241.807 467.96C241.381 468.08 240.941 468.14 240.487 468.14ZM235.047 459.4V457.4H242.167V459.4H235.047Z" fill="#FEFEFE"/>
</g>
<path d="M254.253 71.4163L249.513 93.5414L230.996 97.5063C230.996 97.5063 243.895 83.8005 244.286 69.8499C244.676 55.8994 254.253 71.4163 254.253 71.4163Z" fill="#D4A79A"/>
<path d="M277.07 28.2431C277.07 28.2431 280.051 33.8722 273.895 48.7528C267.738 63.6334 262.462 74.5491 257.967 72.8848C245.508 68.2836 239.645 59.7664 236.42 51.2492C232.463 40.823 247.022 19.1874 247.022 19.1874L258.162 15.2715L277.07 28.2431Z" fill="#EAC2AB"/>
<path d="M238.471 38.4249C238.031 38.4739 240.132 57.1236 240.181 58.8368C237.005 55.6061 232.754 52.4734 230.214 48.7532C226.305 43.0751 223.716 37.7886 218.439 33.1874C215.752 30.8378 221.81 28.1945 221.566 28.0477C220.149 26.8239 219.074 25.2576 221.419 24.1317C222.445 23.6422 223.667 23.3975 224.253 22.4675C224.693 21.6843 224.595 20.7053 224.106 19.9221C222.592 17.4746 217.413 15.7124 219.66 11.8454C220.98 9.59378 223.667 9.59378 224.595 6.85262C224.986 5.67783 225.23 4.3562 225.963 3.37722C229.285 -1.12612 236.468 4.552 240.718 3.96461C243.552 3.57301 245.409 0.782903 248.291 0.440258C251.272 0.0976126 255.62 0.29341 258.307 1.76189C261.727 3.67091 262.607 9.44693 265.783 10.7686C266.32 11.0133 266.955 11.0133 267.542 11.0133C273.307 11.0623 278.632 10.2791 283.567 13.8034C291.336 19.2857 288.355 41.5577 277.216 36.3691C275.945 35.7817 274.822 34.9006 273.6 34.2153C267.688 30.8867 261.141 37.9844 256.5 28.5861C255.669 26.9218 243.992 27.3624 244.285 32.1105C244.627 38.1312 238.569 38.4249 238.471 38.4249Z" fill="#111111"/>
<path d="M241.012 38.0337C241.012 38.0337 237.104 31.9151 236.371 40.1875C235.589 48.4599 239.595 50.8095 239.595 50.8095L241.012 38.0337Z" fill="#EAC2AB"/>
<path d="M162.204 328.108L138.41 345.045L131.961 337.653L157.856 321.451C157.807 321.451 161.911 324.976 162.204 328.108Z" fill="#D4A79A"/>
<path d="M148.914 379.798C148.328 380.14 145.494 378.329 145.054 378.134C140.461 375.735 133.279 372.309 130.739 367.56C128.296 362.91 128.198 357.183 126.488 352.239C125.266 348.764 122.97 345.827 120.967 342.743C118.768 339.366 132.693 328.597 135.234 332.904C137.286 336.38 133.035 340.736 141.145 344.261C148.083 347.246 138.8 354.491 143.491 364.33C147.644 373.043 155.07 376.078 148.914 379.798Z" fill="#788292"/>
<path d="M217.071 245.433C211.305 266.04 214.677 266.383 200.459 282.487C193.521 290.319 150.916 306.228 143.783 313.913C133.572 324.828 142.122 335.891 149.695 339.073C154.63 341.178 156.779 351.946 164.304 343.919C165.036 343.135 178.326 330.996 182.186 323.654C186.632 315.234 218.927 298.249 227.722 290.172C248.633 270.935 238.08 261.733 250.881 236.573C255.767 226.979 254.692 216.797 256.109 205.784C256.988 199.029 246.728 167.456 232.412 173.037C223.52 176.512 226.94 194.574 227.282 201.721C227.526 206.665 228.259 212.098 227.038 216.846C224.595 226.636 219.807 235.692 217.071 245.433Z" fill="#1354AC"/>
<path d="M259.381 345.875V376.028L249.316 377.056L251.173 345.631C251.222 345.631 256.645 344.26 259.381 345.875Z" fill="#EAC2AB"/>
<path d="M295.343 395.805C295.343 395.805 287.819 396.637 274.139 394.679C260.458 392.721 245.361 389.931 243.065 387.337C240.769 384.743 242.723 367.366 247.218 368.344C251.713 369.323 252.006 376.225 261.191 372.163C269.058 368.687 272.429 379.26 283.666 384.351C294.904 389.442 299.448 391.449 295.343 395.805Z" fill="#788292"/>
<path d="M277.802 362.029C277.363 360.953 277.753 355.568 277.802 354.247C278.34 340.492 276.581 334.52 278.047 324.29C285.473 273.774 289.577 263.543 277.656 242.642C265.881 222.034 258.161 213.028 256.158 188.308C255.474 179.693 272.477 168.631 259.48 171.078C253.324 172.253 247.266 172.008 241.158 170.931C237.934 170.344 241.207 169.316 237.934 170.344C226.745 173.917 218.39 193.986 218.293 201.72C218 219.048 256.989 246.313 256.158 261.879C254.155 298.934 251.272 291.053 248.683 312.982C247.412 323.702 245.898 325.122 244.481 335.842C243.65 342.107 242.38 348.715 236.126 355.911C230.116 362.764 267.737 368.491 274.871 368.295C280.245 368.148 279.366 365.701 277.802 362.029Z" fill="#006DFF"/>
<path d="M309.756 198.539C309.219 193.4 309.414 194.672 306.776 194.966C304.137 195.26 291.678 189.728 287.428 187.526C285.815 186.694 279.317 180.232 271.842 172.4C270.327 174.065 268.129 175.142 265.148 175.044C264.171 174.995 263.194 174.946 262.266 174.848C269.741 181.848 275.995 187.477 277.705 188.456C282.64 191.295 280.783 191.882 283.079 196.337C285.376 200.791 286.89 202.259 290.506 202.896C294.121 203.483 298.47 202.896 300.424 202.406C302.33 201.917 302.769 208.476 303.649 210.532C304.577 212.588 306.189 207.497 306.189 207.497C306.189 207.497 306.043 211.511 307.948 212.441C309.805 213.273 310.293 203.679 309.756 198.539Z" fill="#EAC2AB"/>
<path d="M262.07 130.01C258.845 116.794 262.363 94.6195 253.08 84.8296C252.151 83.8507 251.125 82.8227 249.855 82.2843C238.178 76.9978 231.142 86.6408 226.11 94.9132C221.077 103.235 221.224 112.241 218.732 121.591C215.947 132.213 221.713 139.457 221.517 150.422C221.419 157.079 218.635 165.743 218.293 172.4C218.048 177.05 203.049 193.057 201.974 197.609C201.29 200.644 209.987 197.119 211.11 200.203C212.039 202.651 216.192 201.721 218.244 201.77C226.208 202.014 233.976 199.665 241.061 196.189C247.51 193.008 254.35 193.106 261.777 192.518C265.49 192.224 270.278 188.994 268.617 182.288C264.659 166.33 265.783 152.331 264.171 141.072C263.682 137.352 262.998 133.681 262.07 130.01Z" fill="#288684"/>
<path d="M244.48 97.4581C244.48 97.4581 237.884 111.849 241.011 125.849C244.138 139.848 243.796 155.953 252.493 166.232C261.19 176.462 273.893 198.49 276.092 197.559C278.241 196.678 280.587 191.93 286.694 188.993C292.801 186.105 290.309 184.245 277.753 174.602C265.196 164.959 257.623 155.365 256.157 139.799C254.692 124.282 262.46 84.2907 244.48 97.4581Z" fill="#D3EAE8"/>
<path d="M240.621 57.7602C240.621 57.7602 201.339 23.6425 185.215 58.5434C169.092 93.4442 173.929 96.8707 143.442 87.5703C100.055 74.354 116.472 92.3673 99.42 97.507C89.3063 100.542 108.605 109.304 108.605 109.304C108.605 109.304 108.166 112.73 117.742 114.541C127.318 116.304 129.761 116.597 130.543 119.094C131.325 121.59 134.061 119.779 132.742 115.961C131.422 112.143 130.592 101.08 135.82 101.961C141.047 102.842 152.187 117.38 171.389 111.898C190.59 106.416 197.235 70.0954 209.987 74.5498C222.739 79.0042 213.26 88.7451 236.712 84.1928C260.115 79.6405 240.621 57.7602 240.621 57.7602Z" fill="#F8F8FF"/>
<path d="M241.353 63.291C241.353 63.291 246.043 76.4584 253.958 76.5073C261.922 76.5073 262.02 74.3046 260.408 81.4512C258.795 88.5978 262.802 89.4789 260.408 93.9333C258.014 98.3877 252.004 94.0312 249.415 90.4089C246.776 86.7867 242.965 84.3882 238.666 83.1155C234.366 81.8428 232.216 77.5842 241.353 63.291Z" fill="#FEFEFE"/>
<defs>
<filter id="filter0_d_378_129524" x="0" y="417" width="406" height="96" filterUnits="userSpaceOnUse" color-interpolation-filters="sRGB">
<feFlood flood-opacity="0" result="BackgroundImageFix"/>
<feColorMatrix in="SourceAlpha" type="matrix" values="0 0 0 0 0 0 0 0 0 0 0 0 0 0 0 0 0 0 127 0" result="hardAlpha"/>
<feOffset dy="4"/>
<feGaussianBlur stdDeviation="8"/>
<feComposite in2="hardAlpha" operator="out"/>
<feColorMatrix type="matrix" values="0 0 0 0 0.620833 0 0 0 0 0.620833 0 0 0 0 0.620833 0 0 0 0.25 0"/>
<feBlend mode="normal" in2="BackgroundImageFix" result="effect1_dropShadow_378_129524"/>
<feBlend mode="normal" in="SourceGraphic" in2="effect1_dropShadow_378_129524" result="shape"/>
</filter>
</defs>
</svg>
