<svg width="799" height="739" viewBox="0 0 799 739" fill="none" xmlns="http://www.w3.org/2000/svg">
<path d="M288.036 245.66L263.266 319.033L198.688 325.261C198.688 325.261 248.046 283.741 254.842 236.408C261.637 189.074 288.036 245.66 288.036 245.66Z" fill="#D4A79A"/>
<path d="M382.633 107.772C382.633 107.772 390.643 128.14 363.875 176.275C337.108 224.41 304.715 262.86 290.026 255.417C249.425 234.842 242.818 200.252 235.186 170.02C225.825 132.946 283.861 65.0645 283.861 65.0645L323.301 56.127L382.633 107.772Z" fill="#EAC2AB"/>
<path d="M435.61 107.592C440.11 95.3333 439.39 81.5715 430.434 68.3227C427.842 64.4885 424.071 61.4643 419.679 60.6903C416.376 60.1052 412.784 60.7893 409.742 59.3582C400.607 55.0919 403.397 40.6461 395.305 35.2998C389.266 31.3125 381.237 35.5428 374.028 35.2458C368.583 35.0208 363.695 32.1766 358.862 29.6654C345.253 22.6 333.796 11.9254 319.476 6.00304C307.388 1.00775 293.968 -1.22439 280.972 1.69179C267.408 4.73397 255.698 14.0135 247.427 26.2002C242.485 33.4907 239.128 42.2032 238.993 51.0417C239.101 43.7783 224.898 47.6485 222.171 49.7726C211.505 58.0711 203.864 80.4014 204.584 93.7132C205.151 104.253 208.148 114.288 208.4 124.891C208.949 148.085 206.456 186.698 240.802 187.328C239.893 175.519 239.074 163.485 241.567 151.767C246.022 130.894 255.302 103.308 274.581 91.4451C315.291 66.4146 328.989 131.524 359.78 143.846C388.447 155.34 425.412 135.35 435.61 107.592Z" fill="#111111"/>
<path d="M252.114 114.289C252.114 114.289 241.269 91.9853 235.382 119.77C229.505 147.564 242.232 157.185 242.232 157.185L252.114 114.289Z" fill="#EAC2AB"/>
<path d="M320.824 507.271C317.881 469.199 312.615 428.93 303.804 390.822C296.99 361.363 290.591 321.023 261.609 304.237C207.327 272.789 172.396 350.428 162.811 391.29C151.884 437.841 153.27 486.885 152.766 534.399C152.316 577.007 146.322 623.963 152.118 665.842C153.144 673.232 155.844 680.81 161.631 685.518C176.347 697.488 191.522 681.62 203.907 674.564C215.491 667.958 227.758 669.047 240.062 664.609C250.872 660.712 256.191 652.63 265.237 646.347C288.962 629.858 314.506 656.383 340.22 651.415C396.113 640.614 353.442 655.852 330.949 543.561C328.654 532.122 321.868 520.826 320.824 507.271Z" fill="#FEFEFE"/>
<path d="M466.127 423.349C487.36 409.659 495.586 378.931 515.225 362.46C523.227 355.755 532.713 351.777 542.119 348.096C555.548 342.83 569.111 337.979 582.774 333.551C581.919 340.535 576.537 345.711 570.948 348.798C565.358 351.885 559.175 353.64 553.973 357.51C551.677 359.211 549.571 361.389 548.383 364.189C545.71 370.48 548.302 378.04 547.177 384.908C545.062 397.788 531.849 403.044 521.724 409.344C500.815 422.35 487.306 447.975 465.515 458.955C465.515 458.955 301.994 594.728 281.833 590.975C261.671 587.222 233.851 402.036 233.851 402.036C233.851 402.036 214.662 306.594 265.074 352.317C315.485 398.04 284.452 549.924 309.365 534.245C334.261 518.557 466.127 423.349 466.127 423.349Z" fill="#EAC2AB"/>
<path d="M301.373 427.921C301.373 427.921 295.586 310.284 246.794 319.996C198.002 329.707 229.333 461.754 229.333 461.754L308.952 444.707L301.373 427.921Z" fill="#F3F3F3"/>
<path d="M411.406 715.731H82.0947C67.4418 715.731 55.4531 703.742 55.4531 689.089V651.53C55.4531 636.877 67.4418 624.889 82.0947 624.889H411.406C426.059 624.889 438.048 636.877 438.048 651.53V689.089C438.039 703.742 426.05 715.731 411.406 715.731Z" fill="#288684"/>
<path d="M238.848 738.421H18.6324C8.83079 738.421 0.820312 730.402 0.820312 720.609V695.498C0.820312 685.696 8.83979 677.686 18.6324 677.686H238.848C248.65 677.686 256.66 685.705 256.66 695.498V720.609C256.66 730.411 248.641 738.421 238.848 738.421Z" fill="#FEFEFE"/>
<path d="M227.472 709.547L226.662 710.537C226.347 710.924 225.771 710.978 225.384 710.663L207.014 695.704C206.627 695.389 206.573 694.813 206.888 694.426L207.698 693.436C208.013 693.049 208.589 692.995 208.976 693.31L227.346 708.269C227.724 708.584 227.787 709.16 227.472 709.547Z" fill="#EAEAEA"/>
<path d="M227.472 708.764L226.662 707.774C226.347 707.387 225.771 707.333 225.384 707.648L207.014 722.607C206.627 722.922 206.573 723.498 206.888 723.885L207.698 724.875C208.013 725.262 208.589 725.316 208.976 725.001L227.346 710.042C227.724 709.718 227.787 709.142 227.472 708.764Z" fill="#EAEAEA"/>
<path d="M201.82 709.547L201.01 710.537C200.695 710.924 200.119 710.978 199.732 710.663L181.362 695.704C180.975 695.389 180.921 694.813 181.236 694.426L182.046 693.436C182.361 693.049 182.937 692.995 183.324 693.31L201.694 708.269C202.081 708.584 202.135 709.16 201.82 709.547Z" fill="#EAEAEA"/>
<path d="M201.82 708.764L201.01 707.774C200.695 707.387 200.119 707.333 199.732 707.648L181.362 722.607C180.975 722.922 180.921 723.498 181.236 723.885L182.046 724.875C182.361 725.262 182.937 725.316 183.324 725.001L201.694 710.042C202.081 709.718 202.135 709.142 201.82 708.764Z" fill="#EAEAEA"/>
<path d="M173.828 709.547L173.018 710.537C172.703 710.924 172.127 710.978 171.74 710.663L153.37 695.704C152.983 695.389 152.929 694.813 153.244 694.426L154.054 693.436C154.369 693.049 154.945 692.995 155.332 693.31L173.702 708.269C174.089 708.584 174.143 709.16 173.828 709.547Z" fill="#EAEAEA"/>
<path d="M173.828 708.764L173.018 707.774C172.703 707.387 172.127 707.333 171.74 707.648L153.37 722.607C152.983 722.922 152.929 723.498 153.244 723.885L154.054 724.875C154.369 725.262 154.945 725.316 155.332 725.001L173.702 710.042C174.089 709.718 174.143 709.142 173.828 708.764Z" fill="#EAEAEA"/>
<path opacity="0.26" d="M759.772 456.821L426.411 572.397C405.259 572.397 388.113 555.251 388.113 534.1V369.498C388.113 348.347 405.259 331.201 426.411 331.201L759.772 215.625C780.923 215.625 798.07 232.771 798.07 253.922V418.524C798.07 439.675 780.923 456.821 759.772 456.821Z" fill="#006DFF"/>
<path opacity="0.13" d="M739.198 447.109L405.836 562.685C384.685 562.685 367.539 545.539 367.539 524.388V359.795C367.539 338.644 384.685 321.498 405.836 321.498L739.198 205.922C760.349 205.922 777.495 223.068 777.495 244.219V408.812C777.495 429.963 760.349 447.109 739.198 447.109Z" fill="#006DFF"/>
<path opacity="0.39" d="M538.604 397.904L435.745 433.564C429.22 433.564 423.928 428.272 423.928 421.746V370.956C423.928 364.431 429.22 359.139 435.745 359.139L538.604 323.479C545.129 323.479 550.421 328.771 550.421 335.296V386.086C550.421 392.612 545.129 397.904 538.604 397.904Z" fill="#EAEAEA"/>
<path d="M771.781 160.551L668.923 196.211C662.398 196.211 657.105 190.918 657.105 184.393V133.603C657.105 127.078 662.398 121.785 668.923 121.785L771.781 86.1251C778.307 86.1251 783.599 91.4174 783.599 97.9428V148.733C783.599 155.258 778.307 160.551 771.781 160.551Z" fill="#006DFF"/>
<path d="M732.79 147.077L635.404 180.838C629.221 180.838 624.217 175.825 624.217 169.651V121.57C624.217 115.387 629.23 110.382 635.404 110.382L732.79 76.6212C738.974 76.6212 743.978 81.6345 743.978 87.8089V135.89C743.978 142.073 738.965 147.077 732.79 147.077Z" fill="#288684"/>
<path d="M766.308 539.015L668.922 572.776C662.739 572.776 657.734 567.762 657.734 561.588V513.507C657.734 507.324 662.748 502.32 668.922 502.32L766.308 468.559C772.491 468.559 777.495 473.572 777.495 479.746V527.827C777.495 534.01 772.491 539.015 766.308 539.015Z" fill="#288684"/>
<path d="M604.703 555.397L501.845 591.057C495.32 591.057 490.027 585.765 490.027 579.239V528.458C490.027 521.933 495.32 516.641 501.845 516.641L604.703 480.98C611.229 480.98 616.521 486.273 616.521 492.798V543.588C616.521 550.105 611.229 555.397 604.703 555.397Z" fill="#006DFF"/>
<path opacity="0.51" d="M538.604 490.718L435.745 526.378C429.22 526.378 423.928 521.086 423.928 514.561V463.771C423.928 457.245 429.22 451.953 435.745 451.953L538.604 416.293C545.129 416.293 550.421 421.585 550.421 428.111V478.901C550.421 485.426 545.129 490.718 538.604 490.718Z" fill="#EAEAEA"/>
<path opacity="0.51" d="M588.008 459.206C585.497 459.206 583.436 457.144 583.436 454.633V377.967C583.436 375.456 585.497 373.395 588.008 373.395C590.519 373.395 592.58 375.456 592.58 377.967V454.633C592.58 457.144 590.528 459.206 588.008 459.206Z" fill="#EAEAEA"/>
<path opacity="0.51" d="M612.606 309.258C611.76 306.891 613.011 304.263 615.379 303.417L737.03 260.007C739.397 259.161 742.025 260.412 742.871 262.779C743.717 265.146 742.466 267.775 740.099 268.621L618.448 312.03C616.081 312.876 613.453 311.625 612.606 309.258Z" fill="#EAEAEA"/>
<path opacity="0.51" d="M612.606 325.836C611.76 323.469 613.011 320.841 615.379 319.995L737.03 276.585C739.397 275.739 742.025 276.99 742.871 279.357C743.717 281.725 742.466 284.353 740.099 285.199L618.448 328.608C616.081 329.445 613.453 328.203 612.606 325.836Z" fill="#EAEAEA"/>
<path opacity="0.51" d="M612.606 342.406C611.76 340.039 613.011 337.411 615.379 336.565L737.03 293.156C739.397 292.309 742.025 293.561 742.871 295.928C743.717 298.295 742.466 300.923 740.099 301.769L618.448 345.179C616.081 346.025 613.453 344.774 612.606 342.406Z" fill="#EAEAEA"/>
<path opacity="0.51" d="M612.606 358.985C611.76 356.617 613.011 353.989 615.379 353.143L737.03 309.734C739.397 308.888 742.025 310.139 742.871 312.506C743.717 314.873 742.466 317.501 740.099 318.347L618.448 361.757C616.081 362.594 613.453 361.352 612.606 358.985Z" fill="#EAEAEA"/>
<path opacity="0.51" d="M612.606 375.555C611.76 373.188 613.011 370.56 615.379 369.714L737.03 326.304C739.397 325.458 742.025 326.709 742.871 329.076C743.717 331.443 742.466 334.071 740.099 334.917L618.448 378.327C616.081 379.173 613.453 377.922 612.606 375.555Z" fill="#EAEAEA"/>
<path opacity="0.51" d="M612.606 392.125C611.76 389.758 613.011 387.13 615.379 386.284L737.03 342.874C739.397 342.028 742.025 343.279 742.871 345.646C743.717 348.014 742.466 350.642 740.099 351.488L618.448 394.897C616.081 395.743 613.453 394.492 612.606 392.125Z" fill="#EAEAEA"/>
<path opacity="0.51" d="M612.606 408.703C611.76 406.336 613.011 403.708 615.379 402.862L737.03 359.452C739.397 358.606 742.025 359.857 742.871 362.225C743.717 364.592 742.466 367.22 740.099 368.066L618.448 411.475C616.081 412.313 613.453 411.07 612.606 408.703Z" fill="#EAEAEA"/>
<path opacity="0.51" d="M612.606 425.276C611.76 422.908 613.011 420.28 615.379 419.434L737.03 376.025C739.397 375.179 742.025 376.43 742.871 378.797C743.717 381.164 742.466 383.792 740.099 384.638L618.448 428.048C616.081 428.894 613.453 427.643 612.606 425.276Z" fill="#EAEAEA"/>
<path opacity="0.51" d="M612.606 441.854C611.76 439.487 613.011 436.858 615.379 436.012L737.03 392.603C739.397 391.757 742.025 393.008 742.871 395.375C743.717 397.742 742.466 400.37 740.099 401.216L618.448 444.626C616.081 445.463 613.453 444.221 612.606 441.854Z" fill="#EAEAEA"/>
<path opacity="0.51" d="M612.606 458.424C611.76 456.057 613.011 453.428 615.379 452.582L737.03 409.173C739.397 408.327 742.025 409.578 742.871 411.945C743.717 414.312 742.466 416.94 740.099 417.786L618.448 461.196C616.081 462.042 613.453 460.791 612.606 458.424Z" fill="#EAEAEA"/>
<path d="M557.389 177.112C558.523 176.41 559.711 175.78 560.917 175.222C576.983 167.85 596.046 174.925 603.426 190.991C610.798 207.057 603.723 226.12 587.657 233.491L584.453 226.507C596.667 220.9 602.04 206.409 596.442 194.195C590.835 181.981 576.344 176.608 564.13 182.206C563.212 182.629 562.303 183.115 561.439 183.646L557.389 177.112Z" fill="#288684"/>
<path d="M576.578 234.347L590.763 235.68L584.823 222.719L576.578 234.347Z" fill="#288684"/>
<path d="M573.859 239.549C572.725 240.251 571.537 240.881 570.331 241.439C554.265 248.811 535.193 241.736 527.821 225.671C520.45 209.605 527.524 190.541 543.59 183.17L546.794 190.154C534.581 195.762 529.207 210.253 534.806 222.466C540.413 234.68 554.904 240.053 567.118 234.455C568.036 234.032 568.945 233.546 569.809 233.015L573.859 239.549Z" fill="#288684"/>
<path d="M554.678 182.315L540.484 180.983L546.425 193.934L554.678 182.315Z" fill="#288684"/>
<path opacity="0.36" d="M588.006 354.225C600.975 354.225 611.488 343.711 611.488 330.742C611.488 317.773 600.975 307.26 588.006 307.26C575.037 307.26 564.523 317.773 564.523 330.742C564.523 343.711 575.037 354.225 588.006 354.225Z" fill="#FEFEFE"/>
<path d="M588.005 342.487C594.492 342.487 599.751 337.229 599.751 330.742C599.751 324.255 594.492 318.996 588.005 318.996C581.518 318.996 576.26 324.255 576.26 330.742C576.26 337.229 581.518 342.487 588.005 342.487Z" fill="#FEFEFE"/>
<path opacity="0.36" d="M588.004 347.349C597.176 347.349 604.61 339.914 604.61 330.743C604.61 321.571 597.176 314.137 588.004 314.137C578.833 314.137 571.398 321.571 571.398 330.743C571.398 339.914 578.833 347.349 588.004 347.349Z" fill="#FEFEFE"/>
</svg>
