<?xml version="1.0" encoding="UTF-8" standalone="no"?>
<!DOCTYPE svg PUBLIC "-//W3C//DTD SVG 1.1//EN" "http://www.w3.org/Graphics/SVG/1.1/DTD/svg11.dtd">
<svg width="100%" height="100%" viewBox="0 0 3000 1000" version="1.1" xmlns="http://www.w3.org/2000/svg" xmlns:xlink="http://www.w3.org/1999/xlink" xml:space="preserve" xmlns:serif="http://www.serif.com/" style="fill-rule:evenodd;clip-rule:evenodd;stroke-linejoin:round;stroke-miterlimit:2;">
    <g transform="matrix(1.06372,0,0,1.06372,36.6342,-426.658)">
        <g transform="matrix(0.757634,0,0,0.757634,118.252,601.53)">
            <path d="M337.725,25.034C328.275,25.492 313.877,26.956 305.73,28.288C287.958,31.194 268.985,35.461 269.02,36.545C269.034,36.975 273.434,39.872 278.797,42.981C293.774,51.666 303.93,59.649 318.231,73.978C342.297,98.091 359.269,129.068 366.68,162.41L368.67,171.363L380.033,172.798C461.129,183.04 525.7,246.307 538.081,327.653C538.875,332.866 539.546,344.709 539.572,353.968L539.619,370.804L545.618,372.067C591.872,381.803 639.119,419.683 660.101,463.852L664.569,473.256L666.376,468.932C669.33,461.862 676.473,437.471 678.984,425.879C689.176,378.833 688.935,324.615 678.335,279.66C655.763,183.939 593.096,104.03 506.01,59.925C453.314,33.237 399.353,22.049 337.725,25.034M112.575,42.569C48.449,43.248 47.957,43.271 42.988,45.927C36.346,49.476 30.514,55.454 27.516,61.788C25.107,66.875 25.065,68.66 24.682,180.713L24.293,294.473L26.978,299.923C33.343,312.84 43.33,318.904 59.582,319.721L69.986,320.243L76.764,313.794C80.492,310.247 87.571,304.371 92.495,300.737C101.69,293.95 121.606,282.03 123.751,282.03C124.413,282.03 121.457,278.431 117.184,274.031C101.194,257.571 94.029,244.887 89.235,224.558C86.334,212.258 86.643,190.466 89.89,178.343C99.076,144.038 126.438,116.746 160.674,107.739C173.944,104.248 197.112,104.245 210.274,107.732C248.253,117.795 276.506,148.796 283.311,187.874C286.368,205.43 282.614,231.313 274.772,246.751L272.528,251.169L275.205,251.737C276.678,252.049 282.682,253.188 288.548,254.268C294.413,255.348 306.145,258.591 314.618,261.474C323.09,264.356 330.873,267.002 331.912,267.353C334.339,268.171 338.125,259.6 341.873,244.799C350.172,212.028 348.513,178.248 337.089,147.347C328.631,124.466 316.687,105.905 299.488,88.913C276.456,66.159 245.335,49.705 215.665,44.595C201.251,42.112 185.288,41.799 112.575,42.569M247.073,280.552C238.024,287.736 221.865,295.86 209.745,299.317C203.847,300.999 198.156,301.502 185.453,301.467C171.139,301.427 167.517,301.008 159.061,298.413L149.26,295.406L136.267,303.234C119.368,313.417 106.732,323.549 93.261,337.72C69.138,363.096 51.299,394.743 43.359,426.245C35.961,455.601 36.142,452.583 36.142,546.285C36.142,631.682 36.158,632.248 38.768,640.542C41.948,650.651 48.469,660.972 56.703,668.933C64.107,676.091 71.487,680.531 81.765,684.011C89.305,686.564 90.982,686.628 161.16,687.043C238.341,687.5 263.651,686.553 283.401,682.471C313.212,676.309 342.999,663.139 366.551,645.706C367.09,645.307 364.278,640.028 360.303,633.974C346.859,613.501 337.868,590.608 333.629,566.055L332.848,561.532L324.762,569.16C310.931,582.208 298.185,589.538 278.475,595.779C255.901,602.927 235.293,603.614 213.056,597.958C172.746,587.706 140.728,558.09 128.084,519.36C117.577,487.175 119.09,458.404 132.827,429.156C164.405,361.924 247.523,338.458 308.692,379.505C329.942,393.764 346.141,413.427 355.045,435.769C356.924,440.486 358.729,444.352 359.055,444.36C359.381,444.368 362.144,441.002 365.196,436.879C373.717,425.366 386.911,411.77 397.482,403.611C407.77,395.67 422.225,386.31 424.201,386.31C426.602,386.31 425.306,383.049 418.761,372.62C402.702,347.03 380.972,324.371 357.278,308.505C330.01,290.247 295.084,277.892 261.293,274.551C255.549,273.983 255.113,274.167 247.073,280.552M490.457,392.246C440.478,397.033 395.455,428.462 373.027,474.218C349.726,521.756 353.577,576.878 383.371,622.271C390.667,633.386 411.627,654.402 422.595,661.597C438.681,672.15 457,679.936 476.37,684.451C484.155,686.266 493.827,686.58 554.361,686.981C615.636,687.387 624.117,687.222 629.231,685.524C638.292,682.514 645.135,676.556 649.301,668.048L652.93,660.638L652.972,591.908C653.017,517.444 652.832,514.754 646.208,493.64C631.595,447.058 591.561,409.036 543.904,396.477C526.129,391.792 509.189,390.451 490.457,392.246M529.695,450.275C556.047,457.422 579.289,477.629 590.472,503.118C599.547,523.803 599.543,554.599 590.462,575.232C579.295,600.602 557.722,619.727 531.472,627.526C517.265,631.747 496.112,632.052 481.955,628.24C464.45,623.526 447.97,612.89 435.361,598.171C427.381,588.854 422.417,580.042 418.114,567.551C414.453,556.923 414.259,555.49 414.265,539.175C414.271,522.827 414.462,521.433 418.206,510.466C427.751,482.506 451.992,458.79 479.07,450.918C492.307,447.07 516.734,446.76 529.695,450.275"/>
        </g>
        <g transform="matrix(0.739083,0,0,0.739083,-28.9087,440.037)">
            <path d="M1121.04,859.374L1253.33,859.374C1278.25,859.374 1301.57,856.817 1323.3,851.705C1345.03,846.593 1363.88,838.764 1379.86,828.22C1395.84,817.675 1408.46,804.415 1417.72,788.439C1426.99,772.462 1431.62,753.291 1431.62,730.924C1431.62,686.19 1417.24,652.959 1388.49,631.231C1359.73,609.503 1317.55,598.64 1261.95,598.64L1121.04,598.64L1121.04,859.374ZM1121.04,541.125L1260.04,541.125C1276.65,541.125 1293.11,539.048 1309.4,534.894C1325.7,530.74 1340.4,523.87 1353.5,514.284C1366.6,504.699 1377.3,492.397 1385.61,477.379C1393.92,462.361 1398.07,443.988 1398.07,422.261C1398.07,415.231 1396.63,405.326 1393.76,392.545C1390.88,379.763 1384.49,366.982 1374.59,354.201C1364.68,341.42 1350.14,330.397 1330.97,321.13C1311.8,311.864 1285.92,307.231 1253.33,307.231L1121.04,307.231L1121.04,541.125ZM1052.02,243.964L1254.28,243.964C1282.4,243.964 1309.56,246.84 1335.76,252.592C1361.96,258.343 1385.29,267.929 1405.74,281.349C1426.19,294.769 1442.49,312.343 1454.63,334.071C1466.77,355.799 1472.84,382.639 1472.84,414.592C1472.84,451.657 1462.46,483.45 1441.69,509.971C1420.92,536.492 1391.36,554.225 1353.02,563.172L1353.02,565.089C1400.95,568.924 1438.49,585.699 1465.65,615.415C1492.81,645.131 1506.39,684.912 1506.39,734.758C1506.39,745.622 1503.67,761.598 1498.24,782.687C1492.81,803.776 1481.47,824.705 1464.21,845.474C1446.96,866.243 1422.04,884.297 1389.44,899.634C1356.85,914.971 1313.4,922.64 1259.08,922.64L1052.02,922.64L1052.02,243.964Z" style="fill-rule:nonzero;"/>
            <path d="M2156.31,583.302C2156.31,544.32 2149.92,507.095 2137.14,471.628C2124.36,436.16 2105.98,405.006 2082.02,378.166C2058.05,351.326 2028.82,329.917 1994.31,313.941C1959.8,297.965 1920.82,289.976 1877.36,289.976C1833.91,289.976 1794.92,297.965 1760.41,313.941C1725.91,329.917 1696.67,351.326 1672.7,378.166C1648.74,405.006 1630.37,436.16 1617.59,471.628C1604.81,507.095 1598.41,544.32 1598.41,583.302C1598.41,622.285 1604.81,659.509 1617.59,694.977C1630.37,730.444 1648.74,761.598 1672.7,788.439C1696.67,815.279 1725.91,836.687 1760.41,852.664C1794.92,868.64 1833.91,876.628 1877.36,876.628C1920.82,876.628 1959.8,868.64 1994.31,852.664C2028.82,836.687 2058.05,815.279 2082.02,788.439C2105.98,761.598 2124.36,730.444 2137.14,694.977C2149.92,659.509 2156.31,622.285 2156.31,583.302ZM2231.08,583.302C2231.08,635.066 2222.13,682.675 2204.24,726.131C2186.35,769.587 2161.58,807.131 2129.95,838.764C2098.32,870.397 2060.93,895.161 2017.79,913.054C1974.66,930.948 1927.85,939.894 1877.36,939.894C1826.88,939.894 1780.07,930.948 1736.93,913.054C1693.79,895.161 1656.41,870.397 1624.78,838.764C1593.14,807.131 1568.38,769.587 1550.49,726.131C1532.59,682.675 1523.65,635.066 1523.65,583.302C1523.65,531.539 1532.59,483.929 1550.49,440.474C1568.38,397.018 1593.14,359.474 1624.78,327.84C1656.41,296.207 1693.79,271.444 1736.93,253.55C1780.07,235.657 1826.88,226.71 1877.36,226.71C1927.85,226.71 1974.66,235.657 2017.79,253.55C2060.93,271.444 2098.32,296.207 2129.95,327.84C2161.58,359.474 2186.35,397.018 2204.24,440.474C2222.13,483.929 2231.08,531.539 2231.08,583.302Z" style="fill-rule:nonzero;"/>
            <path d="M2332.69,859.374L2466.89,859.374C2518.65,859.374 2563.55,851.545 2601.57,835.888C2639.59,820.232 2671.23,799.462 2696.47,773.581C2721.71,747.699 2740.41,718.302 2752.55,685.391C2764.69,652.48 2770.76,618.45 2770.76,583.302C2770.76,548.154 2764.69,514.125 2752.55,481.213C2740.41,448.302 2721.71,418.906 2696.47,393.024C2671.23,367.142 2639.59,346.373 2601.57,330.716C2563.55,315.059 2518.65,307.231 2466.89,307.231L2332.69,307.231L2332.69,859.374ZM2263.67,243.964L2488.94,243.964C2531.12,243.964 2573.45,250.994 2615.95,265.053C2658.45,279.112 2696.79,300.361 2730.98,328.799C2765.17,357.237 2792.81,392.704 2813.9,435.201C2834.99,477.699 2845.53,527.065 2845.53,583.302C2845.53,640.178 2834.99,689.705 2813.9,731.882C2792.81,774.06 2765.17,809.368 2730.98,837.806C2696.79,866.243 2658.45,887.492 2615.95,901.551C2573.45,915.61 2531.12,922.64 2488.94,922.64L2263.67,922.64L2263.67,243.964Z" style="fill-rule:nonzero;"/>
            <path d="M3503.12,583.302C3503.12,544.32 3496.73,507.095 3483.94,471.628C3471.16,436.16 3452.79,405.006 3428.83,378.166C3404.86,351.326 3375.62,329.917 3341.12,313.941C3306.61,297.965 3267.62,289.976 3224.17,289.976C3180.71,289.976 3141.73,297.965 3107.22,313.941C3072.71,329.917 3043.48,351.326 3019.51,378.166C2995.55,405.006 2977.18,436.16 2964.39,471.628C2951.61,507.095 2945.22,544.32 2945.22,583.302C2945.22,622.285 2951.61,659.509 2964.39,694.977C2977.18,730.444 2995.55,761.598 3019.51,788.439C3043.48,815.279 3072.71,836.687 3107.22,852.664C3141.73,868.64 3180.71,876.628 3224.17,876.628C3267.62,876.628 3306.61,868.64 3341.12,852.664C3375.62,836.687 3404.86,815.279 3428.83,788.439C3452.79,761.598 3471.16,730.444 3483.94,694.977C3496.73,659.509 3503.12,622.285 3503.12,583.302ZM3577.89,583.302C3577.89,635.066 3568.94,682.675 3551.05,726.131C3533.15,769.587 3508.39,807.131 3476.76,838.764C3445.12,870.397 3407.74,895.161 3364.6,913.054C3321.47,930.948 3274.65,939.894 3224.17,939.894C3173.68,939.894 3126.87,930.948 3083.74,913.054C3040.6,895.161 3003.22,870.397 2971.58,838.764C2939.95,807.131 2915.19,769.587 2897.29,726.131C2879.4,682.675 2870.45,635.066 2870.45,583.302C2870.45,531.539 2879.4,483.929 2897.29,440.474C2915.19,397.018 2939.95,359.474 2971.58,327.84C3003.22,296.207 3040.6,271.444 3083.74,253.55C3126.87,235.657 3173.68,226.71 3224.17,226.71C3274.65,226.71 3321.47,235.657 3364.6,253.55C3407.74,271.444 3445.12,296.207 3476.76,327.84C3508.39,359.474 3533.15,397.018 3551.05,440.474C3568.94,483.929 3577.89,531.539 3577.89,583.302Z" style="fill-rule:nonzero;"/>
        </g>
    </g>
</svg>
