<svg width="1680" height="800" viewBox="0 0 1680 800" fill="none" xmlns="http://www.w3.org/2000/svg">
<rect width="1680" height="800" fill="white"/>
<path fill-rule="evenodd" clip-rule="evenodd" d="M1312.76 193.143C1306.78 193.433 1297.66 194.36 1292.5 195.204C1281.24 197.044 1269.23 199.747 1269.25 200.433C1269.26 200.706 1272.04 202.54 1275.44 204.509C1284.93 210.01 1291.36 215.066 1300.42 224.142C1315.66 239.414 1326.41 259.033 1331.1 280.15L1332.36 285.821L1339.56 286.73C1390.92 293.216 1431.82 333.286 1439.66 384.808C1440.16 388.109 1440.59 395.61 1440.6 401.474L1440.63 412.138L1444.43 412.938C1473.73 419.104 1503.65 443.095 1516.94 471.07L1519.77 477.026L1520.92 474.287C1522.79 469.81 1527.31 454.361 1528.9 447.02C1535.36 417.222 1535.2 382.883 1528.49 354.411C1514.19 293.785 1474.5 243.175 1419.35 215.241C1385.97 198.338 1351.8 191.252 1312.76 193.143ZM1170.16 204.249C1129.55 204.679 1129.24 204.693 1126.09 206.375C1121.88 208.623 1118.19 212.409 1116.29 216.421C1114.77 219.643 1114.74 220.773 1114.5 291.743L1114.25 363.793L1115.95 367.245C1119.98 375.425 1126.31 379.267 1136.6 379.784L1143.19 380.114L1147.48 376.03C1149.84 373.783 1154.33 370.062 1157.45 367.76C1163.27 363.462 1175.88 355.912 1177.24 355.912C1177.66 355.912 1175.79 353.633 1173.08 350.846C1162.96 340.421 1158.42 332.387 1155.38 319.512C1153.54 311.722 1153.74 297.92 1155.8 290.242C1161.61 268.514 1178.94 251.229 1200.63 245.524C1209.03 243.313 1223.71 243.311 1232.04 245.52C1256.1 251.893 1273.99 271.528 1278.3 296.278C1280.24 307.397 1277.86 323.791 1272.89 333.567L1271.47 336.366L1273.17 336.726C1274.1 336.923 1277.9 337.645 1281.62 338.329C1285.33 339.013 1292.76 341.067 1298.13 342.893C1303.49 344.718 1308.42 346.394 1309.08 346.616C1310.62 347.134 1313.02 341.706 1315.39 332.332C1320.65 311.576 1319.6 290.181 1312.36 270.61C1307 256.118 1299.44 244.363 1288.54 233.601C1273.96 219.189 1254.25 208.768 1235.46 205.532C1226.33 203.959 1216.22 203.761 1170.16 204.249ZM1255.35 354.976C1249.62 359.526 1239.38 364.672 1231.71 366.86C1227.97 367.926 1224.37 368.245 1216.32 368.223C1207.26 368.197 1204.96 367.932 1199.61 366.289L1193.4 364.384L1185.17 369.342C1174.47 375.792 1166.46 382.208 1157.93 391.184C1142.65 407.256 1131.35 427.299 1126.33 447.251C1121.64 465.844 1121.75 463.932 1121.75 523.279C1121.75 577.365 1121.76 577.724 1123.42 582.977C1125.43 589.379 1129.56 595.916 1134.78 600.958C1139.47 605.492 1144.14 608.304 1150.65 610.508C1155.43 612.125 1156.49 612.166 1200.93 612.428C1249.82 612.718 1265.85 612.118 1278.36 609.532C1297.24 605.63 1316.1 597.289 1331.02 586.247C1331.36 585.995 1329.58 582.652 1327.06 578.817C1318.55 565.85 1312.85 551.351 1310.17 535.8L1309.67 532.935L1304.55 537.767C1295.79 546.031 1287.72 550.673 1275.24 554.626C1260.94 559.154 1247.89 559.588 1233.8 556.007C1208.27 549.513 1187.99 530.755 1179.99 506.226C1173.33 485.841 1174.29 467.619 1182.99 449.094C1202.99 406.514 1255.63 391.65 1294.37 417.648C1307.83 426.679 1318.09 439.132 1323.73 453.283C1324.92 456.27 1326.07 458.719 1326.27 458.724C1326.48 458.729 1328.23 456.597 1330.16 453.986C1335.56 446.695 1343.92 438.083 1350.61 432.916C1357.13 427.886 1366.28 421.958 1367.53 421.958C1369.05 421.958 1368.23 419.893 1364.09 413.288C1353.92 397.08 1340.15 382.729 1325.15 372.68C1307.88 361.116 1285.76 353.291 1264.35 351.175C1260.72 350.815 1260.44 350.932 1255.35 354.976ZM1409.5 425.718C1377.84 428.75 1349.33 448.656 1335.12 477.635C1320.36 507.743 1322.8 542.655 1341.67 571.405C1346.29 578.445 1359.57 591.755 1366.52 596.313C1376.7 602.995 1388.31 607.927 1400.57 610.787C1405.5 611.936 1411.63 612.135 1449.97 612.389C1488.78 612.646 1494.15 612.542 1497.39 611.466C1503.13 609.56 1507.46 605.787 1510.1 600.398L1512.4 595.704L1512.43 552.175C1512.45 505.012 1512.34 503.308 1508.14 489.936C1498.89 460.433 1473.53 436.352 1443.35 428.397C1432.09 425.43 1421.36 424.581 1409.5 425.718ZM1434.35 462.471C1451.04 466.997 1465.76 479.795 1472.84 495.938C1478.59 509.04 1478.59 528.544 1472.83 541.613C1465.76 557.681 1452.1 569.794 1435.47 574.734C1426.48 577.407 1413.08 577.599 1404.11 575.185C1393.02 572.2 1382.59 565.464 1374.6 556.141C1369.55 550.241 1366.4 544.659 1363.68 536.748C1361.36 530.016 1361.24 529.109 1361.24 518.776C1361.24 508.421 1361.36 507.538 1363.74 500.592C1369.78 482.885 1385.13 467.864 1402.28 462.878C1410.67 460.441 1426.14 460.244 1434.35 462.471Z" fill="black"/>
</svg>
