<svg width="127" height="224" viewBox="0 0 127 224" fill="none" xmlns="http://www.w3.org/2000/svg">
<path d="M27.5395 80.9997L59.772 44.9996L55.2311 55.6343L29.4294 80.9997H27.5395Z" fill="black"/>
<path d="M45.7821 117.893L23.3139 109.228C19.7966 107.863 18.0118 103.871 19.3766 100.353L25.9912 83.1795C27.356 79.6608 31.3457 77.8753 34.863 79.2408L57.3312 87.906C60.8485 89.2716 62.6333 93.2627 61.2685 96.7817L54.6539 113.954C53.2891 117.473 49.2994 119.259 45.7821 117.893Z" fill="black"/>
<path d="M109.722 57.6819L122.452 36.255C122.452 36.255 127.412 33.4191 126.363 37.2266C125.286 41.0341 114.052 59.52 114.052 59.52L109.722 57.6819Z" fill="black"/>
<path d="M73.709 40.536L69.9032 52.7199L59.2989 54.0066C59.2989 54.0066 67.2783 46.9693 68.197 39.1443C69.142 31.3193 73.709 40.536 73.709 40.536Z" fill="#D4A79A"/>
<path d="M88.7489 17.454C88.7489 17.454 90.1402 20.7889 85.9139 28.824C81.6883 36.8591 76.5175 43.3186 74.0501 42.1632C67.2782 38.9334 66.0708 33.2616 64.6796 28.2987C62.9997 22.2331 72.2915 10.8106 72.2915 10.8106L78.7485 9.18262L88.7489 17.454Z" fill="#EAC2AB"/>
<path d="M66.5177 21.1831C66.5177 21.1831 65.8353 26.1197 65.8353 32.1066C65.8353 32.3429 65.809 32.5268 65.6778 32.6843C65.3366 33.1045 62.6592 28.6405 62.4756 28.2991C61.1631 26.0409 59.1683 23.31 59.9557 20.5792C60.1657 19.8176 60.5857 19.1087 60.6382 18.3209C60.7694 16.8505 59.6145 15.9052 59.352 14.566C59.1158 13.3318 59.4308 11.9139 59.8245 10.7585C60.5594 8.55277 62.0293 6.11074 64.0504 4.85033C65.6515 3.85251 66.9902 4.35142 68.5913 3.79999C69.4312 3.51115 69.7987 2.56584 70.3762 1.88312C71.2423 0.83278 72.6597 0.333871 74.0247 0.307613C75.7045 0.255096 78.1456 0.596456 79.5892 1.56802C81.4263 2.80217 81.6104 6.08448 83.3425 7.00353C83.6311 7.16108 83.9727 7.18734 84.3135 7.23985C87.5424 7.55496 90.6137 7.3974 93.1858 9.62941C97.2804 13.1217 94.4719 25.4632 88.4346 21.9708C87.7522 21.577 87.1485 21.0256 86.4926 20.5529C83.3168 18.3734 79.3005 22.0234 77.1744 16.5091C76.7807 15.5113 70.1924 15.1699 70.1137 17.8745C70.0087 21.3669 66.5177 21.1831 66.5177 21.1831Z" fill="#111111"/>
<path d="M67.9879 21.104C67.9879 21.104 66.1243 17.4803 65.2582 22.0755C64.392 26.6708 66.5443 28.22 66.5443 28.22L67.9879 21.104Z" fill="#EAC2AB"/>
<path d="M26.7535 185.59L12.9295 203.917L6.01752 200.152L21.6544 181.86C21.6166 181.86 25.6959 183.402 26.7535 185.59Z" fill="#788292"/>
<path d="M26.9633 215.234C26.727 215.523 24.8634 215.077 24.6009 215.05C21.7136 214.631 17.2252 214.105 15.0203 212.031C12.868 210.008 11.7656 206.962 9.95449 204.652C8.66834 203.024 6.88349 201.868 5.28237 200.608C3.4975 199.216 8.95706 190.892 11.1094 192.731C12.8418 194.227 11.3719 197.3 16.359 197.693C20.6374 198.009 16.9627 203.602 21.2937 207.987C25.0734 211.847 29.6143 212.11 26.9633 215.234Z" fill="#111111"/>
<path d="M49.9827 135.908C46.728 147.54 48.6178 147.75 40.586 156.809C36.675 161.247 14.9679 179.523 10.9257 183.856C5.15115 190.026 11.1619 192.862 15.4404 194.674C18.2489 195.855 19.9025 202 24.1547 197.484C24.5747 197.037 31.8979 187.584 34.0764 183.435C36.5963 178.709 51.0064 165.737 55.9673 161.168C67.8051 150.323 61.8206 145.098 69.065 130.918C71.8211 125.509 71.2173 119.758 72.031 113.535C72.5298 109.728 66.7289 91.9243 58.6446 95.0756C53.6312 97.045 55.5473 107.233 55.7573 111.251C55.9148 114.034 56.3085 117.106 55.6261 119.785C54.2087 125.299 51.5314 130.419 49.9827 135.908Z" fill="#111111"/>
<path d="M77.0358 197.48L83.447 213.962L73.8995 215.732L69.0104 198.313C69.0565 198.313 73.9916 196.933 77.0358 197.48Z" fill="#788292"/>
<path d="M101.519 218.366C101.519 218.366 97.45 219.758 89.6813 220.336C81.9118 220.914 73.2234 221.202 71.6486 220.047C70.0737 218.891 69.0501 209.071 71.6486 209.071C74.2472 209.071 75.2446 212.826 79.838 209.465C83.7493 206.603 86.8985 212.012 93.7228 213.456C100.495 214.9 103.278 215.478 101.519 218.366Z" fill="#111111"/>
<path d="M89.1958 203.915C88.933 203.312 88.2506 202.839 87.6469 202.366C82.2132 198.034 85.0482 191.443 84.418 185.64C82.4238 167.547 85.8617 156.965 79.0638 138.479C74.4441 125.902 73.1842 117.604 72.0556 103.634C71.6619 98.7768 81.2688 92.5273 73.9454 93.8921C70.4807 94.5489 67.0422 94.418 63.6037 93.8135C61.7926 93.4987 63.6299 92.895 61.7926 93.4987C55.4668 95.5204 50.7684 106.838 50.6897 111.223C50.5059 121.018 58.0129 127.425 60.0602 135.985C63.6562 151.005 69.3258 161.64 67.8559 174.007C67.1209 180.073 66.281 186.113 65.4935 192.152C65.021 195.67 62.0813 203.417 64.0499 206.594C66.7535 210.979 78.8538 207.251 82.8956 207.172C85.9147 207.145 90.088 205.99 89.1958 203.915Z" fill="#333333"/>
<path d="M75.4158 70.7862C73.5784 63.3288 75.5733 50.8036 70.3237 45.2892C69.7987 44.7116 69.2213 44.1601 68.5125 43.845C61.9243 40.8778 57.9346 46.2871 55.0998 50.9873C52.265 55.6876 52.3176 60.7817 50.9263 66.0335C49.3515 72.0204 49.6665 78.2436 49.5615 84.4408C49.4827 88.1958 49.9552 91.9508 49.7452 95.7315C49.5877 98.3577 49.2203 100.983 48.6166 103.557C48.2229 105.264 47.9603 107.259 48.6166 108.992C49.1415 110.357 49.5352 111.25 50.6901 111.277C55.1786 111.434 59.5882 110.095 63.578 108.125C67.2264 106.314 67.9613 106.839 72.161 106.498C74.2608 106.314 77.1481 98.4886 77.1481 93.8938C76.7544 84.9659 78.093 83.3907 77.1481 77.0095C76.8331 74.9351 75.9145 72.8344 75.4158 70.7862Z" fill="#FEFEFE"/>
<path d="M63.7103 54.8986C63.7103 54.8986 73.1071 76.3256 77.6743 79.2139C82.2413 82.102 86.2048 81.6821 94.2364 76.4043C102.295 71.1263 109.539 64.8243 110.3 64.1153C111.061 63.4064 117.676 62.6186 118.254 59.7565C118.831 56.8942 121.351 47.6776 118.91 49.4894C116.495 51.3012 114.396 57.2619 112.401 57.3669C110.379 57.472 113.241 51.1961 111.403 52.2203C109.566 53.2181 109.435 54.8986 108.778 56.3166C108.122 57.7345 108.988 59.3101 104.998 62.8287C101.008 66.3473 87.9113 75.4853 84.131 74.8025C80.3516 74.1198 66.5714 53.7957 65.9939 52.2465C65.4165 50.6972 63.7103 54.8986 63.7103 54.8986Z" fill="#EAC2AB"/>
<path d="M76.6494 61.9621C76.6494 61.9621 70.9535 44.8678 64.1553 48.3077C57.357 51.7475 72.161 74.5925 72.161 74.5925L80.5606 69.9972L76.6494 61.9621Z" fill="#F8F8FF"/>
</svg>
