<svg width="40" height="40" viewBox="0 0 40 40" fill="none" xmlns="http://www.w3.org/2000/svg">
<path fill-rule="evenodd" clip-rule="evenodd" d="M18.6632 0.576777C18.1012 0.604014 17.2449 0.691078 16.7604 0.770292C15.7035 0.943111 14.5752 1.19687 14.5773 1.26133C14.5781 1.28691 14.8398 1.45919 15.1587 1.64408C16.0494 2.16058 16.6534 2.63532 17.5039 3.48747C18.9351 4.92146 19.9444 6.76366 20.3851 8.7465L20.5035 9.27894L21.1792 9.36428C26.002 9.97337 29.842 13.7358 30.5783 18.5735C30.6255 18.8835 30.6654 19.5878 30.667 20.1384L30.6698 21.1397L31.0265 21.2148C33.7773 21.7938 36.587 24.0465 37.8348 26.6732L38.1005 27.2325L38.208 26.9753C38.3837 26.5549 38.8085 25.1043 38.9578 24.415C39.5639 21.6171 39.5496 18.3928 38.9192 15.7193C37.5768 10.0268 33.85 5.27465 28.6711 2.65174C25.5372 1.06461 22.3282 0.39926 18.6632 0.576777ZM5.27355 1.61958C1.45999 1.65996 1.43073 1.66133 1.13523 1.81928C0.740227 2.03034 0.393399 2.38585 0.215109 2.76253C0.071846 3.06505 0.0693482 3.17121 0.0465713 9.83498L0.0234375 16.6003L0.183114 16.9244C0.561639 17.6925 1.15556 18.0532 2.12207 18.1018L2.74079 18.1328L3.14388 17.7493C3.36558 17.5383 3.78657 17.1889 4.0794 16.9728C4.62622 16.5692 5.81062 15.8603 5.93819 15.8603C5.97756 15.8603 5.80176 15.6463 5.54765 15.3846C4.59673 14.4057 4.17062 13.6514 3.88553 12.4424C3.713 11.711 3.73138 10.415 3.92448 9.69404C4.47077 7.65392 6.09798 6.03087 8.13399 5.49523C8.92315 5.28762 10.301 5.28744 11.0837 5.49481C13.3423 6.09326 15.0225 7.93688 15.4272 10.2608C15.609 11.3049 15.3857 12.8442 14.9194 13.7622L14.7859 14.025L14.9451 14.0588C15.0327 14.0773 15.3898 14.1451 15.7386 14.2093C16.0874 14.2735 16.7851 14.4664 17.289 14.6378C17.7928 14.8092 18.2557 14.9666 18.3175 14.9874C18.4618 15.0361 18.687 14.5264 18.9099 13.6462C19.4034 11.6973 19.3047 9.68839 18.6254 7.85071C18.1224 6.48998 17.4121 5.38616 16.3892 4.37565C15.0195 3.02247 13.1688 2.04396 11.4043 1.74007C10.5471 1.5924 9.59778 1.57379 5.27355 1.61958ZM13.2721 15.7724C12.734 16.1996 11.773 16.6828 11.0522 16.8883C10.7015 16.9884 10.363 17.0183 9.60759 17.0162C8.75634 17.0138 8.54094 16.9889 8.03807 16.8346L7.4552 16.6558L6.68251 17.1213C5.67753 17.7269 4.92607 18.3294 4.12495 19.1722C2.69036 20.6813 1.62948 22.5633 1.15729 24.4367C0.717331 26.1825 0.728095 26.003 0.728095 31.5755C0.728095 36.654 0.729047 36.6877 0.884263 37.1809C1.07338 37.7821 1.46118 38.3959 1.95085 38.8693C2.39117 39.295 2.83006 39.5591 3.44129 39.766C3.88969 39.9178 3.98942 39.9217 8.16289 39.9463C12.7528 39.9735 14.258 39.9172 15.4325 39.6744C17.2054 39.308 18.9768 38.5248 20.3775 37.488C20.4095 37.4643 20.2423 37.1504 20.0059 36.7903C19.2064 35.5728 18.6717 34.2114 18.4196 32.7512L18.3731 32.4822L17.8923 32.9359C17.0697 33.7118 16.3117 34.1477 15.1396 34.5189C13.7971 34.944 12.5716 34.9848 11.2491 34.6485C8.85191 34.0388 6.94781 32.2775 6.19587 29.9743C5.57102 28.0602 5.661 26.3492 6.47793 24.6098C8.35587 20.6116 13.2989 19.216 16.9366 21.6571C18.2003 22.5051 19.1637 23.6744 19.6932 25.0031C19.8049 25.2836 19.9123 25.5135 19.9317 25.514C19.9511 25.5145 20.1154 25.3143 20.2969 25.0691C20.8036 24.3845 21.5883 23.5759 22.2169 23.0907C22.8287 22.6184 23.6884 22.0618 23.8059 22.0618C23.9487 22.0618 23.8716 21.8679 23.4824 21.2477C22.5273 19.7258 21.2351 18.3783 19.826 17.4347C18.2044 16.3489 16.1273 15.6142 14.1178 15.4155C13.7762 15.3817 13.7503 15.3927 13.2721 15.7724ZM27.7461 22.4148C24.7739 22.6995 22.0964 24.5686 20.7626 27.2897C19.3769 30.1167 19.6059 33.3948 21.3777 36.0944C21.8116 36.7554 23.0581 38.0052 23.7104 38.4331C24.667 39.0606 25.7564 39.5237 26.9084 39.7922C27.3713 39.9001 27.9465 39.9188 31.5465 39.9426C35.1905 39.9668 35.6949 39.957 35.999 39.856C36.5378 39.677 36.9448 39.3227 37.1926 38.8167L37.4084 38.376L37.4109 34.2887C37.4135 29.8603 37.4025 29.7003 37.0086 28.4447C36.1396 25.6745 33.7588 23.4133 30.9246 22.6664C29.8675 22.3878 28.8601 22.3081 27.7461 22.4148ZM30.0796 25.8658C31.6467 26.2908 33.0289 27.4925 33.694 29.0083C34.2337 30.2385 34.2334 32.0699 33.6934 33.297C33.0293 34.8057 31.7464 35.9431 30.1853 36.4069C29.3404 36.6579 28.0824 36.676 27.2405 36.4493C26.1995 36.169 25.2194 35.5365 24.4696 34.6611C23.995 34.1071 23.6998 33.583 23.4439 32.8402C23.2262 32.2081 23.2146 32.1229 23.215 31.1527C23.2154 30.1804 23.2267 30.0975 23.4494 29.4453C24.017 27.7826 25.4586 26.3722 27.0689 25.904C27.8561 25.6752 29.3088 25.6567 30.0796 25.8658Z" fill="black"/>
</svg>
